<?xml version="1.0" standalone="no"?>
<!DOCTYPE svg PUBLIC "-//W3C//DTD SVG 1.1//EN" "http://www.w3.org/Graphics/SVG/1.1/DTD/svg11.dtd" >
<svg xmlns="http://www.w3.org/2000/svg" xmlns:xlink="http://www.w3.org/1999/xlink" version="1.1">
<metadata>
Created by FontForge 20170731 at Wed Oct 14 21:42:55 2020
 By Aleksey,,,
Copyright  2015 by Rodrigo Saiani. All rights reserved.
</metadata>
<defs>
<font id="GlobotipoRounded-Bold" horiz-adv-x="0" >
  <font-face 
    font-family="Globotipo Rounded"
    font-weight="600"
    font-stretch="normal"
    units-per-em="2048"
    panose-1="0 0 7 0 0 0 0 0 0 0"
    ascent="1638"
    descent="-410"
    x-height="983"
    cap-height="1469"
    bbox="-541 -410 2055 1943"
    underline-thickness="102"
    underline-position="-307"
    unicode-range="U+0020-FB02"
  />
<missing-glyph horiz-adv-x="1433" 
d="M717 1452q196 0 363 -97.5t264.5 -264.5t97.5 -363q0 -197 -97.5 -364.5t-264.5 -265t-363 -97.5q-197 0 -364.5 97.5t-265 265t-97.5 364.5q0 196 97.5 363t265 264.5t364.5 97.5zM717 41q185 0 343 92t249.5 250t91.5 344q0 139 -54.5 265.5t-146 218t-218 146
t-265.5 54.5q-186 0 -344 -91.5t-250 -249.5t-92 -343q0 -186 92 -344t250 -250t344 -92zM1137 1174l28 -29l-420 -420l420 -420l-28 -29l-420 420l-420 -420l-29 29l420 420l-420 420l29 29l420 -420z" />
    <glyph glyph-name="fi" unicode="fi" horiz-adv-x="1406" 
d="M786 1500q51 -37 51 -107q0 -44 -22.5 -70.5t-63.5 -26.5q-8 0 -46 9q-36 6 -62 6q-136 0 -136 -140v-188h202q40 0 67.5 -29t27.5 -72t-27.5 -72t-67.5 -29h-202v-642q0 -75 -36.5 -114.5t-106.5 -39.5q-69 0 -106 39.5t-37 114.5v642h-84q-40 0 -67.5 29t-27.5 72
t27.5 72t67.5 29h84v181q0 188 92.5 287.5t265.5 99.5q132 0 207 -51zM1099 1181q-79 0 -125.5 47t-46.5 118q0 72 46.5 118.5t125.5 46.5q78 0 124.5 -46.5t46.5 -118.5q0 -71 -46.5 -118t-124.5 -47zM1104 999q67 0 105 -40t38 -113v-709q0 -72 -37.5 -112.5t-105.5 -40.5
q-67 0 -105 40t-38 113v709q0 72 37.5 112.5t105.5 40.5z" />
    <glyph glyph-name="fl" unicode="fl" horiz-adv-x="1507" 
d="M786 1500q51 -37 51 -107q0 -44 -22.5 -70.5t-63.5 -26.5q-8 0 -46 9q-36 6 -62 6q-136 0 -136 -140v-188h202q40 0 67.5 -29t27.5 -72t-27.5 -72t-67.5 -29h-202v-642q0 -75 -36.5 -114.5t-106.5 -39.5q-69 0 -106 39.5t-37 114.5v642h-84q-40 0 -67.5 29t-27.5 72
t27.5 72t67.5 29h84v181q0 188 92.5 287.5t265.5 99.5q132 0 207 -51zM1375 231q37 0 59.5 -25.5t22.5 -71.5q0 -68 -60 -107q-74 -47 -194 -47q-127 0 -198.5 70.5t-71.5 205.5v1137q0 72 37.5 112t105.5 40t106 -40t38 -112v-1086q0 -91 83 -91q22 0 46 7.5t26 7.5z" />
    <glyph glyph-name=".notdef" horiz-adv-x="1433" 
d="M717 1452q196 0 363 -97.5t264.5 -264.5t97.5 -363q0 -197 -97.5 -364.5t-264.5 -265t-363 -97.5q-197 0 -364.5 97.5t-265 265t-97.5 364.5q0 196 97.5 363t265 264.5t364.5 97.5zM717 41q185 0 343 92t249.5 250t91.5 344q0 139 -54.5 265.5t-146 218t-218 146
t-265.5 54.5q-186 0 -344 -91.5t-250 -249.5t-92 -343q0 -186 92 -344t250 -250t344 -92zM1137 1174l28 -29l-420 -420l420 -420l-28 -29l-420 420l-420 -420l-29 29l420 420l-420 420l29 29l420 -420z" />
    <glyph glyph-name=".null" 
 />
    <glyph glyph-name="nonmarkingreturn" horiz-adv-x="682" 
 />
    <glyph glyph-name="space" unicode=" " horiz-adv-x="421" 
 />
    <glyph glyph-name="exclam" unicode="!" horiz-adv-x="550" 
d="M274 461q-42 0 -73 29t-35 72l-27 727q-2 20 -2 30q0 70 35.5 109t105.5 39q65 0 100 -36.5t35 -108.5q0 -9 -2 -33l-27 -727q-5 -44 -35 -72.5t-75 -28.5zM276 -17q-70 0 -115.5 49.5t-45.5 121.5q0 71 45.5 120.5t115.5 49.5q69 0 114.5 -49.5t45.5 -120.5
q0 -72 -45.5 -121.5t-114.5 -49.5z" />
    <glyph glyph-name="quotedbl" unicode="&#x22;" horiz-adv-x="940" 
d="M233 882q-45 0 -71 27t-31 75l-24 331q-7 73 25.5 113.5t99.5 40.5q70 0 102 -40t25 -114l-24 -331q-5 -48 -31.5 -75t-70.5 -27zM658 882q-45 0 -71 27t-31 75l-24 331q-7 73 25.5 113.5t99.5 40.5q70 0 102 -40t25 -114l-24 -331q-5 -48 -31.5 -75t-70.5 -27z" />
    <glyph glyph-name="numbersign" unicode="#" horiz-adv-x="1323" 
d="M554 1454h35q-14 0 -20 -1q-5 1 -15 1zM1008 1454h41q-14 0 -21 -1q-6 1 -20 1zM1178 1056q44 0 71 -23.5t31 -66.5q-4 -32 -27 -50.5t-60 -18.5h-179l-65 -343h195q36 0 58.5 -20.5t24.5 -57.5q-3 -38 -27 -59.5t-66 -21.5h-216l-54 -286q-8 -46 -39 -74.5t-78 -33.5
q-60 8 -60 69q0 16 2 25l57 300h-303l-57 -299q-16 -81 -99 -94q-71 11 -71 83q0 14 3 29l54 281h-106q-41 0 -67.5 21t-33.5 59q7 37 34 58t70 21h133l65 343h-161q-37 0 -60.5 19.5t-28.5 55.5q5 39 33 61.5t73 22.5h174l55 289q8 45 39 74t78 34q59 -8 59 -69
q0 -16 -2 -25l-58 -303h302l58 302q8 39 34 64.5t66 30.5q34 -4 52.5 -26t18.5 -58q0 -19 -2 -29l-54 -284h134zM117 953v38q0 -13 1 -19q-1 -6 -1 -19zM1281 980v-31q0 12 -1 17q1 5 1 14zM776 554l65 343h-303l-65 -343h303zM64 451v50q0 -10 2 -26q-2 -16 -2 -24z
M1228 485v-19q0 1 -0.5 4.5t-0.5 5.5t0.5 5t0.5 4zM309 0h-44q8 0 22 2q14 -2 22 -2zM762 0h-34q13 0 19 1q5 -1 15 -1z" />
    <glyph glyph-name="dollar" unicode="$" horiz-adv-x="1198" 
d="M667 1703h56q-20 0 -29 -2q-8 2 -27 2zM1071 453q0 -192 -127.5 -309t-343.5 -128l-21 -183q-11 -87 -95 -103q-36 8 -53.5 35.5t-12.5 71.5l22 186q-83 10 -157 31.5t-118 45.5q-33 14 -49.5 45.5t-16.5 67.5q0 49 25 84.5t63 35.5q14 0 63.5 -20.5t123.5 -41.5t148 -21
q109 0 176.5 46t67.5 130q0 27 -7 49t-26 41t-35.5 32t-52.5 29.5t-59 25.5t-72 28q-149 62 -210 103q-160 106 -166 285v13q0 174 123 280.5t318 121.5l20 163q5 42 30 69.5t65 34.5q67 -14 67 -88q0 -13 -1 -20l-20 -163q122 -14 200 -50q43 -15 64.5 -46.5t21.5 -70.5
q0 -47 -28.5 -81.5t-73.5 -34.5q-18 0 -58 14.5t-96 28.5t-112 14q-96 0 -155 -43t-59 -111q0 -38 15 -67t55.5 -53t66.5 -35.5t92 -36.5q17 -7 26 -10q73 -27 122.5 -50.5t100.5 -57.5t81 -72.5t49 -93t19 -121.5zM511 -273h-56q15 0 29 3q12 -3 27 -3z" />
    <glyph glyph-name="percent" unicode="%" horiz-adv-x="1529" 
d="M252 -45q-20 0 -35.5 15t-15.5 36q0 19 13 36l988 1426q22 29 48 29q21 0 36 -14.5t15 -35.5q0 -14 -14 -36l-987 -1428q-19 -28 -48 -28zM395 830q-117 0 -200.5 89t-83.5 232q0 145 83.5 234.5t200.5 89.5q118 0 201.5 -90t83.5 -234q0 -143 -83.5 -232t-201.5 -89z
M395 976q56 0 89 48.5t33 126.5q0 80 -33 129t-89 49q-55 0 -88.5 -49t-33.5 -129q0 -78 33.5 -126.5t88.5 -48.5zM1134 -20q-117 0 -200.5 88.5t-83.5 231.5q0 145 83.5 234.5t200.5 89.5q118 0 201 -90t83 -234q0 -143 -83 -231.5t-201 -88.5zM1134 125q56 0 88.5 48.5
t32.5 126.5q0 80 -32.5 129t-88.5 49q-55 0 -89 -49t-34 -129q0 -77 34 -126t89 -49z" />
    <glyph glyph-name="ampersand" unicode="&#x26;" horiz-adv-x="1343" 
d="M1261 706q3 -92 -14 -171q-25 -141 -107 -265l69 -76q33 -41 33 -88q0 -52 -36.5 -89.5t-85.5 -37.5q-59 0 -98 49l-60 63q-163 -111 -363 -111q-148 0 -267 48t-191 144t-72 225q0 126 70.5 226.5t204.5 161.5q-62 80 -91.5 151.5t-29.5 154.5q0 172 126 278.5
t316 106.5q138 0 227 -37q78 -34 78 -110q0 -47 -27 -77t-59 -30q-10 0 -64 9q-65 12 -110 12q-83 0 -144.5 -51.5t-61.5 -131.5q0 -31 12 -64t24.5 -56.5t48 -67.5t54 -64t71.5 -78l264 -285q47 94 47 204q0 26 -2 56.5t-2 37.5q0 56 31 86t84 30q57 0 90.5 -42t34.5 -111z
M349 427q0 -96 76.5 -155.5t201.5 -59.5q95 0 183 51l-334 368q-127 -75 -127 -204z" />
    <glyph glyph-name="quotesingle" unicode="'" horiz-adv-x="489" 
d="M244 882q-45 0 -70.5 27t-30.5 75l-24 331q-7 73 25.5 113.5t99.5 40.5q70 0 102 -40t25 -114l-24 -331q-5 -48 -32 -75t-71 -27z" />
    <glyph glyph-name="parenleft" unicode="(" horiz-adv-x="729" 
d="M525 -336q-45 0 -72 37q-157 179 -243.5 399t-86.5 467t86.5 467t243.5 399q27 37 72 37q38 0 65.5 -29.5t27.5 -70.5q0 -21 -16 -53q-114 -167 -178 -364t-64 -386q0 -190 64.5 -387.5t178.5 -363.5q15 -26 15 -52q0 -42 -27.5 -71t-65.5 -29z" />
    <glyph glyph-name="parenright" unicode=")" horiz-adv-x="729" 
d="M204 -336q-38 0 -65.5 29t-27.5 71q0 26 15 52q114 166 178.5 363.5t64.5 387.5q0 189 -64 386t-178 364q-16 28 -16 53q0 41 27.5 70.5t65.5 29.5q45 0 72 -37q157 -179 243.5 -399t86.5 -467t-86.5 -467t-243.5 -399q-27 -37 -72 -37z" />
    <glyph glyph-name="asterisk" unicode="*" horiz-adv-x="843" 
d="M790 1184q6 -18 6 -35q0 -29 -17 -50.5t-45 -30.5q-31 -9 -66.5 -12.5t-90.5 -5.5t-101 -6q35 -31 78 -65t70 -58t49 -53q19 -25 19 -53q0 -41 -41 -71q-27 -20 -58 -20q-41 0 -70 38q-19 27 -32.5 59t-32 83.5t-36.5 92.5q-17 -40 -36 -91t-33 -83.5t-35 -61.5
q-28 -38 -67 -38q-29 0 -57 21q-41 31 -41 73q0 29 18 54q20 26 47 49.5t71 57.5t79 65q-44 4 -99.5 6.5t-91 6.5t-69.5 14q-61 19 -61 77q0 17 6 36q10 32 32.5 49t50.5 17q14 0 31 -5q31 -11 61 -29t75 -49t84 -54q-9 44 -24 97t-22.5 87.5t-8.5 70.5q0 38 23 62.5
t68 24.5q43 0 68 -25t25 -64q-1 -33 -9 -67t-23 -86t-25 -97q37 22 82 52t75.5 47t63.5 29q20 6 31 6q58 0 79 -65z" />
    <glyph glyph-name="plus" unicode="+" horiz-adv-x="1191" 
d="M1018 725q41 0 69.5 -30t28.5 -73q0 -44 -28.5 -75t-69.5 -31h-321v-324q0 -44 -28 -74t-72 -30t-72.5 30t-28.5 74v324h-322q-41 0 -69.5 30.5t-28.5 73.5q0 44 28.5 74.5t69.5 30.5h322v325q0 44 28.5 74t72.5 30t72 -30t28 -74v-325h321z" />
    <glyph glyph-name="comma" unicode="," horiz-adv-x="550" 
d="M272 324q71 0 120 -49.5t49 -125.5q0 -10 -1 -20t-2 -18t-4.5 -20t-4.5 -18t-6.5 -19.5t-7 -18t-8.5 -20.5t-8.5 -18.5t-10 -21t-9.5 -20.5l-120 -253q-23 -48 -63 -48q-20 0 -31.5 13t-11.5 33q0 12 2 19l81 271q-55 12 -90.5 56t-35.5 103q0 75 48.5 125t113.5 50z" />
    <glyph glyph-name="hyphen" unicode="-" horiz-adv-x="901" 
d="M230 418q-41 0 -69.5 30.5t-28.5 73.5v8q0 41 30.5 69t73.5 28h436q41 0 69.5 -30.5t28.5 -73.5v-7q0 -41 -30.5 -69.5t-73.5 -28.5h-436z" />
    <glyph glyph-name="period" unicode="." horiz-adv-x="540" 
d="M271 -16q-70 0 -115.5 49.5t-45.5 121.5q0 71 45.5 120.5t115.5 49.5q69 0 115 -49.5t46 -120.5q0 -72 -46 -121.5t-115 -49.5z" />
    <glyph glyph-name="slash" unicode="/" horiz-adv-x="729" 
d="M73 -251q-37 0 -59 20.5t-22 57.5q0 20 11 53l539 1620q30 95 107 95q37 0 59 -23.5t22 -60.5q0 -22 -7 -44l-540 -1623q-30 -95 -110 -95z" />
    <glyph glyph-name="zero" unicode="0" horiz-adv-x="1366" 
d="M683 -19q-122 0 -227.5 48.5t-186.5 139.5t-127.5 235t-46.5 323q0 178 47 322t128 236t187 141t226 49t226 -49t186.5 -141.5t127.5 -236t47 -321.5t-46.5 -321.5t-127 -235t-186.5 -140.5t-227 -49zM683 247q139 0 219.5 125t80.5 355q0 228 -80.5 355t-219.5 127
q-136 0 -217 -127t-81 -355q0 -230 80.5 -355t217.5 -125z" />
    <glyph glyph-name="one" unicode="1" horiz-adv-x="948" 
d="M595 1475q42 0 68 -27.5t26 -72.5v-1247q0 -64 -39 -102t-109 -39q-64 1 -101.5 40.5t-37.5 109.5v984l-182 -85q-29 -13 -56 -13q-45 0 -72.5 34t-27.5 80q0 79 74 120l301 158q89 48 125 56q16 4 31 4zM542 -13h-3h2h1z" />
    <glyph glyph-name="two" unicode="2" horiz-adv-x="1128" 
d="M884 243q60 0 97.5 -32.5t44.5 -92.5q-8 -55 -48 -86.5t-105 -31.5h-684q-81 0 -81 64q0 34 28 77l359 465q107 143 153.5 228t46.5 173q0 97 -76.5 156.5t-192.5 59.5q-100 0 -193 -36q-38 -12 -52 -12q-36 0 -60.5 32t-24.5 76q0 86 81 125q136 67 315 67
q222 0 360.5 -111t138.5 -295q0 -128 -52 -242t-158 -254l-252 -330h355zM1028 144v-55q0 11 -2 29q2 16 2 26z" />
    <glyph glyph-name="three" unicode="3" horiz-adv-x="1130" 
d="M679 786q175 -34 264.5 -130.5t89.5 -235.5q0 -130 -76 -231t-206 -155t-291 -54q-90 0 -181 18t-158 49q-32 14 -50.5 44t-18.5 71q0 48 24 82t64 33q7 0 105 -30t181 -30q127 0 211 62t84 159q0 96 -87 153.5t-235 57.5h-86q-43 0 -67 31.5t-24 75.5t24 75t67 31h71
q139 0 216.5 59t77.5 144q0 80 -74.5 130.5t-192.5 50.5q-55 0 -112 -13t-96 -26.5t-49 -13.5q-33 0 -56 29t-23 73q0 46 25 80t74 49q133 51 289 51q229 0 365 -97.5t136 -250.5q0 -116 -71.5 -205.5t-213.5 -135.5z" />
    <glyph glyph-name="four" unicode="4" horiz-adv-x="1243" 
d="M1058 482q126 0 126 -118q0 -57 -32 -88t-94 -31h-77v-91q0 -77 -39.5 -124.5t-109.5 -47.5q-66 0 -98.5 46.5t-32.5 120.5v96h-498q-76 0 -117 40t-41 112q0 73 68 185l524 771q40 67 82.5 93t106.5 26q65 0 110 -43.5t45 -119.5v-827h77zM712 1086q-47 -91 -111 -195
l-286 -409h386v389q0 94 11 215z" />
    <glyph glyph-name="five" unicode="5" horiz-adv-x="1157" 
d="M525 934q153 0 273 -49.5t192.5 -153t72.5 -246.5q0 -151 -87 -268t-227.5 -177t-307.5 -60q-182 0 -302 69q-61 41 -61 115q0 47 25.5 77.5t60.5 30.5q7 0 65 -13q88 -35 204 -35q141 0 233.5 70.5t92.5 187.5q0 112 -85 177t-221 65q-101 0 -196 -31q-47 -10 -66 -10
q-24 0 -39.5 19t-10.5 54l92 569q10 60 52 94.5t107 34.5h452q59 0 96.5 -31.5t46.5 -89.5q-9 -54 -49 -84.5t-104 -30.5h-378l-47 -291q67 7 116 7zM989 1363v-65q0 24 -2 35q2 10 2 30z" />
    <glyph glyph-name="six" unicode="6" horiz-adv-x="1222" 
d="M693 919q192 0 318.5 -127t126.5 -323q0 -140 -70.5 -252.5t-191.5 -174.5t-267 -62q-225 0 -370.5 137.5t-145.5 345.5q0 233 172 453l367 454q37 52 73.5 75.5t84.5 23.5q49 0 79 -30t30 -75q0 -56 -48 -118l-294 -347q-18 -21 -21 -24q69 44 157 44zM616 227
q108 0 185 70t77 174q0 111 -75 179t-190 68q-110 0 -184.5 -72t-74.5 -181q0 -102 75 -170t187 -68z" />
    <glyph glyph-name="seven" unicode="7" horiz-adv-x="1116" 
d="M919 1454q58 0 89 -23t31 -66q0 -39 -25 -89l-578 -1178q-51 -118 -154 -118q-50 0 -85.5 34t-35.5 92q0 43 22 94l514 1004h-489q-58 0 -91.5 33.5t-34.5 94.5q2 57 36.5 89.5t96.5 32.5h704zM82 1328v10v-6v-4z" />
    <glyph glyph-name="eight" unicode="8" horiz-adv-x="1206" 
d="M606 -19q-139 0 -254 49t-187.5 148t-72.5 232q0 129 69.5 226t180.5 137q-93 49 -143.5 130.5t-50.5 182.5q0 171 131.5 280t326.5 109q194 0 325 -109t131 -280q0 -101 -49.5 -183.5t-140.5 -129.5q111 -41 179 -137t68 -224q0 -134 -72 -233.5t-187 -148.5t-254 -49z
M604 866q87 0 143 54.5t56 138.5q0 83 -56.5 135t-140.5 52q-83 0 -139.5 -52t-56.5 -135t54 -138t140 -55zM606 218q99 0 163.5 59.5t64.5 153.5q0 96 -66 157t-162 61q-97 0 -163 -61t-66 -157q0 -95 64.5 -154t164.5 -59z" />
    <glyph glyph-name="nine" unicode="9" horiz-adv-x="1222" 
d="M611 1475q225 0 370 -138t145 -346q0 -234 -171 -453l-368 -454q-37 -52 -73 -75.5t-84 -23.5q-49 0 -79 30t-30 75q0 57 47 118l294 347q12 14 22 24q-69 -44 -158 -44q-192 0 -318.5 127t-126.5 323q0 140 71 253t192 175t267 62zM606 736q110 0 184.5 72t74.5 181
q0 103 -74.5 170.5t-186.5 67.5q-108 0 -185 -70t-77 -174q0 -111 74.5 -179t189.5 -68z" />
    <glyph glyph-name="colon" unicode=":" horiz-adv-x="518" 
d="M263 601q-67 0 -110 47t-43 116q0 68 43 115t110 47q66 0 109.5 -47t43.5 -115t-43.5 -115.5t-109.5 -47.5zM263 -19q-66 0 -109.5 47.5t-43.5 116.5q0 68 43 115t110 47q66 0 109.5 -47t43.5 -115t-43.5 -116t-109.5 -48z" />
    <glyph glyph-name="semicolon" unicode=";" horiz-adv-x="540" 
d="M271 578q-70 0 -115.5 49t-45.5 121q0 71 45.5 120.5t115.5 49.5q69 0 114.5 -49.5t45.5 -120.5q0 -72 -45.5 -121t-114.5 -49zM268 304q69 0 117 -48.5t48 -121.5q0 -12 -1.5 -24.5t-3 -22t-6.5 -23.5t-7.5 -21.5t-9.5 -24t-9.5 -22.5t-12 -25.5t-11.5 -24.5l-116 -246
q-22 -47 -61 -47q-19 0 -31 12t-12 32q0 9 3 19l78 264q-54 12 -88 54t-34 100q0 73 47 121.5t110 48.5z" />
    <glyph glyph-name="less" unicode="&#x3c;" horiz-adv-x="1191" 
d="M976 72l-830 414q-35 19 -50.5 38.5t-15.5 53.5q0 36 19 59t56 43l823 408q22 12 46 12q42 0 73 -32t31 -79q0 -32 -16.5 -58.5t-43.5 -40.5l-645 -309l644 -307q27 -14 44 -41.5t17 -60.5q0 -48 -33 -80t-75 -32q-23 0 -44 12z" />
    <glyph glyph-name="equal" unicode="=" horiz-adv-x="1191" 
d="M175 724q-41 0 -70 30t-29 74q0 43 28.5 73.5t70.5 30.5h843q41 0 69.5 -30t28.5 -74q0 -43 -28 -73.5t-70 -30.5h-843zM175 297q-41 0 -70 30t-29 74q0 43 28.5 73.5t70.5 30.5h843q41 0 69.5 -30t28.5 -74q0 -43 -28 -73.5t-70 -30.5h-843z" />
    <glyph glyph-name="greater" unicode="&#x3e;" horiz-adv-x="1191" 
d="M249 72q-21 -12 -44 -12q-42 0 -75 32t-33 80q0 33 17 60.5t44 41.5l644 307l-645 309q-27 14 -43.5 40.5t-16.5 58.5q0 47 31 79t73 32q23 0 46 -12l823 -408q37 -20 56 -43t19 -59q0 -34 -15.5 -53.5t-50.5 -38.5z" />
    <glyph glyph-name="question" unicode="?" horiz-adv-x="997" 
d="M400 413q-55 0 -82 21t-31 69l-6 160q-5 75 60 100q136 51 209.5 117t73.5 160q0 96 -70 152.5t-176 56.5q-86 0 -192 -36q-59 -22 -76 -22q-29 0 -52.5 28t-23.5 68q0 48 23 84.5t66 52.5q130 51 295 51q216 0 353 -111.5t137 -287.5q0 -308 -394 -447l-4 -131
q-4 -85 -110 -85zM391 -17q-72 0 -120 46t-48 111q0 64 48 109t120 45q71 0 118.5 -45t47.5 -109q0 -65 -47.5 -111t-118.5 -46z" />
    <glyph glyph-name="at" unicode="@" horiz-adv-x="1787" 
d="M1108 783q1 45 29 72t77 28q45 -1 71 -28.5t26 -77.5v-452q0 -119 97 -119q83 0 135 95.5t52 254.5q0 134 -51 252t-139.5 202.5t-213.5 133.5t-268 49q-152 0 -285.5 -54.5t-227 -148.5t-147.5 -223.5t-54 -275.5q0 -145 57 -276t155.5 -227t238.5 -153t299 -57
q101 0 195.5 19t149 42.5t96.5 42.5t51 19q21 0 36 -17t15 -40q0 -35 -31 -54q-104 -64 -239.5 -96t-271.5 -32q-122 0 -236.5 29.5t-210.5 83t-176 129.5t-135.5 167t-86 198.5t-30.5 221.5q0 173 64.5 324.5t176 259.5t267 170t330.5 62q167 0 314.5 -58t252.5 -157.5
t166 -238.5t61 -296q0 -218 -96 -350t-255 -132q-95 0 -161 44t-86 122q-45 -78 -117 -116.5t-158 -38.5q-144 0 -255.5 117t-111.5 292q0 87 31 163t82.5 128t117.5 82t136 30q175 0 264 -138v23zM1212 883h3h-1h-2zM904 267q85 0 144.5 61t59.5 163q0 100 -59 160.5
t-145 60.5q-91 0 -152.5 -60t-61.5 -160q0 -102 63 -163.5t151 -61.5z" />
    <glyph glyph-name="A" unicode="A" horiz-adv-x="1439" 
d="M1324 168q10 -27 10 -60q0 -54 -33.5 -91t-97.5 -37q-61 0 -97.5 34t-58.5 99q-40 108 -63 177h-537q-30 -89 -62 -175q-46 -135 -163 -135q-56 0 -89 35.5t-33 89.5q0 30 10 59l433 1168q26 78 68 110.5t107 32.5q66 0 108 -32t68 -109zM525 523h383q-29 89 -92 290
t-97 308q-39 -118 -105.5 -324t-88.5 -274z" />
    <glyph glyph-name="B" unicode="B" horiz-adv-x="1167" 
d="M811 783q147 -28 232 -121t85 -234q0 -190 -151.5 -309t-414.5 -119h-277q-67 0 -106 40.5t-39 113.5v1156q0 67 41 105.5t114 38.5h228q253 0 391.5 -94.5t138.5 -263.5q0 -116 -68 -201t-174 -108v-4zM534 1235h-107v-380h117q106 0 168.5 51.5t62.5 144.5
q0 87 -65 135.5t-176 48.5zM542 219q132 0 208.5 56.5t76.5 155.5q0 95 -74.5 150t-201.5 55h-124v-417h115z" />
    <glyph glyph-name="C" unicode="C" horiz-adv-x="1325" 
d="M848 -19q-124 0 -240 33t-213.5 97.5t-170 154t-113.5 209t-41 255.5q0 169 62.5 310.5t168.5 236t245.5 146.5t293.5 52q197 0 311 -57q92 -49 92 -141q0 -54 -27 -82.5t-72 -28.5q-12 0 -74 17q-106 30 -203 30q-140 0 -253.5 -58t-180 -168.5t-66.5 -253.5
q0 -147 69.5 -259.5t185.5 -170t257 -57.5q110 0 223 35q42 13 66 13q38 0 63 -30.5t25 -76.5q0 -97 -79 -143q-131 -63 -329 -63z" />
    <glyph glyph-name="D" unicode="D" horiz-adv-x="1472" 
d="M141 1310q0 67 40.5 105.5t113.5 38.5h237q197 0 360.5 -53t275.5 -148t174 -228.5t62 -290.5q0 -218 -106 -384t-304.5 -258t-461.5 -92h-247q-67 0 -105.5 40.5t-38.5 113.5v1156zM537 1211h-100v-968h100q257 0 410.5 129.5t153.5 351.5q0 225 -153.5 356t-410.5 131z
" />
    <glyph glyph-name="E" unicode="E" horiz-adv-x="1085" 
d="M858 234q64 0 98 -30t34 -87t-34 -87t-98 -30h-573q-67 0 -105.5 40.5t-38.5 113.5v1156q0 67 40.5 105.5t113.5 38.5h563q64 0 98 -30t34 -87t-34 -87t-98 -30h-429v-355h358q64 0 98 -30t34 -87t-34 -87t-98 -30h-358v-397h429z" />
    <glyph glyph-name="F" unicode="F" horiz-adv-x="1042" 
d="M856 1225h-427v-433h376q123 0 123 -114q0 -56 -31.5 -85.5t-91.5 -29.5h-376v-434q0 -65 -39.5 -104t-109.5 -40q-64 2 -101.5 42.5t-37.5 111.5v1171q0 67 40.5 105.5t113.5 38.5h561q122 0 122 -115q0 -114 -122 -114zM285 -15h-10h5h5z" />
    <glyph glyph-name="G" unicode="G" horiz-adv-x="1558" 
d="M824 -19q-159 0 -298.5 55.5t-240.5 152t-159.5 235t-58.5 297.5q0 162 61.5 302.5t168 239.5t255 155.5t317.5 56.5q181 0 331 -50q87 -29 127.5 -71.5t40.5 -107.5q0 -50 -29.5 -82.5t-66.5 -32.5q-23 0 -77 21.5t-137 43.5t-176 22q-224 0 -371 -137.5t-147 -357.5
q0 -143 64.5 -254.5t170.5 -169.5t233 -58q164 0 279 93t117 239h-265q-48 -1 -81 33.5t-32 87.5v7q-1 49 33.5 82t87.5 32h391q69 0 105.5 -45t36.5 -109q0 -209 -89.5 -364.5t-243 -235.5t-347.5 -80z" />
    <glyph glyph-name="H" unicode="H" horiz-adv-x="1470" 
d="M1181 1469q69 0 108.5 -44t39.5 -116v-1161q0 -73 -39 -118t-109 -45q-69 0 -109 45t-40 118v479h-596v-479q0 -73 -39 -118t-109 -45q-69 0 -108.5 45t-39.5 118v1161q0 72 39 116t109 44q69 0 108.5 -44t39.5 -116v-449h596v449q0 71 39.5 115.5t109.5 44.5z" />
    <glyph glyph-name="I" unicode="I" horiz-adv-x="630" 
d="M315 -15q-69 0 -108.5 45t-39.5 118v1161q0 72 39 116t109 44q69 0 108.5 -44t39.5 -116v-1161q0 -73 -39 -118t-109 -45z" />
    <glyph glyph-name="J" unicode="J" horiz-adv-x="911" 
d="M340 -18q-149 0 -243 56q-87 48 -87 151q0 50 28.5 83t69.5 33q17 0 73 -23q66 -29 128 -29q78 0 128.5 47t50.5 135v884q0 72 38.5 113.5t108.5 41.5q73 0 112 -41.5t39 -113.5v-856q0 -231 -122 -356t-324 -125z" />
    <glyph glyph-name="K" unicode="K" horiz-adv-x="1273" 
d="M1178 212q37 -50 37 -99q0 -55 -40 -91.5t-96 -36.5q-69 0 -109 31t-82 96l-451 584v-548q0 -73 -39 -118t-109 -45q-69 0 -108.5 45t-39.5 118v1161q0 72 39 116t109 44q69 0 108.5 -44t39.5 -116v-522l443 557q41 62 84 93.5t102 31.5t95.5 -36.5t36.5 -93.5
q0 -55 -38 -105l-444 -490z" />
    <glyph glyph-name="L" unicode="L" horiz-adv-x="1007" 
d="M285 0q-67 0 -105.5 41t-38.5 114v1160q0 72 39 113t110 41q72 0 110.5 -40.5t38.5 -113.5v-1059h406q51 1 84.5 -34.5t33.5 -91.5q0 -59 -33 -95t-85 -35h-560z" />
    <glyph glyph-name="M" unicode="M" horiz-adv-x="1880" 
d="M1802 186q4 -19 4 -41q0 -67 -36.5 -115t-97.5 -48q-62 0 -100 43t-48 118l-131 846l-295 -876q-38 -123 -149 -123q-51 0 -91 30.5t-59 91.5l-298 877l-155 -855q-25 -152 -142 -152q-58 0 -94 40t-36 98q0 16 3 31l207 1126q18 104 62 148.5t118 44.5q66 0 107 -38.5
t71 -129.5l316 -899l297 893q30 96 70 133.5t101 37.5q70 0 110.5 -42.5t57.5 -130.5z" />
    <glyph glyph-name="N" unicode="N" horiz-adv-x="1531" 
d="M1257 1469q62 -2 97.5 -41t35.5 -108v-1199q0 -61 -33 -99t-90 -38q-54 0 -93 29.5t-97 103.5l-660 843v-836q0 -63 -37.5 -100.5t-104.5 -38.5q-62 2 -98 41.5t-36 107.5v1191q0 66 32.5 105t94.5 39q51 0 85.5 -24.5t77.5 -80.5l683 -878v844q0 63 38 100.5t105 38.5z
M1251 1469h13h-7h-6zM281 -15h-13h7h6z" />
    <glyph glyph-name="O" unicode="O" horiz-adv-x="1638" 
d="M819 -18q-204 0 -375.5 94.5t-274 266t-102.5 383.5q0 161 60.5 301.5t162.5 238.5t240 154t289 56t288 -56t239.5 -154t163 -239t60.5 -301q0 -159 -60 -298.5t-162 -236.5t-239.5 -153t-289.5 -56zM819 257q131 0 239 61.5t170 169t62 238.5q0 133 -62 242t-170 171.5
t-239 62.5q-200 0 -335.5 -137t-135.5 -339q0 -199 135.5 -334t335.5 -135z" />
    <glyph glyph-name="P" unicode="P" horiz-adv-x="1200" 
d="M552 1454q281 0 442.5 -126t161.5 -350q0 -220 -161.5 -349.5t-444.5 -129.5h-121v-360q0 -72 -38 -113t-106 -41q-67 0 -105.5 40.5t-38.5 113.5v1161q0 72 38 113t106 41h267zM548 731q146 0 225 66.5t79 180.5q0 113 -79 178.5t-223 65.5h-121v-491h119z" />
    <glyph glyph-name="Q" unicode="Q" horiz-adv-x="1658" 
d="M1549 27q32 -39 32 -83q0 -52 -38.5 -91t-87.5 -39q-53 0 -90 50l-181 209q-171 -91 -365 -91q-204 0 -375.5 94.5t-274 266t-102.5 383.5q0 161 60.5 301.5t162.5 238.5t240 154t289 56t288 -56t239.5 -154t163 -239t60.5 -301q0 -148 -50.5 -277t-142.5 -228zM347 726
q0 -199 136 -334t336 -135q131 0 239 61.5t170 169t62 238.5q0 133 -62 242t-170 171.5t-239 62.5q-200 0 -336 -137t-136 -339z" />
    <glyph glyph-name="R" unicode="R" horiz-adv-x="1243" 
d="M763 633l309 -411q36 -53 36 -108q0 -57 -36.5 -95t-93.5 -38q-61 0 -102.5 32.5t-78.5 94.5l-324 479h-46v-451q0 -71 -37.5 -112.5t-105.5 -41.5q-66 0 -104.5 41t-38.5 113v1164q0 72 38 113t106 41h286q249 0 394.5 -107.5t145.5 -297.5q0 -160 -91 -269t-257 -147z
M427 1204v-373h152q115 0 182.5 51t67.5 138q0 85 -68.5 134.5t-181.5 49.5h-152z" />
    <glyph glyph-name="S" unicode="S" horiz-adv-x="1103" 
d="M521 -21q-111 0 -219.5 23.5t-166.5 58.5q-48 28 -66.5 60t-18.5 72q0 44 28.5 77t70.5 33q24 0 69 -19.5t117 -39t160 -19.5q107 0 178.5 49.5t71.5 132.5q0 75 -61 123.5t-182 97.5q-52 22 -84.5 36.5t-81.5 40t-80.5 49t-67.5 58t-56.5 70.5t-34.5 84.5t-14 102.5
q0 124 66 217t178 141t254 48q180 0 302 -50q106 -44 106 -133q0 -47 -28.5 -80t-69.5 -33q-16 0 -114.5 26.5t-181.5 26.5q-92 0 -155 -43t-63 -111q0 -30 14 -57t30.5 -44.5t53.5 -38.5t56.5 -30.5t67.5 -29.5q11 -5 16 -7q70 -30 115.5 -52.5t99.5 -53.5t87.5 -62.5
t63.5 -72t43.5 -90t13.5 -108.5q0 -197 -145 -325t-372 -128z" />
    <glyph glyph-name="T" unicode="T" horiz-adv-x="1157" 
d="M1021 1454q48 0 82 -36.5t34 -88.5t-33.5 -88.5t-82.5 -36.5h-299v-1062q0 -64 -42 -109t-102 -45q-59 0 -101 45t-42 110v1061h-297q-49 0 -82.5 36.5t-33.5 88.5t33.5 88.5t82.5 36.5h883z" />
    <glyph glyph-name="U" unicode="U" horiz-adv-x="1417" 
d="M697 -18q-123 0 -225.5 36.5t-178.5 107.5t-118 184.5t-42 259.5l1 740q0 71 42 115t106 44q63 0 105.5 -43.5t42.5 -115.5v-762q0 -155 75.5 -234t204.5 -79t203.5 79t74.5 234v762q0 71 42 115t106 44q63 0 105.5 -43.5t42.5 -115.5v-740q0 -146 -44 -259.5
t-123 -184.5t-185.5 -107.5t-234.5 -36.5z" />
    <glyph glyph-name="V" unicode="V" horiz-adv-x="1394" 
d="M1199 1469q57 0 94 -38t37 -97q0 -36 -20 -85l-468 -1133q-29 -74 -64.5 -105t-88.5 -31q-54 0 -91 31t-64 105l-454 1129q-16 46 -16 79q0 64 41 104.5t102 40.5q59 0 95.5 -34.5t58.5 -112.5l336 -957l345 957q23 76 60.5 111.5t96.5 35.5z" />
    <glyph glyph-name="W" unicode="W" horiz-adv-x="2019" 
d="M1808 1469q60 0 103 -40t43 -107q0 -35 -25 -125l-298 -1024q-49 -193 -192 -193q-141 0 -192 192l-234 763l-232 -763q-51 -191 -191 -191t-192 190l-308 1005q-26 88 -26 135q0 72 44 115t110 43q58 0 101.5 -34.5t60.5 -105.5l236 -832l241 821q19 72 62.5 106.5
t100.5 34.5t100.5 -35t62.5 -107l248 -843l225 862q16 67 57.5 100t94.5 33z" />
    <glyph glyph-name="X" unicode="X" horiz-adv-x="1298" 
d="M1189 249q36 -50 36 -113q0 -68 -44 -110t-100 -42q-82 0 -145 106l-291 424l-284 -424q-63 -106 -145 -106q-56 0 -99 41.5t-43 109.5q0 59 47 125l355 471l-355 476q-34 48 -34 111q0 68 43 109t99 41q46 0 79.5 -26.5t66.5 -79.5l282 -402l269 405q60 103 145 103
q57 0 100 -41.5t43 -108.5q0 -60 -34 -111l-351 -466z" />
    <glyph glyph-name="Y" unicode="Y" horiz-adv-x="1277" 
d="M639 -15q-69 0 -109 42t-40 117v437l-392 649q-30 54 -30 104q0 61 40 98.5t96 37.5q104 0 153 -113l295 -526l287 527q44 111 150 111q54 0 92.5 -36.5t38.5 -97.5q0 -49 -32 -107l-400 -647v-437q0 -74 -39.5 -116.5t-109.5 -42.5z" />
    <glyph glyph-name="Z" unicode="Z" horiz-adv-x="1228" 
d="M988 227q57 0 94 -30.5t47 -86.5q-10 -52 -49 -81t-102 -29h-811q-37 0 -61.5 26.5t-24.5 65.5q0 46 36 108l653 1027h-510q-57 0 -94.5 30.5t-47.5 86.5q10 52 49.5 81t102.5 29h730q53 0 81 -26.5t28 -68.5q0 -33 -11 -59.5t-42 -77.5l-636 -995h568zM115 1310v71
q0 -19 3 -37q-3 -16 -3 -34zM1132 144v-71q0 19 -3 37q3 16 3 34z" />
    <glyph glyph-name="bracketleft" unicode="[" horiz-adv-x="649" 
d="M491 -329h-206q-68 0 -106 41.5t-38 113.5v1474q0 73 38.5 113.5t105.5 40.5h197q93 0 93 -92q0 -41 -25 -65.5t-68 -24.5h-132v-1418h141q43 0 68 -25.5t25 -65.5q0 -44 -24 -68t-69 -24z" />
    <glyph glyph-name="backslash" unicode="\" horiz-adv-x="729" 
d="M650 -251v-1q-80 0 -110 96l-540 1623q-8 26 -8 44q0 37 22 60.5t59 23.5q78 0 108 -95l539 -1620q10 -30 10 -53q0 -37 -21.5 -57.5t-58.5 -20.5z" />
    <glyph glyph-name="bracketright" unicode="]" horiz-adv-x="649" 
d="M159 -329q-45 0 -69 24t-24 68q0 40 25 65.5t68 25.5h140v1418h-131q-43 0 -68 24.5t-25 65.5q0 92 93 92h197q67 0 105.5 -40.5t38.5 -113.5v-1474q0 -72 -38 -113.5t-106 -41.5h-206z" />
    <glyph glyph-name="asciicircum" unicode="^" horiz-adv-x="1228" 
d="M958 662q22 -36 22 -64q0 -30 -20.5 -47t-50.5 -17q-49 0 -84 44l-210 239l-207 -243q-29 -42 -80 -42q-30 0 -52 18t-22 48t25 66l165 211q35 60 72 84t97 24q62 0 100.5 -24.5t75.5 -86.5z" />
    <glyph glyph-name="underscore" unicode="_" horiz-adv-x="1175" 
d="M230 -355q-41 0 -69.5 30.5t-28.5 73.5v7q0 41 30.5 69t73.5 28h710q41 0 69 -30.5t28 -73.5v-7q0 -41 -30.5 -69t-73.5 -28h-709z" />
    <glyph glyph-name="grave" unicode="`" horiz-adv-x="1024" 
d="M653 1129q-40 0 -71 20.5t-68 63.5l-171 204q-40 45 -40 92q0 43 34.5 72t81.5 29q87 0 137 -92l151 -273q15 -30 15 -52q0 -29 -19.5 -46.5t-49.5 -17.5z" />
    <glyph glyph-name="a" unicode="a" horiz-adv-x="1294" 
d="M1018 993q67 -1 104 -40.5t37 -111.5v-695q0 -73 -36.5 -114t-104.5 -42q-68 1 -104.5 41t-36.5 115v17q-44 -91 -131 -136t-193 -45q-94 0 -181.5 37.5t-155 103.5t-108 163t-40.5 208t39.5 207.5t106 162t155 103t185.5 37.5q107 0 193 -42t130 -131v10q0 71 36.5 111
t104.5 41zM623 235q110 0 183.5 71t73.5 187t-73 186.5t-185 70.5q-110 0 -185 -70.5t-75 -184.5q0 -116 76 -188t185 -72z" />
    <glyph glyph-name="b" unicode="b" horiz-adv-x="1288" 
d="M273 1530h15h-8h-7zM738 1004q98 0 186 -37t153.5 -103t104 -162t38.5 -208q0 -111 -39.5 -208t-105.5 -163t-153 -103.5t-182 -37.5q-101 0 -190.5 45.5t-133.5 134.5v-19q0 -66 -37.5 -103.5t-107.5 -39.5q-64 2 -100 41.5t-36 111.5v1234q0 66 37.5 103.5t107.5 39.5
q64 -2 100 -41.5t36 -111.5v-544q44 86 132.5 128.5t189.5 42.5zM668 235q108 0 183.5 71.5t75.5 188.5q0 114 -74 184t-184 70t-183.5 -70t-73.5 -186t74 -187t182 -71zM278 0h-15h8h7z" />
    <glyph glyph-name="c" unicode="c" horiz-adv-x="948" 
d="M555 -20q-129 0 -238 59.5t-178.5 178t-69.5 274.5q0 116 43 213.5t115 161.5t166 99.5t198 35.5q114 0 199 -41q50 -24 78.5 -59t28.5 -76q0 -45 -26.5 -77t-62.5 -32q-18 0 -81 23.5t-114 23.5q-103 0 -173 -74.5t-70 -197.5t71.5 -195.5t175.5 -72.5q53 0 118 30
t86 30q37 0 62.5 -29.5t25.5 -74.5q0 -80 -99 -138q-107 -62 -255 -62z" />
    <glyph glyph-name="d" unicode="d" horiz-adv-x="1294" 
d="M1018 1551q65 -1 102.5 -41t37.5 -111v-1254q0 -71 -37.5 -112.5t-102.5 -42.5q-66 1 -103.5 41.5t-37.5 113.5v17q-45 -89 -135.5 -134.5t-192.5 -45.5q-95 0 -182 37.5t-153 103.5t-105.5 163t-39.5 208q0 224 140 367t342 143q103 0 192 -42.5t134 -129.5v567
q0 70 37 110.5t104 41.5zM623 235q109 0 183 71t74 187t-73.5 186.5t-184.5 70.5t-185.5 -70.5t-74.5 -184.5q0 -116 76 -188t185 -72z" />
    <glyph glyph-name="e" unicode="e" horiz-adv-x="1095" 
d="M927 285q38 0 60.5 -25.5t22.5 -63.5q0 -72 -60 -118q-53 -41 -140.5 -68t-192.5 -27q-154 0 -279 63.5t-197.5 182t-72.5 269.5q0 218 149 362t360 144q117 0 217.5 -50t164 -149.5t63.5 -228.5q0 -74 -31 -108.5t-99 -34.5h-542q23 -100 98.5 -155.5t190.5 -55.5
q83 0 185 38q77 25 103 25zM574 785q-79 0 -137.5 -46.5t-81.5 -127.5h427q-11 74 -67 124t-141 50z" />
    <glyph glyph-name="f" unicode="f" horiz-adv-x="802" 
d="M643 1311q-136 0 -136 -140v-188h202q40 0 67.5 -29t27.5 -72t-27.5 -72t-67.5 -29h-202v-642q0 -75 -36.5 -114.5t-106.5 -39.5q-69 0 -106 39.5t-37 114.5v642h-84q-40 0 -67.5 29t-27.5 72t27.5 72t67.5 29h84v181q0 188 93 287.5t266 99.5q131 0 206 -51
q51 -37 51 -107q0 -44 -23 -70.5t-64 -26.5q-7 0 -45 9q-36 6 -62 6z" />
    <glyph glyph-name="g" unicode="g" horiz-adv-x="1261" 
d="M985 989q72 0 109.5 -41t37.5 -119v-611q0 -151 -44.5 -269t-124.5 -192t-187.5 -112t-238.5 -38q-242 0 -381 85q-55 37 -55 109q0 47 27 82.5t66 35.5q7 0 17.5 -2.5t19 -6l25.5 -10.5t28 -11q93 -42 218 -42q151 0 237.5 74.5t86.5 216.5v55q-119 -152 -319 -152
q-187 0 -313 134t-126 345q0 105 35 195.5t94.5 153t140 98t169.5 35.5q100 0 186 -41t144 -122q2 73 40 111.5t108 38.5zM584 264q107 0 179 69t72 182q0 111 -72.5 182t-177.5 71t-178.5 -68.5t-73.5 -185.5q0 -114 72.5 -182t178.5 -68z" />
    <glyph glyph-name="h" unicode="h" horiz-adv-x="1230" 
d="M730 1004q173 0 272 -99t99 -298v-470q0 -77 -36.5 -117t-106.5 -40t-106.5 40t-36.5 117v444q0 98 -49.5 145.5t-137.5 47.5q-95 0 -151 -61.5t-56 -165.5v-412q0 -73 -37 -114t-106 -41q-68 0 -105.5 40.5t-37.5 114.5v1265q0 71 35.5 110t102.5 39t104 -38.5
t37 -110.5v-551q103 155 316 155z" />
    <glyph glyph-name="i" unicode="i" horiz-adv-x="600" 
d="M295 1181q-79 0 -125.5 47t-46.5 118q0 72 46.5 118.5t125.5 46.5q78 0 124.5 -46.5t46.5 -118.5q0 -71 -46.5 -118t-124.5 -47zM301 -16q-67 0 -105 40t-38 113v709q0 72 37.5 112.5t105.5 40.5q67 0 105 -40t38 -113v-709q0 -72 -37.5 -112.5t-105.5 -40.5z" />
    <glyph glyph-name="j" unicode="j" horiz-adv-x="579" 
d="M296 1183q-80 0 -127 47.5t-47 118.5q0 72 47 119.5t127 47.5q79 0 125.5 -47.5t46.5 -119.5q0 -71 -46.5 -118.5t-125.5 -47.5zM146 -393q-100 0 -162 31q-70 37 -70 125q0 40 22 67.5t53 27.5q6 0 32 -4.5t45 -4.5q38 0 61.5 22.5t23.5 65.5v909q0 71 37.5 111.5
t105.5 40.5q67 0 105 -40t38 -112v-942q0 -144 -80 -220.5t-211 -76.5z" />
    <glyph glyph-name="k" unicode="k" horiz-adv-x="1103" 
d="M975 203q52 -65 52 -110q0 -51 -33 -82t-88 -31q-61 0 -103 26.5t-76 83.5l-334 417v-370q0 -72 -37.5 -112t-105.5 -40q-67 0 -105 39.5t-38 112.5v1256q0 72 37 112t106 40q68 0 105.5 -39.5t37.5 -112.5v-844l299 336q42 62 82.5 90t91.5 28q52 0 86 -29t34 -76
q0 -52 -51 -110l-257 -259z" />
    <glyph glyph-name="l" unicode="l" horiz-adv-x="704" 
d="M400 -20q-127 0 -198.5 70.5t-71.5 205.5v1137q0 72 37.5 112t105.5 40t105.5 -40t37.5 -112v-1086q0 -91 83 -91q22 0 46 7.5t26 7.5q37 0 60 -25.5t23 -71.5q0 -68 -60 -107q-74 -47 -194 -47z" />
    <glyph glyph-name="m" unicode="m" horiz-adv-x="1771" 
d="M1279 1004q164 0 264 -90.5t100 -278.5v-496q0 -72 -38 -112.5t-105 -40.5q-66 0 -104.5 40.5t-38.5 112.5v477q0 77 -44 117.5t-111 40.5q-73 0 -121.5 -48t-48.5 -124v-463q0 -72 -38 -112.5t-105 -40.5q-66 0 -104.5 40.5t-38.5 112.5v477q0 77 -44 117.5t-111 40.5
q-73 0 -121.5 -48t-48.5 -124v-463q0 -72 -38 -112.5t-105 -40.5q-66 0 -104.5 40.5t-38.5 112.5v711q0 68 36 106t102 38q62 0 97 -34.5t38 -98.5q46 71 117 107t156 36q104 0 184.5 -42t123.5 -129q45 84 121.5 127.5t168.5 43.5z" />
    <glyph glyph-name="n" unicode="n" horiz-adv-x="1230" 
d="M724 1004q176 0 276.5 -102t100.5 -300v-461q0 -73 -37 -113.5t-106 -40.5q-68 0 -105.5 40t-37.5 114v439q0 98 -50 146t-138 48q-94 0 -149.5 -58.5t-55.5 -161.5h-1v-413q0 -73 -37 -113.5t-106 -40.5q-67 0 -105.5 40t-38.5 114v699q0 76 35.5 118t101.5 42
q64 0 100 -41t37 -117q101 162 316 162z" />
    <glyph glyph-name="o" unicode="o" horiz-adv-x="1193" 
d="M597 -20q-145 0 -266.5 69t-192 188t-70.5 259q0 212 154.5 359.5t374.5 147.5t374.5 -147.5t154.5 -359.5q0 -143 -67.5 -261t-189 -186.5t-272.5 -68.5zM598 234q108 0 182 71t74 187t-73.5 186.5t-183.5 70.5q-109 0 -183.5 -70.5t-74.5 -184.5q0 -116 76 -188
t183 -72z" />
    <glyph glyph-name="p" unicode="p" horiz-adv-x="1288" 
d="M732 1002q97 0 186 -38t156 -104t107 -163t40 -208q0 -112 -39.5 -208t-106 -161.5t-156.5 -102.5t-190 -37q-95 0 -179 40.5t-132 123.5v-382q0 -73 -36 -113.5t-103 -40.5q-69 0 -106.5 39.5t-37.5 114.5v1089q0 72 35.5 112.5t101.5 40.5q68 0 106 -39.5t38 -113.5
v-13q45 84 130.5 124t185.5 40zM668 233q110 0 184.5 71t74.5 185q0 117 -75 188t-184 71q-108 0 -182.5 -71t-74.5 -187q0 -115 73.5 -186t183.5 -71z" />
    <glyph glyph-name="q" unicode="q" horiz-adv-x="1261" 
d="M1000 1002q54 0 93.5 -39t39.5 -109v-1091q0 -72 -38.5 -113t-104.5 -41t-104.5 41t-38.5 113v351q-107 -134 -309 -134t-336 142t-134 368q0 227 132 369.5t338 142.5q220 0 329 -165v17q0 69 39 108.5t94 39.5zM602 214q109 0 186.5 75.5t77.5 200.5q0 123 -77 198
t-187 75q-111 0 -185.5 -74t-74.5 -200q0 -125 76 -200t184 -75z" />
    <glyph glyph-name="r" unicode="r" horiz-adv-x="825" 
d="M669 1004q54 0 87.5 -35t33.5 -95q0 -66 -33 -103.5t-90 -42.5q-116 -10 -178 -83q-68 -79 -68 -228v-275q0 -74 -40 -117t-103 -43q-62 0 -102.5 43t-40.5 117v703q0 72 38.5 114.5t100.5 42.5q59 0 97.5 -42.5t38.5 -114.5v-69q39 111 107 169.5t152 58.5z" />
    <glyph glyph-name="s" unicode="s" horiz-adv-x="944" 
d="M452 -18q-136 0 -231 29q-140 44 -140 148q0 43 22 72t60 29q17 0 68.5 -18t94.5 -25q70 -12 131 -12q62 0 98.5 22.5t36.5 59.5q0 41 -46 64q-27 13 -143 47q-73 21 -125.5 44.5t-96.5 58t-66 84t-22 113.5q0 141 116.5 223t291.5 82q122 0 240 -37q105 -35 105 -118
q0 -47 -24.5 -74.5t-58.5 -27.5q-12 0 -108 23q-72 17 -129 17q-59 0 -95.5 -21t-36.5 -56q0 -13 4 -23t17 -19.5t23.5 -15.5t37 -15.5t43 -14.5t55.5 -17q59 -19 98 -34.5t82 -40.5t67.5 -54t41 -72t16.5 -97q0 -146 -115 -235t-312 -89z" />
    <glyph glyph-name="t" unicode="t" horiz-adv-x="815" 
d="M678 222q37 0 61.5 -25.5t24.5 -66.5q0 -68 -60 -107q-82 -44 -205 -44q-152 0 -231.5 83t-79.5 240v479h-72q-41 0 -68.5 29t-27.5 72t27.5 72t68.5 29h72v161q0 71 38 112t105 41t105 -40.5t38 -112.5v-161h177q41 0 68.5 -29t27.5 -72t-27.5 -72t-68.5 -29h-177v-444
q0 -128 113 -128q27 0 57.5 6.5t33.5 6.5z" />
    <glyph glyph-name="u" unicode="u" horiz-adv-x="1208" 
d="M932 1002q66 0 104.5 -41t38.5 -113v-723q0 -67 -39.5 -105t-93.5 -38t-93.5 38t-39.5 105v22q-102 -166 -306 -166q-169 0 -271 104t-102 299v464q0 72 38.5 113t104.5 41t104.5 -41t38.5 -113v-448q0 -100 49 -148.5t135 -48.5q87 0 138 58t51 149v438q0 72 38.5 113
t104.5 41z" />
    <glyph glyph-name="v" unicode="v" horiz-adv-x="1107" 
d="M884 995q56 0 97.5 -38t41.5 -99q0 -33 -15 -72l-279 -660q-55 -139 -175 -139q-121 0 -177 141l-276 643q-15 37 -15 77q0 65 43 106.5t102 41.5q121 0 154 -120l173 -511l185 524q30 106 141 106z" />
    <glyph glyph-name="w" unicode="w" horiz-adv-x="1519" 
d="M1333 995q48 0 85.5 -33.5t37.5 -90.5q0 -27 -9 -55l-224 -704q-39 -124 -157 -124t-149 124l-160 542l-162 -542q-33 -124 -149 -124t-155 124l-225 704q-8 29 -8 51q0 57 37.5 92.5t90.5 35.5q113 0 143 -124l135 -497l152 496q35 125 151 125q111 0 147 -123l151 -480
l123 470q30 133 145 133z" />
    <glyph glyph-name="x" unicode="x" horiz-adv-x="1101" 
d="M974 236q46 -52 46 -113q0 -55 -35.5 -96t-83.5 -41q-93 0 -159 99l-181 244l-182 -233q-77 -110 -162 -110q-52 0 -86.5 34t-34.5 86q0 66 58 130l243 268l-240 246q-48 48 -48 107q0 56 40.5 98t92.5 42q42 0 73.5 -20.5t65.5 -67.5l175 -219l167 216q33 47 65.5 69
t75.5 22q52 0 91.5 -38.5t39.5 -93.5q0 -60 -51 -115l-224 -240z" />
    <glyph glyph-name="y" unicode="y" horiz-adv-x="1105" 
d="M926 998q52 0 85.5 -31t33.5 -82q0 -32 -17 -74l-377 -848q-80 -186 -178 -271t-231 -85q-100 0 -162 35q-60 33 -60 111q0 44 27.5 72.5t67.5 24.5q68 -17 113 -17q65 0 117.5 50t84.5 141l-360 787q-14 33 -14 62q0 53 37.5 89t94.5 36q51 0 83 -26.5t52 -86.5
l229 -563l239 581q34 95 135 95z" />
    <glyph glyph-name="z" unicode="z" horiz-adv-x="1005" 
d="M152 0q-34 0 -53.5 17.5t-19.5 45.5q0 27 27 68l431 614h-333q-43 0 -73 32t-30 78v25q0 43 32 73t78 30h622q36 0 56.5 -18t20.5 -47q0 -26 -25 -67l-437 -613h373q43 0 73 -32t30 -78v-25q0 -43 -32 -73t-78 -30h-662z" />
    <glyph glyph-name="braceleft" unicode="{" horiz-adv-x="571" 
d="M372 -343q-133 0 -200.5 65.5t-67.5 162.5q0 66 36 156.5t72 174t36 130.5q0 104 -96 127q-54 21 -54 90t54 91q96 23 96 127q0 47 -36 130.5t-72 174.5t-36 157q0 97 67.5 162t200.5 65q81 0 129 -25q43 -21 43 -76q0 -33 -11 -50.5t-25 -17.5q-2 0 -37 7q-20 6 -44 6
q-53 0 -83.5 -30.5t-30.5 -80.5q0 -46 34 -126t68 -165t34 -143q0 -73 -50 -132.5t-142 -72.5q91 -13 141.5 -73t50.5 -133q0 -58 -34 -143t-68 -165t-34 -126q0 -50 30.5 -80.5t83.5 -30.5q25 0 44 6q35 7 37 7q14 0 25 -17t11 -50q0 -55 -43 -76q-50 -26 -129 -26z" />
    <glyph glyph-name="bar" unicode="|" horiz-adv-x="344" 
d="M172 1720h5h-3h-2zM174 1720q33 -1 57.5 -27t24.5 -62v-1956q0 -34 -25.5 -59t-60.5 -26q-33 1 -57.5 27.5t-24.5 62.5v1956q0 34 25.5 58.5t60.5 25.5zM172 -410h-5h3h2z" />
    <glyph glyph-name="braceright" unicode="}" horiz-adv-x="571" 
d="M203 -343q-79 0 -129 26q-44 22 -44 76q0 33 11 50t25 17q3 0 38 -7q20 -6 43 -6q53 0 84 30.5t31 80.5q0 46 -34 126t-68 165t-34 143q0 73 50 133t141 73q-91 13 -141 72.5t-50 132.5q0 58 34 143t68 165t34 126q0 50 -31 80.5t-84 30.5q-23 0 -43 -6q-35 -7 -38 -7
q-14 0 -25 17.5t-11 50.5q0 54 44 76q48 25 129 25q133 0 200.5 -65t67.5 -162q0 -66 -36.5 -157t-72.5 -174.5t-36 -130.5q0 -104 97 -127q54 -22 54 -91t-54 -90q-97 -23 -97 -127q0 -38 22.5 -99t50 -116.5t50 -124.5t22.5 -121q0 -97 -67.5 -162.5t-200.5 -65.5z" />
    <glyph glyph-name="asciitilde" unicode="~" horiz-adv-x="1191" 
d="M771 434q-42 0 -85 17.5t-67 35t-65 50.5q-35 29 -53 42.5t-48 27t-57 13.5q-94 0 -127 -125q-8 -27 -31.5 -44.5t-52.5 -17.5q-37 0 -62.5 28.5t-24.5 66.5q8 128 83.5 219t188.5 91q45 0 90.5 -18.5t72 -37.5t67.5 -52q31 -27 50 -41.5t47 -27.5t53 -13q87 0 107 113
q7 34 30.5 54t55.5 20q37 0 63.5 -28.5t25.5 -67.5q-6 -119 -80 -212t-181 -93z" />
    <glyph glyph-name="nbspace" unicode="&#xa0;" horiz-adv-x="421" 
 />
    <glyph glyph-name="exclamdown" unicode="&#xa1;" horiz-adv-x="575" 
d="M276 1475q69 0 114.5 -49.5t45.5 -121.5q0 -71 -45.5 -120.5t-114.5 -49.5q-70 0 -115.5 49.5t-45.5 120.5q0 72 45.5 121.5t115.5 49.5zM274 997q45 0 75 -28.5t35 -72.5l27 -727q2 -24 2 -33q0 -72 -35 -108.5t-100 -36.5q-70 0 -105.5 39t-35.5 109q0 10 2 30l27 727
q4 43 35 72t73 29z" />
    <glyph glyph-name="cent" unicode="&#xa2;" horiz-adv-x="968" 
d="M596 1516h58q-16 0 -30 -3q-13 3 -28 3zM821 523q37 0 62.5 -29.5t25.5 -74.5q0 -79 -100 -138q-91 -54 -215 -61l-16 -179q-8 -84 -86 -100q-34 8 -51.5 34.5t-13.5 68.5l17 188q-163 37 -269 169t-106 330q0 107 36 198.5t98.5 154.5t145 102.5t175.5 50.5l15 176
q3 40 25.5 66.5t59.5 33.5q34 -8 52 -35t14 -68l-15 -176q65 -11 115 -34q50 -24 78.5 -59t28.5 -76q0 -45 -26.5 -77t-62.5 -32q-18 0 -81 23.5t-114 23.5q-103 0 -173 -74.5t-70 -197.5t71 -195.5t175 -72.5q53 0 118.5 30t86.5 30zM520 -62h-58q16 0 30 3q14 -3 28 -3z
" />
    <glyph glyph-name="sterling" unicode="&#xa3;" horiz-adv-x="1198" 
d="M839 1240q-95 0 -152 -58.5t-69 -164.5l-19 -183h290q41 0 69 -29.5t28 -72.5t-28 -73t-69 -30h-312l-44 -423h412q41 0 69.5 -30t28.5 -73t-28.5 -73t-69.5 -30h-731q-41 0 -69.5 30t-28.5 73t28.5 73t69.5 30h36l46 423h-65q-41 0 -69 30t-28 73t28 72.5t69 29.5h86
l21 191q20 218 139 334t314 116q142 0 235 -49q75 -34 75 -109q0 -52 -24 -82.5t-58 -30.5q-5 0 -64 18t-116 18z" />
    <glyph glyph-name="currency" unicode="&#xa4;" horiz-adv-x="1198" 
d="M1108 323q32 -34 32 -72q0 -31 -21 -60q-27 -19 -54 -19q-40 0 -76 37l-135 142q-113 -80 -261 -80q-147 0 -260 80l-139 -146q-33 -34 -71 -34q-29 0 -58 21q-19 26 -19 57q0 40 35 77l138 145q-73 113 -73 258q0 149 78 268l-146 153q-32 34 -32 73q0 29 22 60
q25 19 54 19q39 0 75 -37l144 -150q110 74 252 74q144 0 254 -74l146 154q31 34 70 34q28 0 58 -22q19 -26 19 -57q0 -39 -35 -77l-142 -149q78 -117 78 -269q0 -145 -73 -258zM52 1269l30 31q-8 -8 -14 -17q-6 -4 -16 -14zM1138 1267q-5 6 -17 14q-6 9 -14 17zM593 473
q105 0 172.5 73t67.5 184q0 113 -67 185t-173 72t-172.5 -73t-66.5 -184t66.5 -184t172.5 -73zM48 207q11 -11 17 -15q4 -6 14 -16zM1135 205l-31 -32q9 9 15 18q6 4 16 14z" />
    <glyph glyph-name="yen" unicode="&#xa5;" horiz-adv-x="1277" 
d="M1220 1335q0 -49 -32 -107l-330 -533h129q40 0 69 -30.5t29 -74.5q0 -43 -29 -73.5t-69 -30.5h-199v-342q0 -74 -39.5 -116.5t-109.5 -42.5q-69 0 -109 42t-40 117v342h-188q-40 0 -68.5 30.5t-28.5 73.5q0 44 28.5 74.5t68.5 30.5h119l-323 535q-30 54 -30 104
q0 61 40 98.5t96 37.5q104 0 153 -113l295 -526l287 527q44 111 150 111q54 0 92.5 -36.5t38.5 -97.5z" />
    <glyph glyph-name="brokenbar" unicode="&#xa6;" horiz-adv-x="344" 
d="M172 1720h5h-3h-2zM174 1720q33 -1 57.5 -27t24.5 -62v-682q0 -34 -25.5 -58.5t-60.5 -25.5q-33 1 -57.5 27t-24.5 62v682q0 34 25.5 58.5t60.5 25.5zM172 864h-5h1l2 1l1 -1h1zM172 446h5h-3h-2zM174 446q33 -1 57.5 -27t24.5 -62v-682q0 -34 -25.5 -58.5t-60.5 -25.5
q-33 1 -57.5 27t-24.5 62v682q0 34 25.5 58.5t60.5 25.5zM172 -410h-5h1l2 1l1 -1h1z" />
    <glyph glyph-name="section" unicode="&#xa7;" horiz-adv-x="1155" 
d="M916 572q95 -124 134.5 -217.5t39.5 -195.5q0 -112 -40.5 -211.5t-115 -174.5t-187.5 -118.5t-250 -43.5q-101 0 -203 25t-173 66q-70 38 -70 122q0 41 25 72.5t60 31.5q21 0 77.5 -21t137 -42t160.5 -21q191 0 304 72l-574 732q-47 62 -72.5 100t-55 92.5t-42 109
t-12.5 115.5q0 214 151.5 348.5t399.5 134.5q159 0 297 -49q42 -16 67.5 -53t25.5 -78q0 -42 -20.5 -73t-53.5 -31q-13 0 -62 13t-122.5 26t-143.5 13q-129 0 -227 -45zM893 -14q65 82 65 198q0 150 -125 311l-552 717q-87 -81 -87 -199q0 -76 34 -143t111 -169z" />
    <glyph glyph-name="dieresis" unicode="&#xa8;" horiz-adv-x="1228" 
d="M155 1240q-51 0 -84.5 36.5t-33.5 89.5q0 52 33.5 88.5t84.5 36.5t84.5 -36.5t33.5 -88.5q0 -53 -33.5 -89.5t-84.5 -36.5zM508 1240q-51 0 -84.5 36.5t-33.5 89.5q0 52 33.5 88.5t84.5 36.5t84.5 -36.5t33.5 -88.5q0 -53 -33.5 -89.5t-84.5 -36.5z" />
    <glyph glyph-name="copyright" unicode="&#xa9;" horiz-adv-x="1642" 
d="M822 -21q-153 0 -291 54.5t-239.5 150.5t-161.5 235t-60 300q0 166 60.5 308.5t163.5 240t240 152.5t288 55t288 -55t240 -152.5t163.5 -240t60.5 -308.5q0 -161 -60 -300t-161.5 -235t-239.5 -150.5t-291 -54.5zM822 52q138 0 262 48.5t216 134.5t146.5 212t54.5 272
q0 201 -93 359t-247 241.5t-339 83.5q-138 0 -262 -49.5t-216.5 -137t-147 -216.5t-54.5 -281q0 -146 54.5 -272t147 -212t216.5 -134.5t262 -48.5zM836 295q-111 0 -205 51.5t-152.5 152t-58.5 231.5q0 193 123.5 310.5t297.5 117.5q103 0 195 -45q48 -23 48 -83
q0 -34 -18.5 -59t-49.5 -25q-6 0 -60 15t-95 15q-95 0 -163.5 -68t-68.5 -177q0 -114 70 -182t168 -68q53 0 107.5 22t64.5 22q27 0 46 -24.5t19 -56.5q0 -42 -32 -73q-39 -34 -101 -55t-135 -21z" />
    <glyph glyph-name="ordfeminine" unicode="&#xaa;" horiz-adv-x="1044" 
d="M427 739q-135 0 -228 104t-93 264q0 159 92 261.5t229 102.5q151 0 229 -110q19 103 112 103q56 0 86 -38.5t30 -108.5v-426q0 -71 -29.5 -108t-86.5 -37q-100 0 -114 111q-82 -118 -227 -118zM502 1294q-66 0 -108 -51t-42 -138q0 -86 43 -137.5t107 -51.5t107.5 51.5
t43.5 137.5t-43 137.5t-108 51.5zM848 608q32 0 49.5 -17t17.5 -49t-17.5 -50t-49.5 -18h-659q-31 0 -48.5 18t-17.5 50q0 66 66 66h659z" />
    <glyph glyph-name="guillemetleft" unicode="&#xab;" horiz-adv-x="1257" 
d="M552 991l66 -65q-17 17 -38 30q-10 17 -28 35zM1023 991l66 -65q-17 17 -38 30q-10 17 -28 35zM574 300q34 -44 34 -94q0 -46 -28 -86q-28 -14 -56 -14q-61 0 -114 62l-236 281q-40 47 -40 105q0 63 51 120l227 253q44 50 99 50q35 0 69 -21q21 -34 21 -73
q0 -57 -46 -112l-178 -212zM1045 300q34 -44 34 -94q0 -46 -28 -86q-28 -14 -57 -14q-60 0 -113 62l-236 281q-41 49 -41 105q0 62 52 120l227 253q44 50 99 50q34 0 69 -21q21 -34 21 -73q0 -57 -46 -112l-178 -212zM546 82q21 20 34 38q17 8 37 26zM1017 82q21 20 34 38
q17 8 37 26z" />
    <glyph glyph-name="logicalnot" unicode="&#xac;" horiz-adv-x="1191" 
d="M929 837q41 0 69 -30.5t28 -73.5v-349q0 -41 -30.5 -69.5t-73.5 -28.5h-9q-41 0 -69 30.5t-28 73.5v241h-610q-41 0 -69.5 30.5t-28.5 73.5v4q0 41 30.5 69.5t73.5 28.5h717z" />
    <glyph glyph-name="softhyphen" unicode="&#xad;" horiz-adv-x="901" 
d="M230 418q-41 0 -69.5 30.5t-28.5 73.5v8q0 41 30.5 69t73.5 28h436q41 0 69.5 -30.5t28.5 -73.5v-7q0 -41 -30.5 -69.5t-73.5 -28.5h-436z" />
    <glyph glyph-name="registered" unicode="&#xae;" horiz-adv-x="974" 
d="M486 1475q166 0 276 -110.5t110 -285.5t-109 -285t-277 -110q-167 0 -275.5 110t-108.5 285t109.5 285.5t274.5 110.5zM486 743q142 0 233.5 93t91.5 243q0 151 -91.5 243.5t-233.5 92.5q-140 0 -231 -92.5t-91 -243.5q0 -150 91 -243t231 -93zM545 1065l93 -104
q11 -12 11 -28q0 -15 -11 -25t-30 -10q-25 0 -47 28l-104 127h-18v-106q0 -49 -42 -49q-20 0 -32 13t-12 36v301q0 39 38 39h99q66 0 106 -31.5t40 -83.5q0 -85 -91 -107zM439 1222v-117h36q72 0 72 59q0 27 -19 42.5t-53 15.5h-36z" />
    <glyph glyph-name="macron" unicode="&#xaf;" horiz-adv-x="1214" 
d="M370 1245q-34 0 -57.5 25.5t-23.5 60.5t23.5 61t57.5 26h474q33 0 56.5 -25.5t23.5 -61.5q0 -35 -23 -60.5t-57 -25.5h-474z" />
    <glyph glyph-name="degree" unicode="&#xb0;" horiz-adv-x="761" 
d="M381 877q-128 0 -217 85.5t-89 214.5t89 213.5t217 84.5t217 -84.5t89 -213.5t-89.5 -214.5t-216.5 -85.5zM381 1031q59 0 97.5 41.5t38.5 104.5t-38.5 103.5t-97.5 40.5t-97.5 -40.5t-38.5 -103.5t38.5 -104.5t97.5 -41.5z" />
    <glyph glyph-name="plusminus" unicode="&#xb1;" horiz-adv-x="1191" 
d="M568 416q-41 0 -70 30.5t-29 73.5v191h-263q-41 0 -69.5 30.5t-28.5 73.5q0 44 28.5 74.5t69.5 30.5h263v189q0 43 28.5 73.5t69.5 30.5t70 -30.5t29 -73.5v-189h263q41 0 69 -30.5t28 -73.5q0 -44 -28 -74.5t-69 -30.5h-263v-191q0 -43 -28.5 -73.5t-69.5 -30.5zM175 80
q-41 0 -70 30t-29 74q0 43 28.5 73t70.5 30h843q41 0 69.5 -30t28.5 -74q0 -43 -28 -73t-70 -30h-843z" />
    <glyph glyph-name="twosuperior" unicode="&#xb2;" horiz-adv-x="772" 
d="M605 1026q31 0 51.5 -21.5t20.5 -54.5t-20.5 -54.5t-51.5 -21.5h-459q-27 0 -41.5 12t-14.5 31q0 22 22 49l225 261q62 73 92 123.5t30 102.5q0 59 -46 96.5t-114 37.5q-48 0 -98.5 -18t-55.5 -18q-21 0 -35.5 20.5t-14.5 46.5q0 59 62 84q85 39 190 39q131 0 214.5 -67
t83.5 -176q0 -74 -34 -139t-103 -148l-161 -185h258z" />
    <glyph glyph-name="threesuperior" unicode="&#xb3;" horiz-adv-x="714" 
d="M432 1335q108 -21 161 -77.5t53 -139.5q0 -117 -98.5 -189t-245.5 -72q-106 0 -198 37q-47 21 -47 72q0 30 15 51.5t41 21.5q5 0 63 -17t105 -17q73 0 121 34.5t48 89.5t-49.5 87.5t-133.5 32.5h-53q-27 0 -41.5 20t-14.5 48q0 27 14.5 46t41.5 19h43q80 0 124.5 33.5
t44.5 81.5q0 46 -43.5 75t-113.5 29q-43 0 -96 -16t-56 -16q-20 0 -32.5 18.5t-12.5 45.5q0 62 57 79q75 29 176 29q138 0 219.5 -57.5t81.5 -148.5q0 -147 -174 -200z" />
    <glyph glyph-name="acute" unicode="&#xb4;" horiz-adv-x="1228" 
d="M469 1129q-30 0 -49.5 17.5t-19.5 46.5q0 22 15 52l151 273q50 92 138 92q47 0 81 -29t34 -72q0 -47 -40 -92l-171 -204q-37 -43 -68 -63.5t-71 -20.5z" />
    <glyph glyph-name="micro" unicode="&#xb5;" horiz-adv-x="1191" 
d="M924 995q67 0 105 -39.5t38 -113.5v-716q0 -62 -36 -101.5t-94 -39.5q-57 0 -92.5 38.5t-35.5 101.5v35q-72 -179 -248 -179q-113 0 -175 63l10 -257q2 -13 2 -36q0 -69 -36 -104t-102 -35q-136 0 -136 140q0 11 2 35l12 319l-15 736q-2 73 34 113t105 40q68 0 105 -39.5
t37 -113.5v-454q0 -198 175 -198q96 0 149 67.5t53 183.5v401q0 73 37 113t106 40z" />
    <glyph glyph-name="paragraph" unicode="&#xb6;" horiz-adv-x="1269" 
d="M741 1454q48 0 76.5 -29t28.5 -80v-1217q0 -266 -126 -465q-31 -53 -85 -53q-22 0 -36.5 13.5t-14.5 38.5q0 14 12 40.5t32 67t31 72.5q47 136 47 286v378h-42q-109 0 -204.5 33.5t-166 93.5t-111.5 149.5t-41 196.5q0 144 70.5 253.5t188.5 165.5t264 56h77zM1005 1454
h60q-17 0 -31 -3q-13 3 -29 3zM1034 1451q69 -16 69 -98v-913q0 -263 -140 -392v1307q0 37 18.5 62.5t52.5 33.5z" />
    <glyph glyph-name="periodcentered" unicode="&#xb7;" horiz-adv-x="540" 
d="M271 351q-70 0 -115.5 49.5t-45.5 121.5q0 71 45.5 120.5t115.5 49.5q69 0 115 -49.5t46 -120.5q0 -72 -46 -121.5t-115 -49.5z" />
    <glyph glyph-name="cedilla" unicode="&#xb8;" horiz-adv-x="1134" 
d="M305 -78q78 -2 126.5 -39.5t48.5 -102.5q0 -79 -67.5 -126t-168.5 -47q-87 0 -148 27q-46 21 -46 66q0 21 12 36t31 15q13 0 53 -13t73 -13q38 0 63.5 15t25.5 40q0 26 -23.5 39.5t-60.5 13.5q-14 0 -33 -2.5t-22 -2.5q-25 0 -25 21q0 10 7 21l105 180h126z" />
    <glyph glyph-name="onesuperior" unicode="&#xb9;" horiz-adv-x="720" 
d="M440 1739q28 0 44 -19.5t16 -55.5v-692q0 -43 -25.5 -70.5t-65.5 -27.5q-39 0 -64.5 27.5t-25.5 70.5v551l-133 -52q-15 -6 -28 -6q-29 0 -49 23t-20 53q0 44 42 67l230 107q51 24 79 24z" />
    <glyph glyph-name="ordmasculine" unicode="&#xba;" horiz-adv-x="954" 
d="M478 780q-161 0 -267 99t-106 252q0 152 105.5 248t267.5 96q160 0 266 -96t106 -248t-106.5 -251.5t-265.5 -99.5zM478 970q66 0 108.5 44.5t42.5 114.5q0 69 -43 113t-108 44q-66 0 -108.5 -44t-42.5 -113q0 -70 42.5 -114.5t108.5 -44.5zM198 521q-32 0 -49.5 17.5
t-17.5 49.5t17.5 49.5t49.5 17.5h564q32 0 49.5 -17.5t17.5 -49.5q0 -67 -67 -67h-564z" />
    <glyph glyph-name="guillemetright" unicode="&#xbb;" horiz-adv-x="1257" 
d="M242 998q-20 -20 -31 -38q-17 -10 -34 -27zM713 998q-20 -20 -31 -38q-17 -10 -34 -27zM610 667q44 -50 44 -109q0 -61 -47 -117l-236 -281q-46 -54 -103 -54q-31 0 -64 18q-24 36 -24 78q0 54 40 107l190 250l-184 220q-39 47 -39 100q0 44 24 81q31 17 61 17
q59 0 110 -57zM1080 667q45 -51 45 -109q0 -61 -47 -117l-236 -281q-46 -54 -103 -54q-32 0 -65 18q-24 36 -24 77q0 53 41 108l190 250l-184 220q-40 48 -40 100q0 43 25 81q31 17 61 17q59 0 110 -57zM234 89l-71 64q20 -19 41 -29q13 -19 30 -35zM704 89l-70 64
q21 -20 40 -29q13 -19 30 -35z" />
    <glyph glyph-name="onequarter" unicode="&#xbc;" horiz-adv-x="1574" 
d="M1403 1447q0 -16 -13 -36l-987 -1428q-19 -28 -48 -28q-20 0 -35.5 15t-15.5 36q0 19 13 36l988 1426q22 29 47 29q21 0 36 -14.5t15 -35.5zM319 706v551l-133 -52q-15 -6 -28 -6q-29 0 -49 23t-20 52q0 45 42 68l230 107q51 24 79 24t44 -19.5t16 -55.5v-692
q0 -43 -25.5 -70.5t-65.5 -27.5q-39 0 -64.5 27.5t-25.5 70.5zM1473 268q33 0 50.5 -18t17.5 -50q0 -33 -17.5 -51t-50.5 -18h-42v-33q0 -47 -21 -72.5t-61 -25.5t-62 22t-22 62l1 47h-308q-44 0 -71 25.5t-27 65.5t25 77l377 551q36 55 89 55q34 0 57 -24t23 -65v-548h42z
M1271 632l-253 -363l251 -1z" />
    <glyph glyph-name="onehalf" unicode="&#xbd;" horiz-adv-x="1755" 
d="M1403 1447q0 -16 -13 -36l-987 -1428q-19 -28 -48 -28q-20 0 -35.5 15t-15.5 36q0 19 13 36l988 1426q22 29 47 29q21 0 36 -14.5t15 -35.5zM319 706v551l-133 -52q-15 -6 -28 -6q-29 0 -49 23t-20 52q0 45 42 68l230 107q51 24 79 24t44 -19.5t16 -55.5v-692
q0 -43 -25.5 -70.5t-65.5 -27.5q-39 0 -64.5 27.5t-25.5 70.5zM1588 152q31 0 51.5 -21.5t20.5 -54.5t-20.5 -54.5t-51.5 -21.5h-459q-27 0 -41.5 12t-14.5 31q0 22 22 49l225 261q62 73 92 123.5t30 102.5q0 59 -46 96.5t-114 37.5q-48 0 -98.5 -18t-55.5 -18
q-21 0 -35.5 20.5t-14.5 46.5q0 59 62 84q84 39 190 39q131 0 214.5 -66.5t83.5 -175.5q0 -74 -34 -139.5t-103 -148.5l-161 -185h258z" />
    <glyph glyph-name="threequarters" unicode="&#xbe;" horiz-adv-x="1542" 
d="M1371 1447q0 -14 -14 -36l-987 -1428q-19 -28 -48 -28q-20 0 -35.5 15t-15.5 36q0 19 13 36l988 1426q22 29 47 29q21 0 36.5 -14.5t15.5 -35.5zM646 851q0 -117 -98.5 -188.5t-245.5 -71.5q-106 0 -198 37q-47 21 -47 72q0 30 15 51t41 21q5 0 63 -17t105 -17
q73 0 121 34.5t48 89.5t-49.5 88t-132.5 33h-54q-27 0 -41.5 19.5t-14.5 47.5q0 27 14.5 46.5t41.5 19.5h43q80 0 124.5 33.5t44.5 81.5q0 46 -43.5 75t-113.5 29q-43 0 -96 -16t-56 -16q-20 0 -32.5 18.5t-12.5 45.5q0 62 57 79q75 29 176 29q138 0 219.5 -57.5
t81.5 -148.5q0 -69 -43 -121.5t-131 -79.5q108 -21 161 -77.5t53 -139.5zM1440 268q33 0 51 -18t18 -50t-18 -50.5t-51 -18.5h-41v-33q0 -47 -21.5 -72.5t-61.5 -25.5t-62 22t-22 62l1 47h-307q-44 0 -71.5 25.5t-27.5 65.5t25 77l377 551q37 56 90 56q33 0 56.5 -24.5
t23.5 -65.5v-548h41zM1238 632l-253 -363l251 -1z" />
    <glyph glyph-name="questiondown" unicode="&#xbf;" horiz-adv-x="999" 
d="M608 1474q72 0 119.5 -45.5t47.5 -110.5t-47.5 -109.5t-119.5 -44.5q-71 0 -119 45t-48 109q0 65 48 110.5t119 45.5zM598 1044q55 0 82 -20.5t31 -68.5l6 -160q5 -75 -60 -100q-136 -51 -209.5 -117t-73.5 -160q0 -96 70 -152.5t177 -56.5q85 0 191 36q59 22 76 22
q29 0 53 -28t24 -68q0 -48 -23.5 -85t-66.5 -53q-128 -50 -295 -50q-216 0 -353 111.5t-137 287.5q0 308 394 447l4 131q4 84 110 84z" />
    <glyph glyph-name="Agrave" unicode="&#xc0;" horiz-adv-x="1355" 
d="M462 1733q-48 37 -68 61t-20 50q0 71 118 71q113 0 173 -86l147 -167q33 -46 33 -73q0 -23 -17.5 -37.5t-45.5 -14.5q-57 0 -129 54zM1324 168q10 -27 10 -60q0 -54 -33.5 -91t-97.5 -37q-61 0 -97.5 34t-58.5 99q-40 108 -63 177h-537q-30 -89 -62 -175
q-46 -135 -163 -135q-56 0 -89 35.5t-33 89.5q0 30 10 59l433 1168q26 78 68 110.5t107 32.5q66 0 108 -32t68 -109zM525 523h383q-29 89 -92 290t-97 308q-39 -118 -105.5 -324t-88.5 -274z" />
    <glyph glyph-name="Aacute" unicode="&#xc1;" horiz-adv-x="1355" 
d="M598 1537q-28 0 -45 14.5t-17 37.5q0 27 33 73l147 167q60 86 173 86q117 0 117 -71q0 -26 -19.5 -50t-67.5 -61l-191 -142q-72 -54 -130 -54zM1324 168q10 -27 10 -60q0 -54 -33.5 -91t-97.5 -37q-61 0 -97.5 34t-58.5 99q-40 108 -63 177h-537q-30 -89 -62 -175
q-46 -135 -163 -135q-56 0 -89 35.5t-33 89.5q0 30 10 59l433 1168q26 78 68 110.5t107 32.5q66 0 108 -32t68 -109zM525 523h383q-29 89 -92 290t-97 308q-39 -118 -105.5 -324t-88.5 -274z" />
    <glyph glyph-name="Acircumflex" unicode="&#xc2;" horiz-adv-x="1355" 
d="M507 1530q-29 0 -46.5 19t-17.5 47q0 35 27 65l132 142q35 39 60.5 55t60.5 16q34 0 61.5 -18.5t60.5 -56.5l121 -131q27 -30 27 -62q0 -31 -21.5 -53t-49.5 -22q-37 0 -67 33l-134 134l-136 -133q-37 -35 -78 -35zM1324 168q10 -27 10 -60q0 -54 -33.5 -91t-97.5 -37
q-61 0 -97.5 34t-58.5 99q-40 108 -63 177h-537q-30 -89 -62 -175q-46 -135 -163 -135q-56 0 -89 35.5t-33 89.5q0 30 10 59l433 1168q26 78 68 110.5t107 32.5q66 0 108 -32t68 -109zM525 523h383q-29 89 -92 290t-97 308q-39 -118 -105.5 -324t-88.5 -274z" />
    <glyph glyph-name="Atilde" unicode="&#xc3;" horiz-adv-x="1355" 
d="M435 1556q-67 0 -67 92q0 101 59 174t154 73q43 0 86 -22t72.5 -48t64 -48t61.5 -22q57 0 71 76q6 26 24 42.5t44 16.5q32 0 53.5 -23t21.5 -64q0 -105 -57.5 -173t-148.5 -68q-43 0 -85 21t-69.5 46.5t-61.5 46.5t-63 21q-65 0 -85 -80q-18 -61 -74 -61zM1324 168
q10 -27 10 -60q0 -54 -33 -90.5t-98 -36.5q-62 0 -98 34t-58 98q-40 108 -63 177h-537q-30 -89 -62 -175q-45 -134 -163 -134q-56 0 -89 35t-33 89q0 30 10 59l433 1168q26 78 68 110.5t107 32.5q66 0 108 -32t68 -109zM525 523h383q-29 89 -92 290t-97 308
q-39 -118 -105.5 -324t-88.5 -274z" />
    <glyph glyph-name="Adieresis" unicode="&#xc4;" horiz-adv-x="1355" 
d="M545 1587q-57 0 -94 40t-37 99t37 99t94 40t94.5 -40.5t37.5 -98.5t-37.5 -98.5t-94.5 -40.5zM922 1587q-57 0 -94 40t-37 99t37 99t94 40q56 0 93.5 -40.5t37.5 -98.5t-37.5 -98.5t-93.5 -40.5zM1324 168q10 -27 10 -60q0 -54 -33.5 -91t-97.5 -37q-61 0 -97.5 34
t-58.5 99q-40 108 -63 177h-537q-30 -89 -62 -175q-46 -135 -163 -135q-56 0 -89 35.5t-33 89.5q0 30 10 59l433 1168q26 78 68 110.5t107 32.5q66 0 108 -32t68 -109zM525 523h383q-29 89 -92 290t-97 308q-39 -118 -105.5 -324t-88.5 -274z" />
    <glyph glyph-name="Aring" unicode="&#xc5;" horiz-adv-x="1355" 
d="M721 1521q-93 0 -160.5 61.5t-67.5 153.5q0 90 68 148.5t160 58.5t160 -58.5t68 -148.5q0 -92 -68 -153.5t-160 -61.5zM721 1825q-40 0 -66 -25t-26 -65q0 -41 26 -67.5t66 -26.5q39 0 66 27t27 67t-26.5 65t-66.5 25zM1324 168q10 -27 10 -60q0 -54 -33.5 -91t-97.5 -37
q-61 0 -97.5 34t-58.5 99q-40 108 -63 177h-537q-30 -89 -62 -175q-46 -135 -163 -135q-56 0 -89 35.5t-33 89.5q0 30 10 59l433 1168q26 78 68 110.5t107 32.5q66 0 108 -32t68 -109zM525 523h383q-29 89 -92 290t-97 308q-39 -118 -105.5 -324t-88.5 -274z" />
    <glyph glyph-name="AE" unicode="&#xc6;" horiz-adv-x="1773" 
d="M1681 105q1 -45 -31 -75.5t-80 -29.5h-531q-67 0 -105.5 40.5t-38.5 113.5v155h-437l-105 -209q-53 -120 -165 -120q-51 0 -85 31.5t-34 87.5q0 48 27 103l605 1125q32 59 91 93t132 34h653q44 1 74.5 -31.5t29.5 -80.5v-10q0 -45 -32 -75.5t-80 -29.5h-397v-365h339
q45 1 75 -31t30 -80v-11q1 -45 -31 -75.5t-80 -29.5h-333v-408h403q45 1 75.5 -31t30.5 -80v-11zM568 530h327v652z" />
    <glyph glyph-name="Ccedilla" unicode="&#xc7;" horiz-adv-x="1325" 
d="M1168 294q38 0 63 -30.5t25 -76.5q0 -97 -79 -143q-131 -63 -329 -63h-24l-35 -59q77 -2 125.5 -39.5t48.5 -102.5q0 -79 -67.5 -126t-168.5 -47q-86 0 -147 27q-46 21 -46 66q0 21 12 36t31 15q13 0 52.5 -13t72.5 -13q39 0 64.5 15t25.5 40q0 26 -23.5 39.5t-60.5 13.5
q-14 0 -33 -2.5t-22 -2.5q-25 0 -25 21q0 10 7 21l71 122q-133 22 -248 83t-202 153.5t-136.5 222.5t-49.5 280q0 169 62.5 310.5t168.5 235.5t245.5 146t293.5 52q197 0 311 -57q92 -49 92 -141q0 -54 -27 -82.5t-72 -28.5q-12 0 -74 17q-106 30 -203 30q-140 0 -253.5 -58
t-180 -168.5t-66.5 -253.5q0 -147 69.5 -259.5t185.5 -170t257 -57.5q110 0 223 35q42 13 66 13z" />
    <glyph glyph-name="Egrave" unicode="&#xc8;" horiz-adv-x="1081" 
d="M292 1733q-48 37 -68 61t-20 50q0 71 118 71q112 0 172 -86l147 -167q34 -48 34 -73q0 -23 -17.5 -37.5t-45.5 -14.5q-57 0 -129 54zM858 234q64 0 98 -30t34 -87t-34 -87t-98 -30h-573q-67 0 -105.5 40.5t-38.5 113.5v1156q0 67 40.5 105.5t113.5 38.5h563q64 0 98 -30
t34 -87t-34 -87t-98 -30h-429v-355h358q64 0 98 -30t34 -87t-34 -87t-98 -30h-358v-397h429z" />
    <glyph glyph-name="Eacute" unicode="&#xc9;" horiz-adv-x="1081" 
d="M428 1537q-28 0 -45.5 14.5t-17.5 37.5q0 25 34 73l147 167q60 86 172 86q118 0 118 -71q0 -26 -20 -50t-68 -61l-191 -142q-72 -54 -129 -54zM858 234q64 0 98 -30t34 -87t-34 -87t-98 -30h-573q-67 0 -105.5 40.5t-38.5 113.5v1156q0 67 40.5 105.5t113.5 38.5h563
q64 0 98 -30t34 -87t-34 -87t-98 -30h-429v-355h358q64 0 98 -30t34 -87t-34 -87t-98 -30h-358v-397h429z" />
    <glyph glyph-name="Ecircumflex" unicode="&#xca;" horiz-adv-x="1081" 
d="M337 1530q-29 0 -46.5 19t-17.5 47q0 35 27 65l132 142q35 39 60.5 55t60.5 16q34 0 61.5 -18.5t60.5 -56.5l121 -131q26 -29 26 -62q0 -31 -21.5 -53t-49.5 -22q-36 0 -66 33l-134 134l-137 -133q-37 -35 -77 -35zM858 234q64 0 98 -30t34 -87t-34 -87t-98 -30h-573
q-67 0 -105.5 40.5t-38.5 113.5v1156q0 67 40.5 105.5t113.5 38.5h563q64 0 98 -30t34 -87t-34 -87t-98 -30h-429v-355h358q64 0 98 -30t34 -87t-34 -87t-98 -30h-358v-397h429z" />
    <glyph glyph-name="Edieresis" unicode="&#xcb;" horiz-adv-x="1081" 
d="M375 1587q-57 0 -94 40t-37 99t37 99t94 40q56 0 93.5 -40.5t37.5 -98.5t-37.5 -98.5t-93.5 -40.5zM752 1587q-57 0 -94 40t-37 99t37 99t94 40q56 0 93.5 -40.5t37.5 -98.5t-37.5 -98.5t-93.5 -40.5zM858 234q64 0 98 -30t34 -87t-34 -87t-98 -30h-573
q-67 0 -105.5 40.5t-38.5 113.5v1156q0 67 40.5 105.5t113.5 38.5h563q64 0 98 -30t34 -87t-34 -87t-98 -30h-429v-355h358q64 0 98 -30t34 -87t-34 -87t-98 -30h-358v-397h429z" />
    <glyph glyph-name="Igrave" unicode="&#xcc;" horiz-adv-x="632" 
d="M376 1537q-57 0 -129 54l-191 142q-48 37 -68 61t-20 50q0 71 118 71q113 0 173 -86l147 -167q33 -46 33 -73q0 -23 -17.5 -37.5t-45.5 -14.5zM315 -15q-69 0 -108.5 45t-39.5 118v1161q0 71 39.5 115.5t109.5 44.5q69 0 108.5 -44t39.5 -116v-1161q0 -73 -39.5 -118
t-109.5 -45z" />
    <glyph glyph-name="Iacute" unicode="&#xcd;" horiz-adv-x="632" 
d="M193 1537q-28 0 -45.5 14.5t-17.5 37.5q0 27 33 73l147 167q60 86 173 86q118 0 118 -71q0 -26 -20 -50t-68 -61l-191 -142q-72 -54 -129 -54zM315 -15q-69 0 -108.5 45t-39.5 118v1161q0 72 39 116t109 44q69 0 108.5 -44t39.5 -116v-1161q0 -73 -39 -118t-109 -45z" />
    <glyph glyph-name="Icircumflex" unicode="&#xce;" horiz-adv-x="632" 
d="M101 1530q-29 0 -46.5 19t-17.5 47q0 35 27 65l132 142q35 39 60.5 55t60.5 16q34 0 61.5 -18.5t60.5 -56.5l121 -131q27 -30 27 -62q0 -31 -21.5 -53t-49.5 -22q-37 0 -67 33l-133 134l-137 -133q-37 -35 -78 -35zM315 -15q-69 0 -108.5 45t-39.5 118v1161
q0 71 39.5 115.5t109.5 44.5q69 0 108.5 -44t39.5 -116v-1161q0 -73 -39.5 -118t-109.5 -45z" />
    <glyph glyph-name="Idieresis" unicode="&#xcf;" horiz-adv-x="632" 
d="M139 1587q-57 0 -94 40t-37 99t37 99t94 40t94.5 -40.5t37.5 -98.5t-37.5 -98.5t-94.5 -40.5zM516 1587q-57 0 -94 40t-37 99t37 99t94 40q56 0 93.5 -40.5t37.5 -98.5t-37.5 -98.5t-93.5 -40.5zM315 -15q-69 0 -108.5 45t-39.5 118v1161q0 72 39 116t109 44
q69 0 108.5 -44t39.5 -116v-1161q0 -73 -39 -118t-109 -45z" />
    <glyph glyph-name="Eth" unicode="&#xd0;" horiz-adv-x="1427" 
d="M532 1454q197 0 360.5 -53t275.5 -148t174 -228.5t62 -290.5q0 -218 -106 -384t-304.5 -258t-461.5 -92h-247q-67 0 -105.5 40.5t-38.5 113.5v487h-44q-46 0 -72 30.5t-26 73.5q0 42 26 72.5t72 30.5h44v462q0 67 40.5 105.5t113.5 38.5h237zM537 243q257 0 410.5 129.5
t153.5 351.5q0 225 -153.5 356t-410.5 131h-100v-371h244q42 0 66 -28t24 -67t-24 -67t-66 -28h-244v-407h100z" />
    <glyph glyph-name="Ntilde" unicode="&#xd1;" horiz-adv-x="1531" 
d="M481 1556q-68 0 -68 92q0 101 59.5 174t154.5 73q43 0 86 -22t72 -48t63.5 -48t61.5 -22q58 0 72 76q6 26 24 42.5t44 16.5q32 0 53.5 -23t21.5 -64q0 -105 -58 -173t-149 -68q-43 0 -85 21t-69.5 46.5t-61.5 46.5t-63 21q-65 0 -85 -80q-18 -61 -73 -61zM1251 1469h13
h-7h-6zM1257 1469q62 -2 97.5 -41t35.5 -108v-1199q0 -61 -33 -99t-90 -38q-54 0 -93 30t-97 104l-660 842v-836q0 -63 -37.5 -100.5t-104.5 -38.5q-62 2 -98 41.5t-36 107.5v1191q0 66 32.5 105.5t94.5 39.5q51 0 85.5 -25t77.5 -81l683 -878v844q0 63 38 100.5t105 38.5z
M281 -15h-13h7h6z" />
    <glyph glyph-name="Ograve" unicode="&#xd2;" horiz-adv-x="1658" 
d="M880 1539q-58 0 -130 54l-190 142q-48 37 -68 61t-20 50q0 71 117 71q112 0 173 -87l147 -167q33 -46 33 -73q0 -23 -17 -37t-45 -14zM819 -18q-204 0 -375.5 94.5t-274 266t-102.5 383.5q0 161 60.5 301.5t162.5 238.5t240 154t289 56t288 -56t239.5 -154t163 -239
t60.5 -301q0 -159 -60 -298.5t-162 -236.5t-239.5 -153t-289.5 -56zM819 257q131 0 239 61.5t170 169t62 238.5q0 133 -62 242t-170 171.5t-239 62.5q-200 0 -336 -137t-136 -339q0 -199 136 -334t336 -135z" />
    <glyph glyph-name="Oacute" unicode="&#xd3;" horiz-adv-x="1658" 
d="M696 1539q-28 0 -45.5 14t-17.5 37q0 27 33 73l147 168q60 86 173 86q118 0 118 -71q0 -26 -20 -50t-68 -61l-191 -142q-72 -54 -129 -54zM819 -18q-204 0 -375.5 94.5t-274 266t-102.5 383.5q0 161 60.5 301.5t162.5 238.5t240 154t289 56t288 -56t239.5 -154t163 -239
t60.5 -301q0 -159 -60 -298.5t-162 -236.5t-239.5 -153t-289.5 -56zM819 257q131 0 239 61.5t170 169t62 238.5q0 133 -62 242t-170 171.5t-239 62.5q-200 0 -335.5 -137t-135.5 -339q0 -199 135.5 -334t335.5 -135z" />
    <glyph glyph-name="Ocircumflex" unicode="&#xd4;" horiz-adv-x="1658" 
d="M605 1531q-28 0 -46 19.5t-18 47.5q0 34 27 64l132 142q35 39 60.5 55t60.5 16q34 0 61.5 -18t60.5 -56l121 -131q26 -29 26 -63q0 -31 -21.5 -52.5t-49.5 -21.5q-36 0 -66 33l-134 133l-137 -132q-38 -36 -77 -36zM819 -18q-204 0 -375.5 94.5t-274 266t-102.5 383.5
q0 161 60.5 301.5t162.5 238.5t240 154t289 56t288 -56t239.5 -154t163 -239t60.5 -301q0 -159 -60 -298.5t-162 -236.5t-239.5 -153t-289.5 -56zM819 257q131 0 239 61.5t170 169t62 238.5q0 133 -62 242t-170 171.5t-239 62.5q-200 0 -335.5 -137t-135.5 -339
q0 -199 135.5 -334t335.5 -135z" />
    <glyph glyph-name="Otilde" unicode="&#xd5;" horiz-adv-x="1658" 
d="M970 1563q-43 0 -85 21.5t-69.5 46.5t-61.5 46.5t-63 21.5q-64 0 -85 -81q-18 -61 -73 -61q-68 0 -68 93q0 101 59.5 173.5t154.5 72.5q43 0 86 -21.5t72 -48t63.5 -48t61.5 -21.5q58 0 72 76q14 58 67 58q32 0 54 -23t22 -64q0 -105 -58 -173t-149 -68zM819 -18
q-204 0 -375.5 94.5t-274 266t-102.5 383.5q0 161 60.5 301.5t162.5 238.5t240 154t289 56t288 -56t239.5 -154t163 -239t60.5 -301q0 -159 -60 -298.5t-162 -236.5t-239.5 -153t-289.5 -56zM819 257q131 0 239 61.5t170 169t62 238.5q0 133 -62 242t-170 171.5t-239 62.5
q-200 0 -335.5 -137t-135.5 -339q0 -199 135.5 -334t335.5 -135z" />
    <glyph glyph-name="Odieresis" unicode="&#xd6;" horiz-adv-x="1658" 
d="M643 1588q-57 0 -94 40.5t-37 99.5q0 58 37 98t94 40q56 0 93.5 -40t37.5 -98t-37.5 -99t-93.5 -41zM1020 1588q-57 0 -94.5 40.5t-37.5 99.5q0 58 37.5 98t94.5 40q56 0 93.5 -40t37.5 -98t-37.5 -99t-93.5 -41zM819 -18q-204 0 -375.5 94.5t-274 266t-102.5 383.5
q0 161 60.5 301.5t162.5 238.5t240 154t289 56t288 -56t239.5 -154t163 -239t60.5 -301q0 -159 -60 -298.5t-162 -236.5t-239.5 -153t-289.5 -56zM819 257q131 0 239 61.5t170 169t62 238.5q0 133 -62 242t-170 171.5t-239 62.5q-200 0 -336 -137t-136 -339q0 -199 136 -334
t336 -135z" />
    <glyph glyph-name="multiply" unicode="&#xd7;" horiz-adv-x="1191" 
d="M739 618l299 -300q28 -28 28 -69q0 -43 -31 -76l-1 -2q-27 -28 -68 -28q-42 0 -73 31l-298 300l-303 -304q-26 -26 -65 -26q-43 0 -75 33l-1 2q-26 29 -26 67q0 46 32 78l294 294l-297 299q-29 29 -29 70q0 43 30 75l1 2q26 29 68 29q41 0 72 -31l299 -300l303 303
q27 27 65 27q45 0 76 -33l1 -2q26 -27 26 -67q0 -45 -32 -77z" />
    <glyph glyph-name="Oslash" unicode="&#xd8;" horiz-adv-x="1658" 
d="M1270 1330q139 -102 219.5 -259.5t80.5 -345.5q0 -211 -102.5 -382.5t-274 -266t-374.5 -94.5q-195 0 -362 88l-67 -103q-32 -46 -63 -46q-21 0 -35 14.5t-14 34.5t12 37l77 119q-139 101 -219.5 256.5t-80.5 343.5q0 161 60.5 301.5t162.5 238.5t240 154t289 56
q196 0 364 -91l67 104q16 24 29 33t33 9t33.5 -15t13.5 -34q0 -16 -10 -29zM347 725q0 -111 45.5 -205.5t126.5 -159.5l513 792q-100 50 -213 50q-200 0 -336 -137.5t-136 -339.5zM819 257q200 0 335.5 134.5t135.5 333.5q0 112 -45.5 208.5t-125.5 162.5l-511 -792
q99 -47 211 -47z" />
    <glyph glyph-name="Ugrave" unicode="&#xd9;" horiz-adv-x="1417" 
d="M765 1537q-57 0 -129 54l-191 142q-48 37 -68 61t-20 50q0 71 118 71q113 0 173 -86l147 -167q33 -46 33 -73q0 -23 -17.5 -37.5t-45.5 -14.5zM697 -18q-123 0 -225.5 36.5t-178.5 107.5t-118 184.5t-42 259.5l1 740q0 71 42 115t106 44q63 0 105.5 -43.5t42.5 -115.5
v-762q0 -155 75.5 -234t204.5 -79t203.5 79t74.5 234v762q0 71 42 115t106 44q63 0 105.5 -43.5t42.5 -115.5v-740q0 -146 -44 -259.5t-123 -184.5t-185.5 -107.5t-234.5 -36.5z" />
    <glyph glyph-name="Uacute" unicode="&#xda;" horiz-adv-x="1417" 
d="M581 1537q-28 0 -45 14.5t-17 37.5q0 27 33 73l147 167q60 86 173 86q117 0 117 -71q0 -26 -20 -50t-68 -61l-191 -142q-72 -54 -129 -54zM697 -18q-123 0 -225.5 36.5t-178.5 107.5t-118 184.5t-42 259.5l1 740q0 71 42 115t106 44q63 0 105.5 -43.5t42.5 -115.5v-762
q0 -155 75.5 -234t204.5 -79t203.5 79t74.5 234v762q0 71 42 115t106 44q63 0 105.5 -43.5t42.5 -115.5v-740q0 -146 -44 -259.5t-123 -184.5t-185.5 -107.5t-234.5 -36.5z" />
    <glyph glyph-name="Ucircumflex" unicode="&#xdb;" horiz-adv-x="1417" 
d="M490 1530q-29 0 -46.5 19t-17.5 47q0 35 27 65l132 142q35 39 60.5 55t60.5 16q34 0 61.5 -18.5t60.5 -56.5l121 -131q26 -29 26 -62q0 -31 -21.5 -53t-49.5 -22q-36 0 -66 33l-134 134l-137 -133q-37 -35 -77 -35zM697 -18q-123 0 -225.5 36.5t-178.5 107.5t-118 184.5
t-42 259.5l1 740q0 71 42 115t106 44q63 0 105.5 -43.5t42.5 -115.5v-762q0 -155 75.5 -234t204.5 -79t203.5 79t74.5 234v762q0 71 42 115t106 44q63 0 105.5 -43.5t42.5 -115.5v-740q0 -146 -44 -259.5t-123 -184.5t-185.5 -107.5t-234.5 -36.5z" />
    <glyph glyph-name="Udieresis" unicode="&#xdc;" horiz-adv-x="1417" 
d="M528 1587q-57 0 -94 40t-37 99t37 99t94 40q56 0 93.5 -40.5t37.5 -98.5t-37.5 -98.5t-93.5 -40.5zM905 1587q-57 0 -94 40t-37 99t37 99t94 40q56 0 93.5 -40.5t37.5 -98.5t-37.5 -98.5t-93.5 -40.5zM697 -18q-123 0 -225.5 36.5t-178.5 107.5t-118 184.5t-42 259.5
l1 740q0 71 42 115t106 44q63 0 105.5 -43.5t42.5 -115.5v-762q0 -155 75.5 -234t204.5 -79t203.5 79t74.5 234v762q0 71 42 115t106 44q63 0 105.5 -43.5t42.5 -115.5v-740q0 -146 -44 -259.5t-123 -184.5t-185.5 -107.5t-234.5 -36.5z" />
    <glyph glyph-name="Yacute" unicode="&#xdd;" horiz-adv-x="1277" 
d="M517 1541q-28 0 -45 14t-17 37q0 27 33 73l147 167q60 86 173 86q117 0 117 -70q0 -26 -20 -50t-68 -61l-190 -142q-72 -54 -130 -54zM639 -15q-69 0 -109 42t-40 117v437l-392 649q-30 54 -30 104q0 61 40 98.5t96 37.5q104 0 153 -113l295 -526l287 527q44 111 150 111
q54 0 92.5 -36.5t38.5 -97.5q0 -49 -32 -107l-400 -647v-437q0 -74 -39.5 -116.5t-109.5 -42.5z" />
    <glyph glyph-name="Thorn" unicode="&#xde;" horiz-adv-x="1200" 
d="M552 1210q279 0 441.5 -126.5t162.5 -349.5q0 -220 -162.5 -350t-443.5 -130h-121v-104q0 -76 -38 -120.5t-106 -44.5q-67 0 -105.5 44t-38.5 121v1155q0 76 38 120t106 44q67 0 105.5 -43.5t38.5 -120.5v-95h123zM548 486q144 0 224 67t80 181q0 112 -80 178t-222 66
h-121v-492h119z" />
    <glyph glyph-name="germandbls" unicode="&#xdf;" horiz-adv-x="1253" 
d="M274 -20q-66 0 -105 41.5t-39 113.5v981q0 209 123 321.5t325 112.5q188 0 311 -91.5t123 -238.5q0 -117 -108 -252q-57 -70 -75 -100t-18 -63q0 -41 26.5 -67.5t103.5 -76.5q19 -12 29 -19q100 -70 151 -142.5t51 -179.5q0 -157 -102.5 -247.5t-289.5 -90.5
q-64 0 -128.5 13t-99.5 28q-39 17 -59 49t-20 69q0 43 23.5 73.5t60.5 30.5q2 0 68 -16q74 -20 122 -20q71 0 110.5 32t39.5 87q0 25 -9.5 48t-20 38.5t-37.5 38.5t-42 33.5t-52 36.5q-108 73 -150.5 122t-42.5 130q0 20 4.5 40.5t10 35t19.5 36.5t22 34t28.5 39.5
t29.5 40.5q32 44 45 63t26 52.5t13 66.5q0 56 -44 91.5t-108 35.5q-80 0 -126 -49t-46 -150v-976q0 -72 -38.5 -113.5t-104.5 -41.5z" />
    <glyph glyph-name="agrave" unicode="&#xe0;" horiz-adv-x="1294" 
d="M504 1213l-171 204q-40 45 -40 92q0 43 34.5 72t81.5 29q87 0 137 -92l151 -273q15 -30 15 -52q0 -29 -19.5 -46.5t-49.5 -17.5q-40 0 -71 20.5t-68 63.5zM1018 993q67 -1 104 -40.5t37 -111.5v-695q0 -73 -36.5 -114t-104.5 -42q-68 1 -104.5 41t-36.5 115v17
q-44 -91 -131 -136t-193 -45q-94 0 -181.5 37.5t-155 103.5t-108 163t-40.5 208q0 148 67.5 265.5t178 180.5t240.5 63q108 0 193.5 -41.5t129.5 -130.5v10q0 71 36.5 111t104.5 41zM623 235q110 0 183.5 71t73.5 187t-73 186.5t-185 70.5q-110 0 -185 -70.5t-75 -184.5
q0 -116 76 -188t185 -72z" />
    <glyph glyph-name="aacute" unicode="&#xe1;" horiz-adv-x="1294" 
d="M580 1129q-30 0 -49.5 17.5t-19.5 46.5q0 22 15 52l151 273q50 92 138 92q47 0 81 -29t34 -72q0 -47 -40 -92l-171 -204q-37 -43 -68 -63.5t-71 -20.5zM1018 993q67 -1 104 -40.5t37 -111.5v-695q0 -73 -36.5 -114t-104.5 -42q-68 1 -104.5 41t-36.5 115v17
q-44 -91 -131 -136t-193 -45q-94 0 -181.5 37.5t-155 103.5t-108 163t-40.5 208t39.5 207.5t106 162t155 103t185.5 37.5q107 0 193 -42t130 -131v10q0 71 36.5 111t104.5 41zM623 235q110 0 183.5 71t73.5 187t-73 186.5t-185 70.5q-110 0 -185 -70.5t-75 -184.5
q0 -116 76 -188t185 -72z" />
    <glyph glyph-name="acircumflex" unicode="&#xe2;" horiz-adv-x="1294" 
d="M426 1133q-36 0 -55 14t-19 39q0 23 15 48l141 216q28 46 58 63.5t78 17.5q50 0 80.5 -18.5t56.5 -62.5l139 -214q15 -26 15 -45q0 -27 -23.5 -42t-52.5 -15q-57 0 -92 48l-123 171l-121 -170q-36 -50 -97 -50zM1018 993q67 -1 104 -40.5t37 -111.5v-695
q0 -73 -36.5 -114t-104.5 -42q-68 1 -104.5 41t-36.5 115v17q-44 -91 -131 -136t-193 -45q-94 0 -181.5 37.5t-155 103.5t-108 163t-40.5 208q0 148 67.5 265.5t178 180.5t240.5 63q107 0 192.5 -41.5t129.5 -130.5v10q0 71 37 111t105 41zM623 235q110 0 183.5 71t73.5 187
t-73 186t-185 70q-110 0 -185 -70t-75 -184q0 -116 76 -188t185 -72z" />
    <glyph glyph-name="atilde" unicode="&#xe3;" horiz-adv-x="1294" 
d="M347 1147q-67 0 -67 92q0 101 59 174t154 73q43 0 86 -22t72.5 -48t64 -48t61.5 -22q57 0 71 76q6 26 24 42.5t44 16.5q32 0 54 -23t22 -64q0 -105 -58 -173t-149 -68q-43 0 -85 21t-69.5 46.5t-61.5 46.5t-63 21q-65 0 -85 -80q-18 -61 -74 -61zM1018 993
q67 -1 104 -40.5t37 -111.5v-695q0 -73 -36.5 -114t-104.5 -42q-68 1 -104.5 41t-36.5 115v17q-44 -91 -131 -136t-193 -45q-94 0 -181.5 37.5t-155 103.5t-108 163t-40.5 208t39.5 207.5t106 162t155 103t185.5 37.5q107 0 193 -42t130 -131v10q0 71 36.5 111t104.5 41z
M623 235q110 0 183.5 71t73.5 187t-73 186.5t-185 70.5q-110 0 -185 -70.5t-75 -184.5q0 -116 76 -188t185 -72z" />
    <glyph glyph-name="adieresis" unicode="&#xe4;" horiz-adv-x="1294" 
d="M467 1240q-51 0 -84.5 36.5t-33.5 89.5q0 52 33.5 88.5t84.5 36.5t84.5 -36.5t33.5 -88.5q0 -53 -33.5 -89.5t-84.5 -36.5zM820 1240q-51 0 -84.5 36.5t-33.5 89.5q0 52 33.5 88.5t84.5 36.5t84.5 -36.5t33.5 -88.5q0 -53 -33.5 -89.5t-84.5 -36.5zM1018 993
q67 -1 104 -40.5t37 -111.5v-695q0 -73 -36.5 -114t-104.5 -42q-68 1 -104.5 41t-36.5 115v17q-44 -91 -131 -136t-193 -45q-94 0 -181.5 37.5t-155 103.5t-108 163t-40.5 208t39.5 207.5t106 162t155 103t185.5 37.5q107 0 193 -42t130 -131v10q0 71 36.5 111t104.5 41z
M623 235q110 0 183.5 71t73.5 187t-73 186.5t-185 70.5q-110 0 -185 -70.5t-75 -184.5q0 -116 76 -188t185 -72z" />
    <glyph glyph-name="aring" unicode="&#xe5;" horiz-adv-x="1294" 
d="M643 1113q-89 0 -154.5 61.5t-65.5 153.5q0 91 65 149.5t155 58.5q89 0 155 -59t66 -149q0 -92 -66 -153.5t-155 -61.5zM643 1425q-42 0 -69.5 -27.5t-27.5 -70.5q0 -44 27.5 -72.5t69.5 -28.5q41 0 69 29t28 72t-27.5 70.5t-69.5 27.5zM1018 993q67 -1 104 -40.5
t37 -111.5v-695q0 -73 -36.5 -114t-104.5 -42q-68 1 -104.5 41t-36.5 115v17q-44 -91 -131 -136t-193 -45q-94 0 -181.5 37.5t-155 103.5t-108 163t-40.5 208q0 148 67.5 265.5t178 180.5t240.5 63q108 0 193.5 -41.5t129.5 -130.5v10q0 71 36.5 111t104.5 41zM623 235
q110 0 183.5 71t73.5 187t-73 186t-185 70q-110 0 -185 -70t-75 -184q0 -116 76 -188t185 -72z" />
    <glyph glyph-name="ae" unicode="&#xe6;" horiz-adv-x="1605" 
d="M1448 279q37 0 58.5 -24.5t21.5 -60.5q0 -74 -89 -133q-51 -35 -126 -58t-154 -23q-122 0 -221 47t-164 134q-64 -88 -161 -133.5t-210 -45.5q-148 0 -241 77t-93 212q0 142 114.5 224t314.5 91q55 2 167 2q-16 213 -244 213q-67 0 -145.5 -30t-108.5 -30q-31 0 -54.5 24
t-23.5 63q0 42 21.5 70t68.5 50q48 24 120.5 40t141.5 16q251 0 355 -141q127 141 328 141q184 0 296 -112.5t112 -315.5q0 -127 -125 -127h-484q16 -134 84.5 -198.5t169.5 -64.5q74 0 162 46q13 7 32 17.5t29 15.5t23.5 9.5t24.5 4.5zM1121 809q-77 0 -128 -50t-67 -144
h366q-7 90 -51.5 142t-119.5 52zM458 168q83 0 145.5 63.5t62.5 196.5v18q-54 -1 -137 -7q-91 -6 -148 -42.5t-57 -104.5q0 -59 38 -91.5t96 -32.5z" />
    <glyph glyph-name="ccedilla" unicode="&#xe7;" horiz-adv-x="968" 
d="M821 284q37 0 62.5 -29.5t25.5 -74.5q0 -79 -100 -138q-78 -46 -186 -58l-37 -62q77 -2 125.5 -39.5t48.5 -102.5q0 -79 -67.5 -126t-168.5 -47q-86 0 -147 27q-46 21 -46 66q0 21 12 36t31 15q13 0 52.5 -13t72.5 -13q39 0 64.5 15t25.5 40q0 26 -24 39.5t-61 13.5
q-14 0 -32.5 -2.5t-21.5 -2.5q-25 0 -25 21q0 10 7 21l66 114q-87 10 -164 49t-136.5 102.5t-94 155.5t-34.5 201q0 116 43 213.5t115 161.5t166 99.5t198 35.5q114 0 199 -41q50 -24 78.5 -59t28.5 -76q0 -45 -26.5 -77t-62.5 -32q-18 0 -81 23.5t-114 23.5
q-103 0 -173 -74.5t-70 -197.5t71 -195.5t175 -72.5q53 0 118.5 30t86.5 30z" />
    <glyph glyph-name="egrave" unicode="&#xe8;" horiz-adv-x="1120" 
d="M420 1230l-171 205q-40 45 -40 91q0 43 34 72t81 29q88 0 138 -92l151 -273q15 -30 15 -52q0 -29 -19.5 -46.5t-49.5 -17.5q-40 0 -71 20.5t-68 63.5zM927 285q38 0 60.5 -25.5t22.5 -63.5q0 -72 -60 -118q-53 -41 -140.5 -68t-192.5 -27q-154 0 -279 63.5t-197.5 182
t-72.5 269.5q0 144 69.5 261t185.5 180.5t254 63.5q87 0 167 -29.5t142 -83t99 -135.5t37 -179q0 -74 -31 -108.5t-99 -34.5h-542q23 -100 98.5 -155.5t190.5 -55.5q83 0 185 38q77 25 103 25zM574 785q-79 0 -137.5 -46.5t-81.5 -127.5h427q-11 74 -67 124t-141 50z" />
    <glyph glyph-name="eacute" unicode="&#xe9;" horiz-adv-x="1120" 
d="M496 1146q-30 0 -49.5 17.5t-19.5 46.5q0 22 15 52l151 273q50 92 138 92q47 0 81 -29t34 -72q0 -46 -40 -91l-171 -205q-37 -43 -68 -63.5t-71 -20.5zM927 285q38 0 60.5 -25.5t22.5 -63.5q0 -72 -60 -118q-53 -41 -140.5 -68t-192.5 -27q-154 0 -279 63.5t-197.5 182
t-72.5 269.5q0 218 149 362t360 144q117 0 217.5 -50t164 -149.5t63.5 -228.5q0 -74 -31 -108.5t-99 -34.5h-542q23 -100 98.5 -155.5t190.5 -55.5q83 0 185 38q77 25 103 25zM574 785q-79 0 -137.5 -46t-81.5 -127h427q-11 74 -67 123.5t-141 49.5z" />
    <glyph glyph-name="ecircumflex" unicode="&#xea;" horiz-adv-x="1120" 
d="M342 1151q-74 0 -74 52q0 24 15 49l141 215q28 46 58 63.5t78 17.5q50 0 80.5 -18.5t56.5 -62.5l139 -214q15 -25 15 -45q0 -27 -23.5 -42t-52.5 -15q-57 0 -92 48l-123 171l-122 -170q-35 -49 -96 -49zM927 285q38 0 60.5 -25.5t22.5 -63.5q0 -72 -60 -118
q-53 -41 -140.5 -68t-192.5 -27q-154 0 -279 63.5t-197.5 182t-72.5 269.5q0 218 149 362t360 144q117 0 217.5 -50t164 -149.5t63.5 -228.5q0 -74 -31 -108.5t-99 -34.5h-542q23 -100 98.5 -155.5t190.5 -55.5q83 0 185 38q77 25 103 25zM574 785q-79 0 -137.5 -46
t-81.5 -127h427q-11 74 -67 123.5t-141 49.5z" />
    <glyph glyph-name="edieresis" unicode="&#xeb;" horiz-adv-x="1120" 
d="M383 1258q-51 0 -84.5 36t-33.5 89q0 52 33.5 88.5t84.5 36.5t84.5 -36.5t33.5 -88.5q0 -53 -33.5 -89t-84.5 -36zM736 1258q-51 0 -84.5 36t-33.5 89q0 52 33.5 88.5t84.5 36.5t84.5 -36.5t33.5 -88.5q0 -53 -33.5 -89t-84.5 -36zM927 285q38 0 60.5 -25.5t22.5 -63.5
q0 -72 -60 -118q-53 -41 -140.5 -68t-192.5 -27q-154 0 -279 63.5t-197.5 182t-72.5 269.5q0 218 149 362t360 144q117 0 217.5 -50t164 -149.5t63.5 -228.5q0 -74 -31 -108.5t-99 -34.5h-542q23 -100 98.5 -155.5t190.5 -55.5q83 0 185 38q77 25 103 25zM574 785
q-79 0 -137.5 -46.5t-81.5 -127.5h427q-11 74 -67 124t-141 50z" />
    <glyph glyph-name="igrave" unicode="&#xec;" horiz-adv-x="600" 
d="M311 1129q-38 0 -71 23t-73 72l-109 200q-38 46 -38 91q0 46 37.5 75.5t88.5 29.5q47 0 86 -27t57 -82l80 -247q12 -36 12 -64q0 -33 -18 -52t-52 -19zM301 -16q-67 0 -105 40t-38 113v709q0 72 37.5 112.5t105.5 40.5q67 0 105 -40t38 -113v-709q0 -72 -37.5 -112.5
t-105.5 -40.5z" />
    <glyph glyph-name="iacute" unicode="&#xed;" horiz-adv-x="600" 
d="M290 1129q-69 0 -69 71q0 28 12 64l80 247q18 55 56.5 82t85.5 27q51 0 88.5 -29.5t37.5 -75.5q0 -45 -38 -91l-109 -200q-40 -49 -73 -72t-71 -23zM301 -16q-67 0 -105 40t-38 113v709q0 72 37.5 112.5t105.5 40.5q67 0 105 -40t38 -113v-709q0 -72 -37.5 -112.5
t-105.5 -40.5z" />
    <glyph glyph-name="icircumflex" unicode="&#xee;" horiz-adv-x="600" 
d="M578 1236q15 -26 15 -45q0 -27 -23.5 -42t-52.5 -15q-57 0 -92 48l-123 171l-122 -170q-36 -50 -96 -50q-36 0 -55.5 14.5t-19.5 38.5q0 22 16 48l141 216q28 46 58 63.5t78 17.5q50 0 80.5 -18.5t56.5 -62.5zM301 999q67 0 105 -40t38 -113v-709q0 -72 -37.5 -112.5
t-105.5 -40.5q-67 0 -105 40t-38 113v709q0 72 37.5 112.5t105.5 40.5z" />
    <glyph glyph-name="idieresis" unicode="&#xef;" horiz-adv-x="600" 
d="M125 1240q-51 0 -84.5 36.5t-33.5 89.5q0 52 33.5 88.5t84.5 36.5t84.5 -36.5t33.5 -88.5q0 -53 -33.5 -89.5t-84.5 -36.5zM478 1240q-51 0 -84.5 36.5t-33.5 89.5q0 52 33.5 88.5t84.5 36.5t84.5 -36.5t33.5 -88.5q0 -53 -33.5 -89.5t-84.5 -36.5zM301 -16
q-67 0 -105 40t-38 113v709q0 72 37.5 112.5t105.5 40.5q67 0 105 -40t38 -113v-709q0 -72 -37.5 -112.5t-105.5 -40.5z" />
    <glyph glyph-name="eth" unicode="&#xf0;" horiz-adv-x="1206" 
d="M767 1281q370 -295 370 -708q0 -136 -42.5 -248.5t-116 -187.5t-174 -116t-215.5 -41q-136 0 -254 61t-192 176.5t-74 261.5q0 112 38.5 209.5t103.5 164.5t151.5 105t180.5 38q104 0 191 -44t115 -99l5 2q-95 174 -299 307l-165 -94q-20 -11 -45 -11q-19 0 -32 14.5
t-13 33.5q0 17 10 27t33 22l116 66q-49 27 -85 44q-47 22 -66 47.5t-19 64.5t30.5 67.5t75.5 28.5q110 0 232 -91q36 -24 53 -36l156 89q19 9 39 9q21 0 35 -14.5t14 -33.5q0 -27 -43 -49zM598 220q117 0 193 76t76 192t-76 192t-193 76q-116 0 -193 -75t-77 -191t78 -193
t192 -77z" />
    <glyph glyph-name="ntilde" unicode="&#xf1;" horiz-adv-x="1214" 
d="M321 1147q-68 0 -68 92q0 101 59 174t154 73q43 0 86 -22t72.5 -48t64 -48t61.5 -22q57 0 71 76q6 26 24 42.5t44 16.5q32 0 54 -23t22 -64q0 -105 -58 -173t-149 -68q-43 0 -85 21t-69.5 46.5t-61.5 46.5t-63 21q-65 0 -85 -80q-18 -61 -73 -61zM724 1004
q176 0 276.5 -102t100.5 -300v-461q0 -73 -37 -113.5t-106 -40.5q-68 0 -105.5 40t-37.5 114v439q0 98 -50 146t-138 48q-95 0 -150 -58t-55 -161h-1v-414q0 -73 -37 -113.5t-106 -40.5q-67 0 -105.5 40t-38.5 114v699q0 76 35.5 118t101.5 42q64 0 100 -41t37 -117
q101 162 316 162z" />
    <glyph glyph-name="ograve" unicode="&#xf2;" horiz-adv-x="1191" 
d="M597 1129q-40 0 -71 20.5t-68 63.5l-170 204q-41 46 -41 92q0 43 34.5 72t81.5 29q88 0 138 -92l150 -273q15 -30 15 -52q0 -29 -19.5 -46.5t-49.5 -17.5zM597 -20q-145 0 -266.5 69t-192 188t-70.5 259q0 212 154.5 359.5t374.5 147.5t374.5 -147.5t154.5 -359.5
q0 -143 -67.5 -261t-189 -186.5t-272.5 -68.5zM598 234q108 0 182 71t74 187t-73.5 186.5t-183.5 70.5q-109 0 -183.5 -70.5t-74.5 -184.5q0 -116 76 -188t183 -72z" />
    <glyph glyph-name="oacute" unicode="&#xf3;" horiz-adv-x="1191" 
d="M534 1129q-30 0 -49.5 17.5t-19.5 46.5q0 22 15 52l151 273q50 92 138 92q47 0 81 -29t34 -72q0 -47 -40 -92l-171 -204q-37 -43 -68 -63.5t-71 -20.5zM597 -20q-145 0 -266.5 69t-192 188t-70.5 259q0 212 154.5 359.5t374.5 147.5t374.5 -147.5t154.5 -359.5
q0 -143 -67.5 -261t-189 -186.5t-272.5 -68.5zM598 234q108 0 182 71t74 187t-73.5 186.5t-183.5 70.5q-109 0 -183.5 -70.5t-74.5 -184.5q0 -116 76 -188t183 -72z" />
    <glyph glyph-name="ocircumflex" unicode="&#xf4;" horiz-adv-x="1191" 
d="M380 1133q-36 0 -55 14t-19 39q0 23 15 48l141 216q28 46 58 63.5t78 17.5q50 0 80.5 -18.5t56.5 -62.5l139 -214q15 -26 15 -45q0 -27 -23.5 -42t-52.5 -15q-57 0 -92 48l-123 171l-121 -170q-36 -50 -97 -50zM597 1003q144 0 265.5 -67t192 -183.5t70.5 -256.5
q0 -143 -67 -261t-188.5 -186.5t-272.5 -68.5q-145 0 -266.5 69t-192 188t-70.5 259q0 212 154.5 359.5t374.5 147.5zM598 234q108 0 182 71t74 187t-73.5 186.5t-183.5 70.5q-109 0 -183.5 -70.5t-74.5 -184.5q0 -116 76 -188t183 -72z" />
    <glyph glyph-name="otilde" unicode="&#xf5;" horiz-adv-x="1191" 
d="M739 1153q-43 0 -85 21t-69.5 46.5t-61.5 46.5t-63 21q-65 0 -85 -80q-18 -61 -74 -61q-67 0 -67 92q0 101 59 174t154 73q43 0 86 -22t72.5 -48t64 -48t61.5 -22q57 0 71 76q6 26 24 42.5t44 16.5q32 0 54 -23t22 -64q0 -105 -58 -173t-149 -68zM597 -20
q-145 0 -266.5 69t-192 188t-70.5 259q0 212 154.5 359.5t374.5 147.5t374.5 -147.5t154.5 -359.5q0 -143 -67.5 -261t-189 -186.5t-272.5 -68.5zM598 234q108 0 182 71t74 187t-73.5 186.5t-183.5 70.5q-109 0 -183.5 -70.5t-74.5 -184.5q0 -116 76 -188t183 -72z" />
    <glyph glyph-name="odieresis" unicode="&#xf6;" horiz-adv-x="1191" 
d="M421 1240q-51 0 -84.5 36.5t-33.5 89.5q0 52 33.5 88.5t84.5 36.5t84.5 -36.5t33.5 -88.5q0 -53 -33.5 -89.5t-84.5 -36.5zM774 1240q-51 0 -84.5 36.5t-33.5 89.5q0 52 33.5 88.5t84.5 36.5t84.5 -36.5t33.5 -88.5q0 -53 -33.5 -89.5t-84.5 -36.5zM597 -20
q-145 0 -266.5 69t-192 188t-70.5 259q0 212 154.5 359.5t374.5 147.5t374.5 -147.5t154.5 -359.5q0 -143 -67.5 -261t-189 -186.5t-272.5 -68.5zM598 234q108 0 182 71t74 187t-73.5 186.5t-183.5 70.5q-109 0 -183.5 -70.5t-74.5 -184.5q0 -116 76 -188t183 -72z" />
    <glyph glyph-name="divide" unicode="&#xf7;" horiz-adv-x="1191" 
d="M603 923q-63 0 -104.5 44.5t-41.5 109.5q0 64 41.5 108.5t104.5 44.5t104.5 -44.5t41.5 -108.5t-42 -109t-104 -45zM175 521q-41 0 -70 30t-29 74q0 43 28.5 73t70.5 30h843q41 0 69.5 -30t28.5 -74q0 -43 -28 -73t-70 -30h-843zM603 36q-63 0 -104.5 44.5t-41.5 109.5
q0 64 41.5 108.5t104.5 44.5t104.5 -44.5t41.5 -108.5t-42 -109t-104 -45z" />
    <glyph glyph-name="oslash" unicode="&#xf8;" horiz-adv-x="1189" 
d="M905 910q102 -69 161 -177.5t59 -236.5q0 -143 -67 -261t-188.5 -186.5t-272.5 -68.5q-113 0 -213 43l-75 -126q-18 -30 -50 -30q-23 0 -38 16t-15 38q0 17 11 36l72 119q-102 72 -161.5 182t-59.5 238q0 212 154.5 359.5t374.5 147.5q113 0 212 -41l70 119q19 34 54 34
q23 0 37 -15.5t14 -37.5q0 -20 -10 -37zM598 234q108 0 182 71t74 187t-73.5 186.5t-183.5 70.5q-109 0 -183.5 -70.5t-74.5 -184.5q0 -116 76 -188t183 -72z" />
    <glyph glyph-name="ugrave" unicode="&#xf9;" horiz-adv-x="1196" 
d="M463 1213l-171 204q-40 45 -40 92q0 43 34 72t81 29q88 0 138 -92l151 -273q15 -30 15 -52q0 -29 -19.5 -46.5t-49.5 -17.5q-40 0 -71 20.5t-68 63.5zM932 1002q66 0 104.5 -41t38.5 -113v-723q0 -67 -39.5 -105t-93.5 -38t-93.5 38t-39.5 105v22q-102 -166 -306 -166
q-169 0 -271 104t-102 299v464q0 72 38.5 113t104.5 41t104.5 -41t38.5 -113v-448q0 -100 49 -148.5t135 -48.5q87 0 138 58t51 149v438q0 72 38.5 113t104.5 41z" />
    <glyph glyph-name="uacute" unicode="&#xfa;" horiz-adv-x="1196" 
d="M539 1129q-30 0 -49.5 17.5t-19.5 46.5q0 22 15 52l151 273q50 92 138 92q47 0 81 -29t34 -72q0 -47 -40 -92l-171 -204q-37 -43 -68 -63.5t-71 -20.5zM932 1002q66 0 104.5 -41t38.5 -113v-723q0 -67 -39.5 -105t-93.5 -38t-93.5 38t-39.5 105v22q-102 -166 -306 -166
q-169 0 -271 104t-102 299v464q0 72 38.5 113t104.5 41t104.5 -41t38.5 -113v-448q0 -100 49 -148.5t135 -48.5q87 0 138 58t51 149v438q0 72 38.5 113t104.5 41z" />
    <glyph glyph-name="ucircumflex" unicode="&#xfb;" horiz-adv-x="1196" 
d="M385 1133q-36 0 -55.5 14.5t-19.5 38.5q0 22 16 48l141 216q28 46 58 63.5t78 17.5q50 0 80.5 -18.5t56.5 -62.5l139 -214q15 -26 15 -45q0 -27 -23.5 -42t-52.5 -15q-57 0 -92 48l-123 171l-122 -170q-36 -50 -96 -50zM932 1002q66 0 104.5 -41t38.5 -113v-723
q0 -67 -39.5 -105t-93.5 -38t-93.5 38t-39.5 105v22q-102 -166 -306 -166q-169 0 -271 104t-102 299v464q0 72 38.5 113t104.5 41t104.5 -41t38.5 -113v-448q0 -100 49 -148.5t135 -48.5q87 0 138 58t51 149v438q0 72 38.5 113t104.5 41z" />
    <glyph glyph-name="udieresis" unicode="&#xfc;" horiz-adv-x="1196" 
d="M426 1240q-51 0 -84.5 36.5t-33.5 89.5q0 52 33.5 88.5t84.5 36.5t84.5 -36.5t33.5 -88.5q0 -53 -33.5 -89.5t-84.5 -36.5zM779 1240q-51 0 -84.5 36.5t-33.5 89.5q0 52 33.5 88.5t84.5 36.5t84.5 -36.5t33.5 -88.5q0 -53 -33.5 -89.5t-84.5 -36.5zM932 1002
q66 0 104.5 -41t38.5 -113v-723q0 -67 -39.5 -105t-93.5 -38t-93.5 38t-39.5 105v22q-102 -166 -306 -166q-169 0 -271 104t-102 299v464q0 72 38.5 113t104.5 41t104.5 -41t38.5 -113v-448q0 -100 49 -148.5t135 -48.5q87 0 138 58t51 149v438q0 72 38.5 113t104.5 41z" />
    <glyph glyph-name="yacute" unicode="&#xfd;" horiz-adv-x="1105" 
d="M477 1129q-30 0 -49 17.5t-19 46.5q0 24 14 52l151 273q50 92 138 92q47 0 81.5 -29t34.5 -72q0 -46 -41 -92l-171 -204q-37 -43 -68 -63.5t-71 -20.5zM926 998q52 0 85.5 -31t33.5 -82q0 -32 -17 -74l-377 -848q-80 -186 -178 -271t-231 -85q-100 0 -162 35
q-60 33 -60 111q0 44 27.5 72.5t67.5 24.5q64 -16 113 -16q65 0 117.5 49.5t84.5 140.5l-360 787q-14 33 -14 62q0 53 37.5 89t94.5 36q51 0 83 -26t52 -86l229 -564l239 581q34 95 135 95z" />
    <glyph glyph-name="thorn" unicode="&#xfe;" horiz-adv-x="1249" 
d="M719 1002q203 0 332.5 -142.5t129.5 -369.5q0 -226 -132.5 -368t-331.5 -142q-196 0 -301 136l-1 -350q0 -76 -39.5 -116.5t-108.5 -40.5q-67 0 -102.5 39.5t-35.5 117.5v1631q0 72 36.5 112t102.5 41q59 -1 93 -41.5t34 -112.5v-563q107 169 324 169zM637 215
q103 0 172.5 75t69.5 199q0 127 -69.5 201.5t-173.5 74.5t-172.5 -75.5t-68.5 -199.5q0 -125 68.5 -200t173.5 -75z" />
    <glyph glyph-name="ydieresis" unicode="&#xff;" horiz-adv-x="1105" 
d="M365 1240q-51 0 -84.5 36.5t-33.5 89.5q0 52 33.5 88.5t84.5 36.5t84.5 -36.5t33.5 -88.5q0 -53 -33.5 -89.5t-84.5 -36.5zM718 1240q-51 0 -85 36.5t-34 89.5q0 52 34 88.5t85 36.5t84.5 -36.5t33.5 -88.5q0 -53 -33.5 -89.5t-84.5 -36.5zM926 998q52 0 85.5 -31
t33.5 -82q0 -32 -17 -74l-377 -848q-80 -186 -178 -271t-231 -85q-100 0 -162 35q-60 33 -60 111q0 44 27.5 72.5t67.5 24.5q68 -17 113 -17q65 0 117.5 50t84.5 141l-360 787q-14 33 -14 62q0 53 37.5 89t94.5 36q51 0 83 -26.5t52 -86.5l229 -563l239 581q34 95 135 95z
" />
    <glyph glyph-name="abreve" unicode="&#x103;" horiz-adv-x="1294" 
d="M643 1174q-129 0 -214.5 80t-89.5 201q0 33 18 51.5t44 18.5q21 0 37.5 -11t24 -21t21.5 -32q16 -49 56.5 -80t101.5 -31q60 0 101.5 31t57.5 80q14 22 21.5 32t24 21t37.5 11q26 0 44.5 -18.5t18.5 -51.5q-4 -121 -89.5 -201t-214.5 -80zM1018 993q67 -1 104 -40.5
t37 -111.5v-695q0 -73 -36.5 -114t-104.5 -42q-68 1 -104.5 41t-36.5 115v17q-44 -91 -131 -136t-193 -45q-94 0 -181.5 37.5t-155 103.5t-108 163t-40.5 208t39.5 207.5t106 162t155 103t185.5 37.5q107 0 193 -42t130 -131v10q0 71 36.5 111t104.5 41zM623 235
q110 0 183.5 71t73.5 187t-73 186.5t-185 70.5q-110 0 -185 -70.5t-75 -184.5q0 -116 76 -188t185 -72z" />
    <glyph glyph-name="eogonek" unicode="&#x119;" horiz-adv-x="1120" 
d="M927 285q38 0 60.5 -25.5t22.5 -63.5q0 -72 -60 -118q-93 -72 -245 -90q-171 -94 -171 -185q0 -61 70 -61q14 0 39.5 4.5t35.5 4.5q25 0 41.5 -15.5t17.5 -40.5q0 -55 -50 -75q-46 -19 -131 -19q-94 0 -159 49t-65 131q0 124 160 214q-190 37 -307.5 172t-117.5 331
q0 218 149 362t360 144q117 0 217.5 -50t164 -149.5t63.5 -228.5q0 -74 -31 -108.5t-99 -34.5h-542q23 -100 98.5 -155.5t190.5 -55.5q83 0 185 38q77 25 103 25zM574 785q-79 0 -137.5 -46t-81.5 -127h427q-11 74 -67 123.5t-141 49.5z" />
    <glyph glyph-name="idotless" unicode="&#x131;" horiz-adv-x="600" 
d="M301 -16q-67 0 -105 40t-38 113v709q0 72 37.5 112.5t105.5 40.5q67 0 105 -40t38 -113v-709q0 -72 -37.5 -112.5t-105.5 -40.5z" />
    <glyph glyph-name="Lslash" unicode="&#x141;" horiz-adv-x="1007" 
d="M845 256q51 1 84.5 -34.5t33.5 -91.5q0 -59 -33 -95t-85 -35h-560q-67 0 -105.5 41t-38.5 114v467l-27 -10q-15 -6 -30 -6q-31 0 -50.5 24.5t-19.5 56.5q0 52 48 70l79 30v528q0 72 39 113t110 41q72 0 110.5 -40.5t38.5 -113.5v-414l76 29q17 6 30 6q31 0 51.5 -24
t20.5 -55q0 -52 -51 -72l-127 -48v-481h406z" />
    <glyph glyph-name="lslash" unicode="&#x142;" horiz-adv-x="704" 
d="M571 231q37 0 60 -25.5t23 -71.5q0 -68 -60 -107q-75 -48 -194 -48q-126 0 -198 71t-72 206v423l-36 -14q-15 -6 -30 -6q-31 0 -50.5 24.5t-19.5 56.5q0 52 48 70l88 33v550q0 72 37.5 112t105.5 40t105.5 -40t37.5 -112v-440l79 30q17 6 30 6q31 0 51.5 -24t20.5 -55
q0 -52 -51 -72l-130 -50v-481q0 -91 83 -91q22 0 46 7.5t26 7.5z" />
    <glyph glyph-name="OE" unicode="&#x152;" horiz-adv-x="1847" 
d="M1601 1235h-388v-377h328q56 0 93 -29.5t47 -83.5q-11 -50 -49.5 -78t-100.5 -28h-318v-420h399q56 0 93 -29.5t47 -83.5q-11 -50 -50 -78t-101 -28h-684q-247 0 -439.5 90.5t-300 258t-107.5 385.5q0 215 108.5 379t300.5 252.5t438 88.5h695q56 0 93 -29t47 -83
q-11 -50 -50 -78.5t-101 -28.5zM1756 1379v-79q0 25 -4 42q4 16 4 37zM924 244v967q-259 -1 -408.5 -131.5t-149.5 -345.5q0 -221 149.5 -355t408.5 -135zM1685 783v-80q0 25 -4 42q4 16 4 38zM1756 144v-80q0 25 -4 42q4 16 4 38z" />
    <glyph glyph-name="oe" unicode="&#x153;" horiz-adv-x="1849" 
d="M1778 535q0 -58 -14.5 -75.5t-58.5 -17.5h-577q17 -105 90 -168t207 -63q55 0 106 18.5t86.5 37.5t51.5 19q41 0 64.5 -28t23.5 -70q0 -77 -63 -124q-48 -36 -128 -60t-168 -24q-154 0 -273.5 69t-174.5 198q-48 -125 -158.5 -196t-248.5 -71q-131 0 -239.5 65.5
t-171.5 184t-63 266.5q0 222 136 364.5t335 142.5q139 0 247.5 -72.5t160.5 -199.5q51 125 158.5 199t241.5 74q85 0 160.5 -29t136.5 -85t97 -147.5t36 -207.5zM1345 787q-79 0 -133.5 -48.5t-76.5 -129.5h407q-11 81 -64.5 129.5t-132.5 48.5zM561 232q106 0 171 75
t65 187q0 110 -65 183.5t-171 73.5q-108 0 -173.5 -73t-65.5 -184q0 -113 66 -187.5t173 -74.5z" />
    <glyph glyph-name="Scaron" unicode="&#x160;" horiz-adv-x="1103" 
d="M426 1617l-130 144q-20 24 -20 46q0 23 20.5 38t49.5 15q51 0 94 -44l118 -113l111 111q41 46 94 46q27 0 46 -13.5t19 -35.5q0 -24 -22 -50l-127 -143q-58 -69 -127 -69q-40 0 -68 15.5t-58 52.5zM615 871q70 -30 115.5 -52.5t99.5 -53.5t87.5 -62.5t63.5 -72t43.5 -90
t13.5 -108.5q0 -197 -145 -325t-372 -128q-111 0 -219.5 23.5t-166.5 58.5q-48 28 -66.5 60t-18.5 72q0 44 28.5 77t70.5 33q24 0 69 -19.5t117 -39t160 -19.5q107 0 178.5 49.5t71.5 132.5q0 75 -61 123.5t-182 97.5q-52 22 -84.5 36.5t-81.5 40t-80.5 49t-67.5 58
t-56.5 70.5t-34.5 84.5t-14 102.5q0 124 66 217t178 141t254 48q180 0 302 -50q106 -44 106 -133q0 -47 -28.5 -80t-69.5 -33q-16 0 -114.5 26.5t-181.5 26.5q-92 0 -155 -43t-63 -111q0 -30 14 -57t30.5 -44.5t53.5 -38.5t56.5 -30.5t67.5 -29.5q11 -5 16 -7z" />
    <glyph glyph-name="scaron" unicode="&#x161;" horiz-adv-x="944" 
d="M353 1198l-156 230q-18 30 -18 57q0 31 20.5 51t50.5 20q46 0 80 -45l145 -187l134 180q36 51 81 51q28 0 48 -20.5t20 -50.5q0 -29 -18 -57l-155 -227q-25 -41 -52 -59.5t-65 -18.5t-64 18t-51 58zM574 604q59 -19 98 -34.5t82 -40.5t67.5 -54t41 -72t16.5 -97
q0 -146 -115 -235t-312 -89q-136 0 -231 29q-140 44 -140 148q0 43 22 72t60 29q17 0 68.5 -18t94.5 -25q70 -12 131 -12q62 0 98.5 22.5t36.5 59.5q0 41 -46 64q-27 13 -143 47q-73 21 -125.5 44.5t-96.5 58t-66 84t-22 113.5q0 141 116.5 223t291.5 82q122 0 240 -37
q105 -35 105 -118q0 -47 -24.5 -74.5t-58.5 -27.5q-12 0 -108 23q-72 17 -129 17q-59 0 -95.5 -21t-36.5 -56q0 -13 4 -23t17 -19.5t23.5 -15.5t37 -15.5t43 -14.5t55.5 -17z" />
    <glyph glyph-name="Ydieresis" unicode="&#x178;" horiz-adv-x="1277" 
d="M464 1590q-57 0 -94 40.5t-37 99.5q0 58 37 98t94 40q56 0 93.5 -40t37.5 -98t-37.5 -99t-93.5 -41zM841 1590q-57 0 -94 40.5t-37 99.5q0 58 37 98t94 40q56 0 93.5 -40t37.5 -98t-37.5 -99t-93.5 -41zM639 -15q-69 0 -109 42t-40 117v437l-392 649q-30 54 -30 104
q0 61 40 98.5t96 37.5q104 0 153 -113l295 -526l287 527q44 111 150 111q54 0 92.5 -36.5t38.5 -97.5q0 -49 -32 -107l-400 -647v-437q0 -74 -39.5 -116.5t-109.5 -42.5z" />
    <glyph glyph-name="Zcaron" unicode="&#x17d;" horiz-adv-x="1228" 
d="M491 1617l-130 144q-20 24 -20 46q0 23 20.5 38t49.5 15q51 0 94 -44l118 -113l111 111q41 46 94 46q27 0 46 -13.5t19 -35.5q0 -24 -22 -50l-127 -143q-58 -69 -127 -69q-40 0 -68 15.5t-58 52.5zM988 227q57 0 94 -30.5t47 -86.5q-10 -52 -49 -81t-102 -29h-811
q-37 0 -61.5 26.5t-24.5 65.5q0 46 36 108l653 1027h-511q-57 0 -94 30.5t-47 86.5q10 52 49.5 81t102.5 29h730q53 0 81 -26.5t28 -68.5q0 -33 -11 -59.5t-42 -77.5l-636 -995h568zM115 1310v71q0 -19 3 -37q-3 -16 -3 -34zM1132 144v-71q0 19 -3 37q3 16 3 34z" />
    <glyph glyph-name="zcaron" unicode="&#x17e;" horiz-adv-x="989" 
d="M367 1198l-156 230q-17 28 -17 57q0 31 20 51t50 20q47 0 81 -45l145 -187l133 180q36 51 82 51q28 0 48 -20.5t20 -50.5q0 -29 -18 -57l-155 -227q-25 -41 -52 -59.5t-65 -18.5t-64.5 18t-51.5 58zM821 238q43 0 73 -32t30 -78v-25q0 -43 -32 -73t-78 -30h-662
q-34 0 -53.5 17.5t-19.5 45.5q0 27 27 68l431 614h-333q-43 0 -73 32t-30 78v25q0 43 32 73t78 30h622q36 0 56.5 -18t20.5 -47q0 -26 -25 -67l-437 -613h373z" />
    <glyph glyph-name="florin" unicode="&#x192;" horiz-adv-x="1054" 
d="M979 1521q39 -13 57.5 -43.5t18.5 -68.5q0 -43 -19.5 -76.5t-46.5 -33.5q-7 0 -46 10t-71 10q-68 0 -105.5 -39.5t-51.5 -123.5l-29 -173h182q40 0 68 -29t28 -71q0 -43 -28 -72.5t-68 -29.5h-216l-132 -795q-29 -197 -117 -288t-253 -91q-116 0 -181 33q-32 14 -50.5 49
t-18.5 73q0 42 22 73t55 31q7 0 40 -6t66 -6q67 0 103.5 38t50.5 121l128 768h-122q-40 0 -67.5 29t-27.5 72t27.5 72t67.5 29h155l32 188q27 192 116.5 286t253.5 94q100 0 179 -30z" />
    <glyph glyph-name="circumflex" unicode="&#x2c6;" horiz-adv-x="1228" 
d="M607 1236q15 -26 15 -45q0 -27 -23.5 -42t-52.5 -15q-57 0 -92 48l-123 171l-121 -170q-36 -50 -97 -50q-36 0 -55 14t-19 39q0 22 16 48l140 216q28 46 58 63.5t78 17.5q50 0 81 -18.5t57 -62.5z" />
    <glyph glyph-name="caron" unicode="&#x2c7;" horiz-adv-x="1228" 
d="M551 1555q28 0 48 -20.5t20 -50.5q0 -29 -18 -57l-155 -227q-25 -41 -52 -59.5t-65 -18.5t-64.5 18t-51.5 58l-155 230q-18 30 -18 57q0 31 20.5 51t50.5 20q46 0 80 -45l145 -187l134 180q36 51 81 51z" />
    <glyph glyph-name="breve" unicode="&#x2d8;" horiz-adv-x="1228" 
d="M331 1173q-129 0 -214.5 80.5t-89.5 201.5q0 33 18 51.5t44 18.5q16 0 28 -4.5t23 -16.5t16 -19t16 -25q16 -49 56.5 -79.5t101.5 -30.5q60 0 101.5 30.5t57.5 79.5q14 22 21.5 32.5t25 21.5t37.5 11q26 0 44 -18.5t18 -51.5q-4 -121 -89.5 -201.5t-214.5 -80.5z" />
    <glyph glyph-name="dotaccent" unicode="&#x2d9;" horiz-adv-x="1198" 
d="M329 1224q-63 0 -104 44.5t-41 109.5t41 109t104 44q62 0 103 -44.5t41 -108.5q0 -65 -41 -109.5t-103 -44.5z" />
    <glyph glyph-name="ring" unicode="&#x2da;" horiz-adv-x="1228" 
d="M45 1113q-89 0 -154.5 61.5t-65.5 153.5q0 91 65 149.5t155 58.5q89 0 155 -59t66 -149q0 -92 -66 -153.5t-155 -61.5zM45 1226q41 0 69 29t28 72t-27.5 70.5t-69.5 27.5t-69 -27.5t-27 -70.5q0 -44 27 -72.5t69 -28.5z" />
    <glyph glyph-name="ogonek" unicode="&#x2db;" horiz-adv-x="1118" 
d="M46 -382q-94 0 -159.5 49t-65.5 131q0 92 86.5 162.5t227.5 115.5l80 -59q-193 -100 -193 -197q0 -30 19.5 -45.5t51.5 -15.5q14 0 39.5 4.5t35.5 4.5q25 0 41 -15.5t17 -40.5q0 -56 -49 -75q-46 -19 -131 -19z" />
    <glyph glyph-name="tilde" unicode="&#x2dc;" horiz-adv-x="1124" 
d="M191 1153q-43 0 -85 21t-69.5 46.5t-61.5 46.5t-63 21q-65 0 -85 -80q-18 -61 -74 -61q-67 0 -67 92q0 101 59 174t154 73q43 0 86 -22t72.5 -48t64 -48t61.5 -22q57 0 71 76q6 26 24 42.5t44 16.5q32 0 54 -23t22 -64q0 -105 -58 -173t-149 -68z" />
    <glyph glyph-name="hungarumlaut" unicode="&#x2dd;" horiz-adv-x="1134" 
d="M279 1089q-34 0 -56.5 21.5t-22.5 61.5q0 19 6 37l118 309q12 50 42.5 75t69.5 25q48 0 85 -33t37 -80q0 -28 -16 -60l-152 -281q-17 -35 -47.5 -55t-63.5 -20zM631 1091q-32 0 -54.5 20t-22.5 55q0 15 7 33l118 319q12 51 43.5 75.5t72.5 24.5q47 0 83 -30.5t36 -77.5
q0 -30 -18 -64l-169 -292q-16 -30 -42.5 -46.5t-53.5 -16.5z" />
    <glyph glyph-name="gravecomb" unicode="&#x300;" 
d="M-1 1129q-40 0 -71 20.5t-68 63.5l-171 204q-40 45 -40 92q0 43 34 72t81 29q88 0 138 -92l151 -273q15 -30 15 -52q0 -29 -19.5 -46.5t-49.5 -17.5z" />
    <glyph glyph-name="acutecomb" unicode="&#x301;" 
d="M-62 1129q-30 0 -49.5 17.5t-19.5 46.5q0 24 14 52l151 273q50 92 138 92q47 0 81.5 -29t34.5 -72q0 -46 -41 -92l-170 -204q-37 -43 -68 -63.5t-71 -20.5z" />
    <glyph glyph-name="circumflexcomb" unicode="&#x302;" 
d="M276 1236q15 -26 15 -45q0 -27 -23.5 -42t-52.5 -15q-57 0 -92 48l-123 171l-121 -170q-36 -50 -97 -50q-36 0 -55 14t-19 39q0 22 16 48l140 216q28 46 58 63.5t78 17.5q50 0 81 -18.5t57 -62.5z" />
    <glyph glyph-name="tildecomb" unicode="&#x303;" 
d="M142 1153q-43 0 -85 21t-69.5 46.5t-61.5 46.5t-63 21q-65 0 -85 -80q-18 -61 -74 -61q-67 0 -67 92q0 101 59 174t154 73q43 0 86 -22t72.5 -48t64 -48t61.5 -22q57 0 71 76q6 26 24 42.5t44 16.5q32 0 54 -23t22 -64q0 -105 -58 -173t-149 -68z" />
    <glyph glyph-name="macroncomb" unicode="&#x304;" 
d="M190 1417q47 0 79 -23t43 -65q-24 -84 -130 -84h-372q-47 0 -79 23t-43 65q24 84 130 84h372zM-318 1290v90q0 -26 6 -47q-6 -19 -6 -43zM317 1372v-90q0 30 -5 47q5 16 5 43z" />
    <glyph glyph-name="brevecomb" unicode="&#x306;" 
d="M0 1173q-129 0 -214.5 80.5t-89.5 201.5q0 33 18 51.5t44 18.5q16 0 28 -4.5t23 -16.5t16 -19t16 -25q16 -49 56.5 -79.5t101.5 -30.5q60 0 101.5 30.5t57.5 79.5q14 22 21.5 32.5t25 21.5t37.5 11q26 0 44 -18.5t18 -51.5q-4 -121 -89.5 -201.5t-214.5 -80.5z" />
    <glyph glyph-name="dotaccentcomb" unicode="&#x307;" 
d="M5 1224q-63 0 -104 44.5t-41 109.5t41 109t104 44q62 0 103.5 -44.5t41.5 -108.5t-41.5 -109t-103.5 -45z" />
    <glyph glyph-name="dieresiscomb" unicode="&#x308;" 
d="M-176 1240q-51 0 -84.5 36.5t-33.5 89.5q0 52 33.5 88.5t84.5 36.5t84.5 -36.5t33.5 -88.5q0 -53 -33.5 -89.5t-84.5 -36.5zM177 1240q-51 0 -84.5 36.5t-33.5 89.5q0 52 33.5 88.5t84.5 36.5t84.5 -36.5t33.5 -88.5q0 -53 -33.5 -89.5t-84.5 -36.5z" />
    <glyph glyph-name="ringcomb" unicode="&#x30a;" 
d="M-1 1113q-89 0 -154.5 61.5t-65.5 153.5q0 91 65 149.5t155 58.5q89 0 155 -59t66 -149q0 -92 -66 -153.5t-155 -61.5zM-1 1226q41 0 69 29t28 72t-27.5 70.5t-69.5 27.5t-69.5 -27.5t-27.5 -70.5q0 -44 27.5 -72.5t69.5 -28.5z" />
    <glyph glyph-name="hungarumlautcomb" unicode="&#x30b;" 
d="M-208 1089q-34 0 -56.5 21.5t-22.5 61.5q0 19 6 37l118 309q12 50 42.5 75t69.5 25q48 0 85 -33t37 -80q0 -28 -16 -60l-152 -281q-17 -35 -47.5 -55t-63.5 -20zM144 1091q-32 0 -54.5 20t-22.5 55q0 17 6 33l119 319q12 51 43.5 75.5t72.5 24.5q47 0 83 -30.5t36 -77.5
q0 -30 -18 -64l-169 -292q-16 -30 -42.5 -46.5t-53.5 -16.5z" />
    <glyph glyph-name="caroncomb" unicode="&#x30c;" 
d="M220 1555q28 0 48 -20.5t20 -50.5q0 -29 -18 -57l-155 -227q-25 -41 -52 -59.5t-65 -18.5t-64.5 18t-51.5 58l-155 230q-18 30 -18 57q0 31 20.5 51t50.5 20q46 0 80 -45l145 -187l134 180q36 51 81 51z" />
    <glyph glyph-name="cedillacomb" unicode="&#x327;" 
d="M22 -78q77 -2 125.5 -39.5t48.5 -102.5q0 -79 -67.5 -126t-168.5 -47q-86 0 -147 27q-47 21 -47 66q0 21 12 36t31 15q13 0 53 -13t73 -13q39 0 64.5 15t25.5 40q0 26 -24 39.5t-61 13.5q-14 0 -32.5 -2.5t-21.5 -2.5q-25 0 -25 21q0 11 6 21l105 180h126z" />
    <glyph glyph-name="ogonekcomb" unicode="&#x328;" 
d="M8 -382q-94 0 -159.5 49t-65.5 131q0 92 86 162.5t227 115.5l81 -59q-193 -100 -193 -197q0 -61 70 -61q14 0 40 4.5t36 4.5q25 0 41 -15.5t17 -40.5q2 -55 -49 -75q-46 -19 -131 -19z" />
    <glyph glyph-name="slashshortcomb" unicode="&#x337;" 
d="M-327 -91q-21 0 -34.5 12.5t-13.5 32.5q0 17 12 38l627 1078q24 41 60 41q19 0 32.5 -14.5t13.5 -35.5q0 -15 -9 -32l-623 -1075q-26 -45 -65 -45z" />
    <glyph glyph-name="slashlongcomb" unicode="&#x338;" 
d="M-492 -88q-21 0 -35 14.5t-14 34.5t12 37l960 1482q16 24 29 32.5t33 8.5t33.5 -14.5t13.5 -33.5q0 -17 -10 -30l-959 -1486q-31 -45 -63 -45z" />
    <glyph glyph-name="Delta" unicode="&#x394;" horiz-adv-x="1288" 
d="M192 0q-71 0 -110.5 35t-39.5 98q0 41 10 68l455 1158q21 60 53 88t83 28t82.5 -28t52.5 -88l456 -1158q11 -29 11 -68q0 -63 -39.5 -98t-111.5 -35h-902zM298 220h689l-344 890z" />
    <glyph glyph-name="Omega" unicode="&#x3a9;" horiz-adv-x="1515" 
d="M184 0q-49 0 -79.5 35t-30.5 84q0 48 30 83.5t80 35.5h252v60q-159 67 -259 207.5t-100 328.5q0 184 91.5 332t245.5 229t340 81q185 0 339 -81t245.5 -229t91.5 -332q0 -188 -101 -328.5t-260 -207.5v-60h253q49 0 79 -35t30 -84t-29.5 -84t-79.5 -35h-393
q-45 -1 -76 32.5t-30 82.5v237q0 26 15.5 49t39.5 35q120 48 189.5 147t69.5 231q0 173 -107.5 285.5t-276.5 112.5t-277 -112.5t-108 -285.5q0 -132 69.5 -231t189.5 -147q23 -12 39 -35t16 -49v-237q1 -49 -29.5 -82.5t-76.5 -32.5h-392z" />
    <glyph glyph-name="mu" unicode="&#x3bc;" horiz-adv-x="1191" 
d="M924 995q67 0 105 -39.5t38 -113.5v-716q0 -62 -36 -101.5t-94 -39.5q-57 0 -92.5 38.5t-35.5 101.5v35q-72 -179 -248 -179q-113 0 -175 63l10 -257q2 -13 2 -36q0 -69 -36 -104t-102 -35q-136 0 -136 140q0 11 2 35l12 319l-15 736q-2 73 34 113t105 40q68 0 105 -39.5
t37 -113.5v-454q0 -198 175 -198q96 0 149 67.5t53 183.5v401q0 73 37 113t106 40z" />
    <glyph glyph-name="pi" unicode="&#x3c0;" horiz-adv-x="1249" 
d="M1110 203q35 0 56 -21t21 -56q0 -71 -58 -111q-59 -36 -153 -36q-119 0 -189 70t-70 209v516h-253v-649q0 -64 -34.5 -101.5t-94.5 -38.5q-59 1 -93.5 38t-34.5 102v649h-98q-50 0 -77.5 27t-27.5 78q0 50 26.5 77t77.5 27h958q50 0 77 -26.5t27 -77.5q0 -50 -26.5 -77
t-77.5 -27h-108v-474q0 -105 89 -105q18 0 38.5 3.5t24.5 3.5z" />
    <glyph glyph-name="enspace" unicode="&#x2002;" horiz-adv-x="1024" 
 />
    <glyph glyph-name="emspace" unicode="&#x2003;" horiz-adv-x="2048" 
 />
    <glyph glyph-name="threeperemspace" unicode="&#x2004;" horiz-adv-x="974" 
 />
    <glyph glyph-name="fourperemspace" unicode="&#x2005;" horiz-adv-x="512" 
 />
    <glyph glyph-name="thinspace" unicode="&#x2009;" horiz-adv-x="210" 
 />
    <glyph glyph-name="hairspace" unicode="&#x200a;" horiz-adv-x="133" 
 />
    <glyph glyph-name="endash" unicode="&#x2013;" horiz-adv-x="1175" 
d="M230 418q-41 0 -69.5 30.5t-28.5 73.5v7q0 41 30.5 69.5t73.5 28.5h710q41 0 69 -30.5t28 -73.5v-7q0 -41 -30.5 -69.5t-73.5 -28.5h-709z" />
    <glyph glyph-name="emdash" unicode="&#x2014;" horiz-adv-x="1906" 
d="M230 418q-41 0 -69.5 30.5t-28.5 73.5v4q0 41 30.5 69.5t73.5 28.5h1441q41 0 69 -30.5t28 -73.5v-4q0 -41 -30 -69.5t-73 -28.5h-1441z" />
    <glyph glyph-name="quoteleft" unicode="&#x2018;" horiz-adv-x="550" 
d="M315 1139q55 -12 90.5 -56t35.5 -103q0 -75 -48 -125t-113 -50q-71 0 -120.5 49.5t-49.5 124.5q0 12 1.5 25t3.5 22.5t6.5 24.5t7 22.5t10.5 25t10 23t12 26t12 25.5l119 253q12 25 26 37t37 12q20 0 32 -13t12 -33q0 -9 -3 -20z" />
    <glyph glyph-name="quoteright" unicode="&#x2019;" horiz-adv-x="550" 
d="M272 1474q71 0 120 -49.5t49 -125.5q0 -10 -1 -20t-2 -18t-4.5 -20t-4.5 -18t-6.5 -19.5t-7 -18t-8.5 -20.5t-8.5 -18.5t-10 -21t-9.5 -20.5l-120 -253q-23 -48 -63 -48q-20 0 -31.5 12.5t-11.5 32.5q0 13 2 20l81 271q-55 12 -90.5 56t-35.5 103q0 75 48.5 125t113.5 50
z" />
    <glyph glyph-name="quotesinglbase" unicode="&#x201a;" horiz-adv-x="550" 
d="M272 324q71 0 120 -49.5t49 -125.5q0 -10 -1 -20t-2 -18t-4.5 -20t-4.5 -18t-6.5 -19.5t-7 -18t-8.5 -20.5t-8.5 -18.5t-10 -21t-9.5 -20.5l-120 -253q-23 -48 -63 -48q-20 0 -31.5 13t-11.5 33q0 12 2 19l81 271q-55 12 -90.5 56t-35.5 103q0 75 48.5 125t113.5 50z" />
    <glyph glyph-name="quotedblleft" unicode="&#x201c;" horiz-adv-x="987" 
d="M315 1118q55 -12 90.5 -56t35.5 -103q0 -75 -48 -125t-113 -50q-71 0 -120.5 50t-49.5 125q0 12 1.5 25t3.5 22.5t6.5 24.5t7 22.5t10.5 25t10 23t12 26t12 25.5l119 253q23 48 63 48q20 0 32 -12.5t12 -32.5q0 -9 -3 -20zM752 1118q55 -12 90.5 -56t35.5 -103
q0 -75 -48.5 -125t-113.5 -50q-71 0 -120.5 50t-49.5 125q0 12 1.5 25t3.5 22.5t6.5 24.5t7 22.5t10.5 25t10 23t12 26t12 25.5l120 253q12 25 25.5 36.5t36.5 11.5q20 0 32 -12.5t12 -32.5q0 -9 -3 -20z" />
    <glyph glyph-name="quotedblright" unicode="&#x201d;" horiz-adv-x="987" 
d="M272 1474q71 0 120 -49.5t49 -125.5q0 -10 -1 -20t-2 -18t-4.5 -20t-4.5 -18t-6.5 -19.5t-7 -18t-8.5 -20.5t-8.5 -18.5t-10 -21t-9.5 -20.5l-120 -253q-23 -48 -63 -48q-20 0 -31.5 12.5t-11.5 32.5q0 13 2 20l81 271q-55 12 -90.5 56t-35.5 103q0 75 48.5 125t113.5 50
zM708 1474q71 0 120.5 -50t49.5 -125q0 -12 -1.5 -25t-3.5 -22.5t-6.5 -24.5t-7 -22.5t-10.5 -25t-10 -23t-12 -26t-12 -25.5l-120 -253q-12 -25 -25.5 -36.5t-36.5 -11.5q-20 0 -32 12.5t-12 32.5q0 9 3 20l80 271q-55 12 -90.5 56t-35.5 103q0 75 48.5 125t113.5 50z" />
    <glyph glyph-name="quotedblbase" unicode="&#x201e;" horiz-adv-x="987" 
d="M272 324q71 0 120 -49.5t49 -125.5q0 -10 -1 -20t-2 -18t-4.5 -20t-4.5 -18t-6.5 -19.5t-7 -18t-8.5 -20.5t-8.5 -18.5t-10 -21t-9.5 -20.5l-120 -253q-23 -48 -63 -48q-20 0 -31.5 12.5t-11.5 32.5q0 13 2 20l81 271q-55 12 -90.5 56t-35.5 103q0 75 48.5 125t113.5 50z
M708 324q71 0 120.5 -50t49.5 -125q0 -12 -1.5 -25t-3.5 -22.5t-6.5 -24.5t-7 -22.5t-10.5 -25t-10 -23t-12 -26t-12 -25.5l-120 -253q-12 -25 -25.5 -36.5t-36.5 -11.5q-20 0 -32 12.5t-12 32.5q0 9 3 20l80 271q-55 12 -90.5 56t-35.5 103q0 75 48.5 125t113.5 50z" />
    <glyph glyph-name="dagger" unicode="&#x2020;" horiz-adv-x="782" 
d="M623 1225q48 2 74 -22.5t26 -72.5t-26 -73t-74 -22l-125 4v-427q0 -62 -28 -95t-82 -33q-53 0 -82 33t-29 95v428l-125 -5q-48 -3 -74 22t-26 73t26 72.5t74 22.5l125 -4v118q0 62 29 95t83 33q53 0 81.5 -33.5t28.5 -94.5v-118z" />
    <glyph glyph-name="daggerdbl" unicode="&#x2021;" horiz-adv-x="782" 
d="M623 888v1q48 2 74 -22.5t26 -72.5t-26 -73.5t-74 -22.5l-125 5v-80q0 -62 -28 -94.5t-82 -32.5t-82.5 32.5t-28.5 94.5v80l-125 -5q-48 -3 -73.5 22.5t-25.5 73.5t25.5 72.5t73.5 22.5l125 -5v183l-125 -5q-48 -3 -73.5 22.5t-25.5 73.5t25.5 72.5t73.5 22.5l125 -5v79
q0 62 29 95t83 33q53 0 81.5 -33.5t28.5 -94.5v-79l124 5q48 2 74 -22.5t26 -72.5t-26 -73.5t-74 -22.5l-124 5v-183z" />
    <glyph glyph-name="bullet" unicode="&#x2022;" horiz-adv-x="702" 
d="M351 293q-104 0 -172.5 74t-68.5 182q0 107 68.5 181t172.5 74t172.5 -74t68.5 -181q0 -108 -68.5 -182t-172.5 -74z" />
    <glyph glyph-name="ellipsis" unicode="&#x2026;" horiz-adv-x="1523" 
d="M271 -16q-70 0 -115.5 49.5t-45.5 121.5q0 71 45.5 120.5t115.5 49.5q69 0 115 -49.5t46 -120.5q0 -72 -46 -121.5t-115 -49.5zM762 -16q-70 0 -115.5 49.5t-45.5 121.5q0 71 45.5 120.5t115.5 49.5q69 0 115 -49.5t46 -120.5q0 -72 -46 -121.5t-115 -49.5zM1254 -16
q-70 0 -115.5 49.5t-45.5 121.5q0 71 45.5 120.5t115.5 49.5q69 0 115 -49.5t46 -120.5q0 -72 -46 -121.5t-115 -49.5z" />
    <glyph glyph-name="perthousand" unicode="&#x2030;" horiz-adv-x="2166" 
d="M257 -45q-20 0 -35.5 15t-15.5 36q0 19 13 36l988 1426q22 29 48 29q21 0 36 -14.5t15 -35.5q0 -14 -14 -36l-987 -1428q-19 -28 -48 -28zM395 830q-117 0 -200.5 89t-83.5 232q0 145 83.5 234.5t200.5 89.5q118 0 201.5 -90t83.5 -234q0 -143 -83.5 -232t-201.5 -89z
M395 976q56 0 89 48.5t33 126.5q0 80 -33 129t-89 49q-55 0 -88.5 -49t-33.5 -129q0 -78 33.5 -126.5t88.5 -48.5zM1113 -20q-117 0 -200.5 88.5t-83.5 231.5q0 145 83.5 234.5t200.5 89.5q118 0 201 -90t83 -234q0 -143 -83 -231.5t-201 -88.5zM1771 -21q-117 0 -200.5 89
t-83.5 232q0 145 83.5 234.5t200.5 89.5q118 0 201 -90t83 -234q0 -143 -83 -232t-201 -89zM1113 125q56 0 89 48.5t33 126.5q0 80 -33 129t-89 49q-55 0 -88.5 -49t-33.5 -129q0 -78 33.5 -126.5t88.5 -48.5zM1771 125q56 0 89 48.5t33 126.5q0 80 -33 129t-89 49
q-55 0 -88.5 -49t-33.5 -129q0 -78 33.5 -126.5t88.5 -48.5z" />
    <glyph glyph-name="guilsinglleft" unicode="&#x2039;" horiz-adv-x="786" 
d="M552 991l66 -65q-17 17 -38 30q-10 17 -28 35zM574 300q34 -44 34 -94q0 -46 -28 -86q-28 -14 -56 -14q-61 0 -114 62l-236 281q-40 47 -40 105q0 63 51 120l227 253q44 50 99 50q35 0 69 -21q21 -34 21 -73q0 -57 -46 -112l-178 -212zM546 82q21 20 34 38q17 8 37 26z
" />
    <glyph glyph-name="guilsinglright" unicode="&#x203a;" horiz-adv-x="786" 
d="M242 998q-20 -20 -31 -38q-17 -10 -34 -27zM610 667q44 -50 44 -109q0 -61 -47 -117l-236 -281q-46 -54 -103 -54q-31 0 -64 18q-24 36 -24 77q0 55 40 108l190 250l-184 220q-39 47 -39 100q0 44 24 81q31 17 61 17q59 0 110 -57zM234 89l-71 64q20 -19 41 -29
q13 -19 30 -35z" />
    <glyph glyph-name="fraction" unicode="&#x2044;" horiz-adv-x="235" 
d="M-393 -45q-20 0 -35.5 15t-15.5 36q0 19 13 36l988 1426q22 29 48 29q21 0 36 -14.5t15 -35.5q0 -14 -14 -36l-987 -1428q-19 -28 -48 -28z" />
    <glyph glyph-name="euro" unicode="&#x20ac;" horiz-adv-x="1198" 
d="M1060 245q39 2 63 -26.5t24 -71.5q0 -41 -21 -72.5t-60 -46.5q-113 -47 -262 -47q-227 0 -398.5 136t-233.5 374h-66q-39 0 -62 23t-23 62t23 61.5t62 22.5h39q-2 23 -2 71q0 22 2 66h-39q-39 0 -62 23t-23 62t23 61.5t62 22.5h66q61 237 234 373t399 136q134 0 241 -42
q42 -15 64.5 -48t22.5 -74q0 -43 -24.5 -71.5t-63.5 -26.5q-5 1 -43 11t-56 14t-51.5 9t-62.5 5q-130 0 -231 -75t-149 -211h525q39 0 61.5 -22.5t22.5 -61.5t-22.5 -62t-61.5 -23h-559q-3 -31 -3 -64q0 -39 3 -73h559q39 0 61.5 -22.5t22.5 -61.5t-22.5 -62t-61.5 -23h-524
q49 -138 152 -211t238 -73q36 0 71.5 5.5t88 18.5t57.5 14z" />
    <glyph glyph-name="trademark" unicode="&#x2122;" horiz-adv-x="1650" 
d="M1576 800q2 -16 2 -23q0 -39 -22 -65t-58 -26q-78 0 -89 89l-66 427l-149 -440q-22 -68 -77 -68q-62 0 -84 67l-151 432l-74 -423q-12 -84 -85 -84q-34 0 -55.5 22.5t-21.5 55.5q0 11 1 17l107 566q11 61 36.5 85.5t70.5 24.5q41 0 64.5 -20.5t40.5 -73.5l154 -435
l147 431q17 56 40.5 76t60.5 20q43 0 66.5 -23t33.5 -74zM539 1454q37 0 61 -21t24 -58t-24 -58t-61 -21h-120v-508q0 -102 -89 -102q-43 0 -66 26.5t-23 75.5v508h-122q-37 0 -60.5 21t-23.5 58t23.5 58t60.5 21h420z" />
    <glyph glyph-name="oneeighth" unicode="&#x215b;" horiz-adv-x="1751" 
d="M1403 1447q0 -16 -13 -36l-987 -1428q-19 -28 -48 -28q-20 0 -35.5 15t-15.5 36q0 19 13 36l988 1426q22 29 47 29q21 0 36 -14.5t15 -35.5zM319 706v551l-133 -52q-15 -6 -28 -6q-29 0 -49 23t-20 52q0 45 42 68l230 107q51 24 79 24t44 -19.5t16 -55.5v-692
q0 -43 -25.5 -70.5t-65.5 -27.5q-39 0 -64.5 27.5t-25.5 70.5zM1520 454q75 -24 121.5 -78.5t46.5 -131.5q0 -119 -91.5 -186.5t-226.5 -67.5t-227 67.5t-92 186.5q0 76 47 131t121 79q-132 60 -132 190q0 100 81 161.5t202 61.5t201.5 -61.5t80.5 -161.5q0 -130 -132 -190z
M1370 740q-56 0 -93.5 -31.5t-37.5 -82.5q0 -53 36 -86.5t95 -33.5q58 0 94 33.5t36 86.5q0 51 -37 82.5t-93 31.5zM1370 120q66 0 110 37t44 97q0 57 -45 94.5t-109 37.5q-65 0 -109.5 -37t-44.5 -95q0 -60 43.5 -97t110.5 -37z" />
    <glyph glyph-name="threeeighths" unicode="&#x215c;" horiz-adv-x="1718" 
d="M1371 1447q0 -14 -14 -36l-987 -1428q-19 -28 -48 -28q-20 0 -35.5 15t-15.5 36q0 19 13 36l988 1426q22 29 47 29q21 0 36.5 -14.5t15.5 -35.5zM646 851q0 -117 -98.5 -188.5t-245.5 -71.5q-106 0 -198 37q-47 21 -47 72q0 30 15 51t41 21q5 0 63 -17t105 -17
q73 0 121 34.5t48 89.5t-49.5 88t-132.5 33h-54q-27 0 -41.5 19.5t-14.5 47.5q0 27 14.5 46.5t41.5 19.5h43q80 0 124.5 33.5t44.5 81.5q0 46 -43.5 75t-113.5 29q-43 0 -96 -16t-56 -16q-20 0 -32.5 18.5t-12.5 45.5q0 62 57 79q75 29 176 29q138 0 219.5 -57.5
t81.5 -148.5q0 -69 -43 -121.5t-131 -79.5q108 -21 161 -77.5t53 -139.5zM1487 454q75 -24 122 -78.5t47 -131.5q0 -119 -92 -186.5t-227 -67.5t-227 67.5t-92 186.5q0 76 47 131t121 79q-132 60 -132 190q0 100 81 161.5t202 61.5t202 -61.5t81 -161.5q0 -63 -34.5 -112
t-98.5 -78zM1337 740q-56 0 -93.5 -31.5t-37.5 -82.5q0 -53 36 -86.5t95 -33.5q58 0 94 33.5t36 86.5q0 51 -37 82.5t-93 31.5zM1337 120q66 0 110.5 37t44.5 97q0 57 -45.5 94.5t-109.5 37.5q-65 0 -109.5 -37t-44.5 -95q0 -60 43.5 -97t110.5 -37z" />
    <glyph glyph-name="fiveeighths" unicode="&#x215d;" horiz-adv-x="1773" 
d="M1426 1447q0 -14 -14 -36l-987 -1428q-19 -28 -48 -28q-20 0 -35.5 15t-15.5 36q0 19 13 36l988 1426q22 29 47 29q21 0 36.5 -14.5t15.5 -35.5zM678 893q0 -89 -52 -158t-133.5 -104t-176.5 -35q-120 0 -187 37q-39 23 -39 72q0 29 16.5 49t40.5 20q8 0 59.5 -12.5
t90.5 -12.5q83 0 135 39.5t52 102.5q0 62 -48.5 98.5t-123.5 36.5q-31 0 -63.5 -5.5t-56.5 -12t-30 -7.5q-17 -1 -25.5 12.5t-6.5 39.5l50 324q9 85 90 85h284q80 0 80 -73q0 -75 -80 -75h-229l-25 -158q34 2 53 2q145 0 235 -68.5t90 -196.5zM1542 454q75 -24 122 -78.5
t47 -131.5q0 -119 -91.5 -186.5t-226.5 -67.5t-227.5 67.5t-92.5 186.5q0 76 47 131t121 79q-63 29 -97 77.5t-34 112.5q0 100 81 161.5t202 61.5t201.5 -61.5t80.5 -161.5q0 -63 -34.5 -112t-98.5 -78zM1393 740q-56 0 -93.5 -31.5t-37.5 -82.5q0 -53 36 -86.5t95 -33.5
q58 0 94 33.5t36 86.5q0 51 -37 82.5t-93 31.5zM1393 120q66 0 110 37t44 97q0 57 -45 94.5t-109 37.5q-65 0 -110 -37t-45 -95q0 -60 43.5 -97t111.5 -37z" />
    <glyph glyph-name="seveneighths" unicode="&#x215e;" horiz-adv-x="1660" 
d="M1312 1447q0 -14 -14 -36l-987 -1428q-19 -28 -48 -28q-20 0 -35.5 15t-15.5 36q0 19 13 36l988 1426q22 29 47 29q21 0 36.5 -14.5t15.5 -35.5zM320 681q-31 -73 -102 -73q-30 0 -50 18.5t-20 49.5q0 25 13 54l299 575h-297q-76 0 -76 79q0 78 76 78h401q95 0 95 -69
q0 -27 -20 -69zM1428 454q75 -24 122 -78.5t47 -131.5q0 -119 -91.5 -186.5t-226.5 -67.5t-227.5 67.5t-92.5 186.5q0 76 47 131t121 79q-132 60 -132 190q0 99 81 161t203 62q121 0 201.5 -61.5t80.5 -161.5q0 -63 -34.5 -112t-98.5 -78zM1279 740q-56 0 -93.5 -31.5
t-37.5 -82.5q0 -53 36 -86.5t95 -33.5q58 0 94 33.5t36 86.5q0 51 -37 82.5t-93 31.5zM1279 120q66 0 110 37t44 97q0 57 -45 94.5t-109 37.5q-65 0 -110 -37t-45 -95q0 -60 43.5 -97t111.5 -37z" />
    <glyph glyph-name="partialdiff" unicode="&#x2202;" horiz-adv-x="1198" 
d="M432 1474q170 0 299.5 -55t210 -157t121 -241t40.5 -312q0 -329 -143.5 -528.5t-391.5 -199.5q-96 0 -182 33t-152 93t-105 152.5t-39 204.5q0 215 140 348.5t352 133.5q150 0 264 -56q-36 181 -138 275.5t-261 94.5q-55 0 -126 -14.5t-77 -14.5q-35 0 -58 30t-23 73
q0 90 75 114q84 26 194 26zM577 213q137 0 212 121.5t76 343.5q-99 63 -228 63q-132 0 -215 -79.5t-83 -198.5q0 -110 67.5 -180t170.5 -70z" />
    <glyph glyph-name="product" unicode="&#x220f;" horiz-adv-x="1595" 
d="M1348 1454q44 0 75.5 -33.5t31.5 -80.5t-31.5 -80.5t-75.5 -33.5h-112v-1328q0 -72 -38.5 -113t-105.5 -41t-106 40.5t-39 113.5v1328h-349v-1328q0 -71 -37.5 -112.5t-105.5 -41.5q-67 0 -105.5 40.5t-38.5 113.5v1328h-99q-44 0 -75.5 33.5t-31.5 81.5q0 47 31.5 80
t75.5 33h1136z" />
    <glyph glyph-name="summation" unicode="&#x2211;" horiz-adv-x="1155" 
d="M968 -34q38 0 65 -28.5t27 -69.5v-34q0 -38 -28.5 -65t-69.5 -27h-786q-47 0 -72 26t-25 65q0 45 30 81l574 693l-559 658q-42 52 -42 99q0 39 26.5 64.5t73.5 25.5h775q38 0 65 -28.5t27 -69.5v-34q0 -38 -28.5 -64.5t-69.5 -26.5h-495l433 -510q47 -55 47 -114
q0 -61 -49 -120l-434 -521h515z" />
    <glyph glyph-name="minus" unicode="&#x2212;" horiz-adv-x="1191" 
d="M175 516q-41 0 -70 30t-29 74q0 43 28.5 73.5t70.5 30.5h843q41 0 69.5 -30t28.5 -74q0 -43 -28 -73.5t-70 -30.5h-843z" />
    <glyph glyph-name="radical" unicode="&#x221a;" horiz-adv-x="1341" 
d="M1121 1459q44 0 72.5 -31.5t28.5 -78.5q0 -31 -16 -70l-552 -1445q-43 -103 -117 -103q-73 0 -122 96l-321 681q-18 38 -18 67q0 45 32 78t80 33q41 0 65.5 -22.5t49.5 -76.5l221 -501l478 1281q36 92 119 92z" />
    <glyph glyph-name="infinity" unicode="&#x221e;" horiz-adv-x="1904" 
d="M1386 1049q172 0 289.5 -124.5t117.5 -318.5t-116.5 -317.5t-287.5 -123.5q-68 0 -132 23t-118.5 64.5t-96 85t-83.5 98.5q-103 -129 -208 -200t-224 -71q-175 0 -295.5 124.5t-120.5 308.5q0 187 124.5 319t297.5 132q63 0 122.5 -23t110 -65.5t90 -86.5t81.5 -103
q47 62 90 106.5t98.5 86.5t121.5 63.5t139 21.5zM521 379q70 0 141 56.5t155 169.5q-89 118 -156.5 174.5t-137.5 56.5q-78 0 -137.5 -67t-59.5 -164q0 -96 58.5 -161t136.5 -65zM1390 379q80 0 134 59.5t54 161.5q0 104 -57.5 170t-138.5 66q-79 0 -153 -64.5t-156 -178.5
q90 -108 163.5 -161t153.5 -53z" />
    <glyph glyph-name="integral" unicode="&#x222b;" horiz-adv-x="1060" 
d="M155 -393q-117 0 -181 33q-32 15 -51 49.5t-19 72.5q0 42 22.5 73t55.5 31q7 0 39.5 -6t65.5 -6q67 0 104.5 38.5t50.5 120.5l193 1158q27 192 116.5 286t252.5 94q101 0 180 -30q39 -13 57.5 -43.5t18.5 -68.5q0 -43 -19.5 -76.5t-46.5 -33.5q-7 0 -46 10t-71 10
q-68 0 -105.5 -39.5t-51.5 -123.5l-196 -1170q-29 -197 -116.5 -288t-252.5 -91z" />
    <glyph glyph-name="approxequal" unicode="&#x2248;" horiz-adv-x="1228" 
d="M771 702q-32 0 -62 8t-59.5 26.5t-47 31t-48.5 38.5q-35 29 -53 42.5t-48 27t-57 13.5q-94 0 -127 -125q-8 -27 -31.5 -44.5t-52.5 -17.5q-37 0 -62.5 28t-24.5 66q8 128 83.5 219.5t188.5 91.5q45 0 90.5 -19t72 -37.5t67.5 -52.5q31 -27 50 -41.5t47 -27.5t53 -13
q87 0 107 113q7 34 30.5 54t55.5 20q37 0 63.5 -28.5t25.5 -67.5q-6 -119 -80 -212t-181 -93zM771 245q-42 0 -85 17.5t-67 35t-65 50.5q-35 29 -53 42.5t-48 27t-57 13.5q-94 0 -127 -125q-8 -27 -31.5 -44t-52.5 -17q-37 0 -62.5 28t-24.5 66q8 128 83.5 219t188.5 91
q45 0 90.5 -18.5t72 -37.5t67.5 -52q31 -27 50 -41.5t47 -27.5t53 -13q87 0 107 113q7 34 30.5 54t55.5 20q37 0 63.5 -28.5t25.5 -67.5q-6 -119 -80 -212t-181 -93z" />
    <glyph glyph-name="notequal" unicode="&#x2260;" horiz-adv-x="1191" 
d="M1018 505q41 0 69.5 -30t28.5 -74q0 -43 -28 -73.5t-70 -30.5h-528l-87 -194q-23 -55 -69 -55q-22 0 -36.5 15t-14.5 38q0 15 8 34l73 162h-189q-41 0 -70 30t-29 74q0 43 28.5 73.5t70.5 30.5h283l98 219h-381q-41 0 -70 30t-29 74q0 43 28.5 73.5t70.5 30.5h474l92 202
q23 51 66 51q22 0 36.5 -15t14.5 -38q0 -16 -7 -31l-76 -169h243q41 0 69.5 -30t28.5 -74q0 -43 -28 -73.5t-70 -30.5h-336l-98 -219h434z" />
    <glyph glyph-name="lessequal" unicode="&#x2264;" horiz-adv-x="1191" 
d="M977 357l-830 414q-35 19 -50.5 38.5t-15.5 53.5q0 36 19 59t56 43l823 408q23 12 46 12q42 0 73 -31.5t31 -78.5q0 -32 -16.5 -59t-43.5 -41l-646 -308l645 -308q27 -14 44 -41.5t17 -60.5q0 -48 -33 -80t-75 -32q-23 0 -44 12zM1018 3h-843q-42 0 -70 30t-28 73
q0 44 28.5 74t69.5 30h843q42 0 70.5 -30t28.5 -73q0 -44 -29 -74t-70 -30z" />
    <glyph glyph-name="greaterequal" unicode="&#x2265;" horiz-adv-x="1191" 
d="M216 357q-21 -12 -44 -12q-42 0 -75 32t-33 80q0 33 17 60.5t44 41.5l645 308l-646 308q-27 14 -43.5 41t-16.5 59q0 47 31 78.5t73 31.5q24 0 46 -12l823 -408q37 -20 56 -43t19 -59q0 -34 -15.5 -53.5t-50.5 -38.5zM175 3q-41 0 -70 30t-29 74q0 43 28.5 73t70.5 30
h843q41 0 69.5 -30t28.5 -74q0 -43 -28 -73t-70 -30h-843z" />
    <glyph glyph-name="lozenge" unicode="&#x25ca;" horiz-adv-x="1191" 
d="M601 -69q-23 0 -40.5 14.5t-37.5 47.5l-357 588q-50 83 -50 138q0 56 50 139l360 592q19 30 35.5 43.5t39.5 13.5q24 0 40 -13.5t35 -44.5l349 -591q49 -80 49 -139q0 -56 -49 -138l-347 -587q-20 -33 -36.5 -48t-40.5 -15zM601 170l311 549l-311 549l-323 -549z" />
    <glyph glyph-name="apple" unicode="&#xf8ff;" horiz-adv-x="2045" 
d="M1022 -287q-166 0 -322 51.5t-281.5 146.5t-220.5 221t-146.5 282t-51.5 323q0 139 37 271t103 244t160.5 206.5t206.5 160.5t244 103t271 37q207 0 396.5 -81t327 -218t219 -326.5t81.5 -396.5q0 -208 -81.5 -397.5t-219 -327t-327 -218.5t-396.5 -81zM1022 223
q421 0 698 31q53 5 77 23t30 67q10 129 10 393q0 262 -10 391q-6 49 -30 67.5t-77 23.5q-268 30 -698 30t-700 -30q-51 -5 -75 -24t-30 -67q-12 -129 -12 -391q0 -264 12 -393q6 -48 30 -66.5t75 -23.5q279 -31 700 -31zM1022 322q-174 0 -294 122t-120 293q0 170 120.5 292
t293.5 122t293.5 -122t120.5 -292q0 -171 -120 -293t-294 -122z" />
    <glyph glyph-name="a.ss01" horiz-adv-x="1091" 
d="M468 1004q246 0 370 -106t124 -330v-459q0 -55 -34 -87t-93 -32h-5q-55 0 -87 34t-32 93v22q-52 -78 -137 -118t-181 -40q-142 0 -236.5 81.5t-94.5 209.5q0 99 56 170t148.5 107t216.5 44q88 7 203 5q-4 83 -67 123t-167 40q-70 0 -167 -24t-110 -24q-36 0 -61.5 28
t-25.5 78q0 95 105 137q48 20 124.5 34t150.5 14zM463 188q88 0 155.5 56t67.5 157v28q-66 2 -138 -4q-99 -5 -156.5 -39t-57.5 -94q0 -49 36.5 -76.5t92.5 -27.5z" />
    <glyph glyph-name="aacute.ss01" horiz-adv-x="1089" 
d="M478 1127q-30 0 -49.5 17.5t-19.5 46.5q0 23 15 53l151 272q50 92 138 92q47 0 81 -29t34 -72q0 -46 -40 -91l-171 -205q-37 -43 -68 -63.5t-71 -20.5zM468 1004q246 0 370 -106t124 -330v-459q0 -55 -34 -87t-93 -32h-5q-55 0 -87 34t-32 93v22q-52 -78 -137 -118
t-181 -40q-142 0 -236.5 81.5t-94.5 209.5q0 99 56 170t148.5 107t216.5 44q88 7 203 5q-4 83 -67 123t-167 40q-70 0 -167 -24t-110 -24q-36 0 -61.5 28t-25.5 78q0 95 105 137q48 20 124.5 34t150.5 14zM463 188q88 0 155.5 56t67.5 157v28q-66 2 -138 -4
q-99 -5 -156.5 -39t-57.5 -94q0 -49 36.5 -76.5t92.5 -27.5z" />
    <glyph glyph-name="acircumflex.ss01" horiz-adv-x="1089" 
d="M324 1132q-74 0 -74 52q0 24 15 49l141 215q28 46 58 63.5t78 17.5q50 0 80.5 -18.5t56.5 -62.5l139 -214q15 -26 15 -45q0 -27 -23 -41.5t-53 -14.5q-57 0 -92 47l-123 171l-122 -170q-35 -49 -96 -49zM468 1004q246 0 370 -106t124 -330v-459q0 -55 -34 -87t-93 -32h-5
q-55 0 -87 34t-32 93v22q-52 -78 -137 -118t-181 -40q-142 0 -236.5 81.5t-94.5 209.5q0 99 56 170t148.5 107t216.5 44q88 7 203 5q-4 83 -67 123t-167 40q-70 0 -167 -24t-110 -24q-36 0 -61.5 28t-25.5 78q0 95 105 137q48 20 124.5 34t150.5 14zM463 188q88 0 155.5 56
t67.5 157v28q-66 2 -138 -4q-99 -5 -156.5 -39t-57.5 -94q0 -49 36.5 -76.5t92.5 -27.5z" />
    <glyph glyph-name="adieresis.ss01" horiz-adv-x="1089" 
d="M365 1239q-51 0 -84.5 36t-33.5 89q0 52 33.5 88.5t84.5 36.5t84.5 -36.5t33.5 -88.5q0 -53 -33.5 -89t-84.5 -36zM718 1239q-51 0 -84.5 36t-33.5 89q0 52 33.5 88.5t84.5 36.5t84.5 -36.5t33.5 -88.5q0 -53 -33.5 -89t-84.5 -36zM468 1004q246 0 370 -106t124 -330
v-459q0 -55 -34 -87t-93 -32h-5q-55 0 -87 34t-32 93v22q-52 -78 -137 -118t-181 -40q-142 0 -236.5 81.5t-94.5 209.5q0 99 56 170t148.5 107t216.5 44q88 7 203 5q-4 83 -67 123t-167 40q-70 0 -167 -24t-110 -24q-36 0 -61.5 28t-25.5 78q0 95 105 137q48 20 124.5 34
t150.5 14zM463 188q88 0 155.5 56t67.5 157v28q-66 2 -138 -4q-99 -5 -156.5 -39t-57.5 -94q0 -49 36.5 -76.5t92.5 -27.5z" />
    <glyph glyph-name="agrave.ss01" horiz-adv-x="1089" 
d="M402 1211l-171 205q-40 45 -40 91q0 43 34 72t81 29q88 0 138 -92l151 -272q15 -30 15 -53q0 -29 -19.5 -46.5t-49.5 -17.5q-40 0 -71 20.5t-68 63.5zM468 1004q246 0 370 -106t124 -330v-459q0 -55 -34 -87t-93 -32h-5q-55 0 -87 34t-32 93v22q-52 -78 -137 -118
t-181 -40q-142 0 -236.5 81.5t-94.5 209.5q0 99 56 170t148.5 107t216.5 44q88 7 203 5q-4 83 -67 123t-167 40q-70 0 -167 -24t-110 -24q-36 0 -61.5 28t-25.5 78q0 95 105 137q48 20 124.5 34t150.5 14zM463 188q88 0 155.5 56t67.5 157v28q-66 2 -138 -4
q-99 -5 -156.5 -39t-57.5 -94q0 -49 36.5 -76.5t92.5 -27.5z" />
    <glyph glyph-name="aring.ss01" horiz-adv-x="1089" 
d="M541 1112q-89 0 -155 61t-66 153q0 90 65.5 149t155.5 59q89 0 155 -59t66 -149q0 -92 -66 -153t-155 -61zM541 1423q-42 0 -69.5 -27.5t-27.5 -70.5q0 -44 27.5 -72.5t69.5 -28.5q41 0 68.5 29t27.5 72t-27.5 70.5t-68.5 27.5zM468 1004q246 0 370 -106t124 -330v-459
q0 -55 -34 -87t-93 -32h-5q-55 0 -87 34t-32 93v22q-52 -78 -137 -118t-181 -40q-142 0 -236.5 81.5t-94.5 209.5q0 99 56 170t148.5 107t216.5 44q88 7 203 5q-4 83 -67 123t-167 40q-70 0 -167 -24t-110 -24q-36 0 -61.5 28t-25.5 78q0 95 105 137q48 20 124.5 34
t150.5 14zM463 188q88 0 155.5 56t67.5 157v28q-66 2 -138 -4q-99 -5 -156.5 -39t-57.5 -94q0 -49 36.5 -76.5t92.5 -27.5z" />
    <glyph glyph-name="atilde.ss01" horiz-adv-x="1089" 
d="M245 1145q-67 0 -67 92q0 101 59 174t154 73q43 0 86 -22t72 -48t63.5 -48t61.5 -22q58 0 72 77q6 26 24 42t44 16q32 0 53.5 -23t21.5 -64q0 -105 -57.5 -173t-148.5 -68q-43 0 -85 21.5t-69.5 46.5t-61.5 46.5t-63 21.5q-64 0 -85 -81q-18 -61 -74 -61zM468 1004
q246 0 370 -106t124 -330v-459q0 -54 -33.5 -86t-93.5 -32h-5q-55 0 -87 33.5t-32 92.5v22q-52 -78 -137 -118t-181 -40q-142 0 -236.5 81.5t-94.5 209.5q0 99 56 170t148.5 107t216.5 44q88 7 203 5q-4 83 -67 123t-167 40q-70 0 -167 -24t-110 -24q-36 0 -61.5 28
t-25.5 78q0 95 105 137q48 20 124.5 34t150.5 14zM464 188h-1q88 0 155.5 56t67.5 157v28q-66 2 -138 -4q-99 -5 -156.5 -39t-57.5 -94q0 -49 37 -76.5t93 -27.5z" />
    <glyph glyph-name="l.ss02" horiz-adv-x="552" 
d="M277 -15q-67 0 -105 39.5t-38 112.5v1256q0 72 37 112t106 40q68 0 105.5 -39.5t37.5 -112.5v-1256q0 -72 -37.5 -112t-105.5 -40z" />
    <glyph glyph-name="lslash.ss02" horiz-adv-x="552" 
d="M520 983q31 0 51.5 -24t20.5 -55q0 -51 -51 -71l-121 -47v-649q0 -72 -37.5 -112t-105.5 -40q-67 0 -105 39.5t-38 112.5v540l-46 -18q-15 -6 -29 -6q-31 0 -51 24.5t-20 56.5q0 52 48 70l98 37v552q0 72 37 112t106 40q68 0 105.5 -39.5t37.5 -112.5v-442l70 26
q16 6 30 6z" />
    <glyph glyph-name="oslash.bold" horiz-adv-x="1191" 
d="M902 912q104 -70 164 -179t60 -237q0 -143 -67.5 -261.5t-189 -187t-272.5 -68.5q-109 0 -211 43l-50 -86q-26 -45 -65 -45q-20 0 -34 13t-14 33q0 16 12 37l57 99q-104 71 -164 182.5t-60 240.5q0 212 154.5 359.5t374.5 147.5q111 0 212 -42l53 91q24 41 60 41
q20 0 33 -14t13 -35q0 -16 -9 -33zM339 494q0 -122 84 -196l256 439q-39 12 -82 12q-109 0 -183.5 -70.5t-74.5 -184.5zM598 234q108 0 182 71t74 187q0 123 -83 195l-255 -441q39 -12 82 -12z" />
    <glyph glyph-name="fl.ss02" horiz-adv-x="1357" 
d="M786 1500q51 -37 51 -107q0 -44 -22.5 -70.5t-63.5 -26.5q-8 0 -46 9q-36 6 -62 6q-136 0 -136 -140v-188h202q40 0 67.5 -29t27.5 -72t-27.5 -72t-67.5 -29h-202v-642q0 -75 -36.5 -114.5t-106.5 -39.5q-69 0 -106 39.5t-37 114.5v642h-84q-40 0 -67.5 29t-27.5 72
t27.5 72t67.5 29h84v181q0 188 92.5 287.5t265.5 99.5q132 0 207 -51zM1080 1545q68 0 105.5 -39.5t37.5 -112.5v-1256q0 -72 -37.5 -112t-105.5 -40q-67 0 -105 39.5t-38 112.5v1256q0 72 37 112t106 40z" />
    <glyph glyph-name="ordfeminine.ss01" horiz-adv-x="894" 
d="M380 1177q59 5 156 5q-4 71 -49 104.5t-120 33.5q-41 0 -97 -14.5t-72 -14.5q-25 0 -41 21.5t-16 49.5q0 53 49 76q83 35 210 35q174 0 262.5 -80t88.5 -255v-304q0 -42 -29 -66t-69 -24q-41 0 -71 24t-30 66v8q-71 -102 -209 -102q-101 0 -168.5 56t-67.5 150
q0 102 73 162t200 69zM536 1075h-27q-40 0 -58 -2q-66 -4 -104.5 -31.5t-38.5 -77.5q0 -35 25.5 -55.5t64.5 -20.5q53 0 95.5 35t42.5 104v48zM699 609q72 0 72 -66q0 -67 -72 -67h-516q-72 0 -72 67q0 66 72 66h516z" />
    <glyph glyph-name="zero.tf" horiz-adv-x="1198" 
d="M599 -19q-85 0 -161 28t-141 87.5t-112 146t-73.5 210t-26.5 273.5q0 186 41 331.5t112.5 235.5t163 136t197.5 46t197.5 -46.5t163 -136.5t112.5 -235.5t41 -330.5q0 -186 -41 -331t-112 -234t-163 -134.5t-198 -45.5zM599 244q238 0 238 482q0 247 -62 366.5
t-176 119.5q-113 0 -175 -119.5t-62 -366.5t62 -364.5t175 -117.5z" />
    <glyph glyph-name="one.tf" horiz-adv-x="1198" 
d="M768 1470q27 0 44.5 -18.5t17.5 -48.5v-1259q0 -65 -39 -104t-109 -40q-64 2 -101.5 42.5t-37.5 111.5v969l-227 -92q-29 -13 -57 -13q-45 0 -72 34t-27 80q0 37 19 70t55 50l401 173q96 45 133 45zM688 0h-12h6h6z" />
    <glyph glyph-name="two.tf" horiz-adv-x="1198" 
d="M903 243q60 0 98 -32.5t45 -92.5q-8 -55 -48 -86.5t-105 -31.5h-687q-40 0 -61 17t-21 47q0 33 29 77l361 465q106 142 153 228.5t47 174.5q0 96 -77 155t-191 59q-99 0 -197 -36q-38 -12 -52 -12q-36 0 -60.5 32t-24.5 76q0 84 82 125q139 67 318 67q220 0 359 -110.5
t139 -293.5q0 -129 -52.5 -244t-157.5 -254l-254 -330h357zM1048 144v-55q0 11 -2 29q2 16 2 26z" />
    <glyph glyph-name="three.tf" horiz-adv-x="1198" 
d="M721 786q183 -35 273.5 -130.5t90.5 -235.5q0 -130 -76 -231t-206 -155t-291 -54q-165 0 -339 67q-32 14 -50.5 43.5t-18.5 69.5q0 49 24 83.5t64 33.5q7 0 105.5 -30t181.5 -30q127 0 211 62t84 159q0 96 -87.5 153.5t-235.5 57.5h-86q-43 0 -67 31.5t-24 75.5t24 75
t67 31h71q139 0 217 59t78 144q0 81 -75 132.5t-196 51.5q-55 0 -113 -14.5t-98.5 -28.5t-50.5 -14q-32 0 -51.5 29.5t-19.5 73.5q0 100 93 128q131 52 295 52q229 0 365 -97.5t136 -250.5q0 -117 -72.5 -206t-222.5 -135z" />
    <glyph glyph-name="four.tf" horiz-adv-x="1198" 
d="M1036 465q53 0 82.5 -33t29.5 -92q0 -54 -29.5 -83t-82.5 -29h-65v-67q0 -77 -39.5 -124.5t-109.5 -47.5q-66 0 -98.5 46t-32.5 120v73h-482q-76 0 -116.5 40t-40.5 112q0 71 67 185l508 772q39 66 82.5 91.5t107.5 25.5q65 0 109.5 -43t44.5 -118v-828h65zM702 1069
q-42 -81 -109 -195l-272 -409h370v389q0 94 11 215z" />
    <glyph glyph-name="five.tf" horiz-adv-x="1198" 
d="M557 934q225 0 370 -118t145 -332q0 -114 -49 -210t-131.5 -159.5t-190.5 -99t-227 -35.5q-173 0 -289 66q-64 42 -64 116q0 47 26 77.5t61 30.5q4 0 64 -12q91 -34 194 -34q131 0 216.5 70t85.5 188q0 112 -79 177t-205 65q-80 0 -185 -31q-48 -10 -66 -10
q-23 0 -38.5 19t-11.5 54l88 569q9 60 51 94.5t108 34.5h424q59 0 96.5 -31.5t46.5 -89.5q-9 -54 -49 -84.5t-104 -30.5h-349l-45 -290q53 6 107 6zM999 1363v-65q0 24 -2 35q2 10 2 30z" />
    <glyph glyph-name="six.tf" horiz-adv-x="1198" 
d="M664 919q185 0 307 -127t122 -323q0 -212 -146 -350.5t-361 -138.5q-217 0 -356.5 137.5t-139.5 345.5q0 231 166 453l359 458q32 48 66.5 70.5t81.5 22.5q43 0 72 -29.5t29 -74.5q0 -46 -31 -91l-302 -373q-1 -2 -21 -24q65 44 154 44zM592 212q104 0 177.5 71.5
t73.5 178.5q0 115 -71.5 184.5t-182.5 69.5q-105 0 -175.5 -73t-70.5 -186q0 -105 71.5 -175t177.5 -70z" />
    <glyph glyph-name="seven.tf" horiz-adv-x="1198" 
d="M962 1454q58 0 89 -23t31 -66q0 -39 -25 -89l-579 -1179q-51 -118 -153 -118q-51 0 -86 34.5t-35 92.5q0 43 21 91l515 1007h-478q-58 0 -92 33.5t-35 94.5q2 57 37 89.5t97 32.5h693zM135 1328v9v-5v-4z" />
    <glyph glyph-name="eight.tf" horiz-adv-x="1198" 
d="M602 -19q-138 0 -252.5 50t-186.5 152.5t-72 239.5q0 120 69 215t177 135q-92 48 -141.5 128t-49.5 180q0 172 131 283t325 111t325 -111t131 -283q0 -100 -49.5 -180.5t-140.5 -127.5q109 -42 178 -136t69 -213q0 -138 -72 -240.5t-187 -152.5t-254 -50zM600 866
q84 0 137.5 54t53.5 135t-54.5 132.5t-134.5 51.5q-81 0 -135 -52t-54 -132q0 -81 52.5 -135t134.5 -54zM602 223q95 0 158 59.5t63 150.5q0 93 -64 153.5t-157 60.5t-157.5 -60.5t-64.5 -153.5q0 -91 63 -150.5t159 -59.5z" />
    <glyph glyph-name="nine.tf" horiz-adv-x="1198" 
d="M596 1475q217 0 356.5 -138t139.5 -346q0 -231 -166 -453l-359 -458q-61 -93 -149 -93q-42 0 -71 29.5t-29 74.5q0 46 31 91l301 373q3 4 11 12.5t11 11.5q-65 -44 -154 -44q-185 0 -307.5 127t-122.5 323q0 140 68 253t184 175t256 62zM593 738q105 0 175 73t70 186
q0 105 -71 175t-177 70q-104 0 -177.5 -71.5t-73.5 -178.5q0 -115 71.5 -184.5t182.5 -69.5z" />
    <glyph glyph-name="zero.dnom" horiz-adv-x="772" 
d="M388 -11q-139 0 -230 111.5t-91 326.5t91.5 327.5t229.5 112.5t228.5 -112.5t90.5 -327.5t-90 -326.5t-229 -111.5zM388 147q158 0 158 280q0 143 -41 213t-117 70q-75 0 -117.5 -70.5t-42.5 -212.5q0 -143 42.5 -211.5t117.5 -68.5z" />
    <glyph glyph-name="one.dnom" horiz-adv-x="720" 
d="M440 866q28 0 44 -20t16 -56v-691q0 -43 -25.5 -71t-65.5 -28q-39 0 -64.5 28t-25.5 71v550l-133 -52q-15 -6 -28 -6q-29 0 -49 23t-20 53q0 44 42 67l230 107q53 25 79 25z" />
    <glyph glyph-name="two.dnom" horiz-adv-x="772" 
d="M605 152q31 0 51.5 -21.5t20.5 -54.5t-20.5 -54.5t-51.5 -21.5h-459q-27 0 -41.5 12t-14.5 31q0 22 22 49l225 261q62 73 92 123.5t30 102.5q0 59 -46 96.5t-114 37.5q-48 0 -98.5 -18t-55.5 -18q-21 0 -35.5 20.5t-14.5 46.5q0 59 62 84q84 39 190 39q131 0 214.5 -66.5
t83.5 -175.5q0 -74 -34 -139.5t-103 -148.5l-161 -185h258z" />
    <glyph glyph-name="three.dnom" horiz-adv-x="714" 
d="M432 461q108 -21 161 -77.5t53 -139.5q0 -117 -98.5 -189t-245.5 -72q-106 0 -198 37q-47 21 -47 72q0 30 15 51.5t41 21.5q5 0 63 -17t105 -17q73 0 121 34.5t48 89.5t-50 88t-133 33h-53q-27 0 -41.5 19.5t-14.5 47.5q0 27 14.5 46t41.5 19h43q80 0 124.5 33.5
t44.5 81.5q0 46 -43.5 75t-113.5 29q-43 0 -96 -16t-56 -16q-20 0 -32.5 18.5t-12.5 45.5q0 62 57 79q75 29 176 29q138 0 219.5 -57.5t81.5 -148.5q0 -147 -174 -200z" />
    <glyph glyph-name="four.dnom" horiz-adv-x="753" 
d="M650 268q33 0 51 -18t18 -50t-18 -50.5t-51 -18.5h-41v-33q0 -47 -21.5 -72.5t-61.5 -25.5t-62 22t-22 62l1 47h-307q-44 0 -71.5 25.5t-27.5 65.5t25 77l377 551q36 55 90 55q34 0 57 -24t23 -65v-548h41zM448 632l-253 -363l251 -1z" />
    <glyph glyph-name="five.dnom" horiz-adv-x="770" 
d="M353 550q145 0 235 -68t90 -196q0 -89 -52 -158t-133.5 -104.5t-176.5 -35.5q-120 0 -187 37q-39 23 -39 73q0 29 16.5 48.5t40.5 19.5q8 0 59.5 -12t90.5 -12q83 0 135 39.5t52 102.5q0 62 -48.5 98t-123.5 36q-31 0 -63.5 -5.5t-56.5 -11.5t-30 -7q-17 -1 -25.5 12
t-6.5 39l50 324q9 86 90 86h284q80 0 80 -73q0 -75 -80 -75h-230l-24 -159q34 2 53 2z" />
    <glyph glyph-name="six.dnom" horiz-adv-x="765" 
d="M434 550q112 0 193 -77.5t81 -192.5q0 -127 -93.5 -209.5t-224.5 -82.5q-134 0 -227 76t-93 202q0 69 27 137t99 173l189 243q34 51 92 51q32 0 55 -18.5t23 -49.5q0 -27 -20 -61l-146 -182q-2 -3 -6.5 -8t-6.5 -7q30 6 58 6zM387 135q66 0 110.5 39.5t44.5 99.5
q0 64 -44 102.5t-111 38.5q-65 0 -108 -40t-43 -103q0 -59 43 -98t108 -39z" />
    <glyph glyph-name="seven.dnom" horiz-adv-x="739" 
d="M564 855q95 0 95 -70q0 -27 -20 -69l-319 -643q-31 -73 -102 -73q-30 0 -50 19t-20 50q0 25 13 54l298 574h-296q-76 0 -76 79t76 79h401z" />
    <glyph glyph-name="eight.dnom" horiz-adv-x="768" 
d="M387 -10q-135 0 -227 67.5t-92 186.5q0 76 47 131t121 79q-132 60 -132 190q0 100 81 161.5t202 61.5t201.5 -61.5t80.5 -161.5q0 -130 -132 -190q75 -24 121.5 -78.5t46.5 -131.5q0 -119 -91.5 -186.5t-226.5 -67.5zM387 506q58 0 94 33.5t36 86.5q0 51 -37 82.5
t-93 31.5t-93.5 -31.5t-37.5 -82.5q0 -53 36 -86.5t95 -33.5zM387 120q66 0 110 37t44 97q0 57 -45 94.5t-109 37.5q-65 0 -109.5 -37t-44.5 -95q0 -60 43.5 -97t110.5 -37z" />
    <glyph glyph-name="nine.dnom" horiz-adv-x="765" 
d="M376 867q134 0 227 -76t93 -202q0 -69 -27.5 -137t-99.5 -173l-188 -244q-33 -50 -93 -50q-32 0 -55 18.5t-23 49.5q0 25 21 61l146 181q3 6 12 16q-30 -6 -57 -6q-112 0 -193.5 77t-81.5 192q0 127 94 210t225 83zM224 581q0 -64 44 -103t111 -39q64 0 107.5 40.5
t43.5 103.5q0 59 -43 98t-108 39q-66 0 -110.5 -39.5t-44.5 -99.5z" />
    <glyph glyph-name="zero.numr" horiz-adv-x="772" 
d="M388 596q-139 0 -230 112t-91 327t91.5 327.5t229.5 112.5t228.5 -112.5t90.5 -327.5t-90.5 -327t-228.5 -112zM388 755q158 0 158 280q0 282 -158 282q-75 0 -117.5 -70t-42.5 -212q0 -143 42.5 -211.5t117.5 -68.5z" />
    <glyph glyph-name="one.numr" horiz-adv-x="720" 
d="M440 1473q28 0 44 -19.5t16 -55.5v-692q0 -43 -25.5 -70.5t-65.5 -27.5q-39 0 -64.5 27.5t-25.5 70.5v551l-133 -53q-12 -5 -28 -5q-29 0 -49 23t-20 52q0 45 42 68l230 107q51 24 79 24z" />
    <glyph glyph-name="two.numr" horiz-adv-x="772" 
d="M605 760q31 0 51.5 -21.5t20.5 -54.5t-20.5 -54.5t-51.5 -21.5h-459q-27 0 -41.5 12t-14.5 31q0 21 22 48l225 261q62 72 92 123.5t30 103.5q0 59 -45.5 96t-114.5 37q-48 0 -98.5 -18t-55.5 -18q-21 0 -35.5 21t-14.5 47q0 59 62 84q82 38 190 38q131 0 214.5 -66.5
t83.5 -175.5q0 -74 -34 -139t-103 -148l-161 -185h258z" />
    <glyph glyph-name="three.numr" horiz-adv-x="714" 
d="M432 1068q108 -21 161 -77.5t53 -139.5q0 -117 -98.5 -188.5t-245.5 -71.5q-106 0 -198 37q-47 21 -47 72q0 30 15 51t41 21q5 0 63 -17t105 -17q73 0 121 34.5t48 89.5t-50 88t-133 33h-53q-27 0 -41.5 19.5t-14.5 47.5q0 27 14.5 46.5t41.5 19.5h43q80 0 124.5 33.5
t44.5 81.5q0 46 -43.5 75t-113.5 29q-43 0 -96 -16t-56 -16q-20 0 -32.5 18.5t-12.5 45.5q0 62 57 79q75 29 176 29q138 0 219.5 -57.5t81.5 -148.5q0 -69 -43 -121.5t-131 -79.5z" />
    <glyph glyph-name="four.numr" horiz-adv-x="753" 
d="M650 876q33 0 51 -18t18 -50t-18 -50.5t-51 -18.5h-41v-33q0 -47 -21.5 -73t-61.5 -26t-62 22t-22 62l1 48h-307q-45 0 -72 25.5t-27 64.5q0 41 25 78l377 550q37 56 90 56q33 0 56.5 -24.5t23.5 -65.5v-547h41zM448 1239l-253 -362l251 -1z" />
    <glyph glyph-name="five.numr" horiz-adv-x="770" 
d="M353 1158q145 0 235 -68.5t90 -196.5q0 -89 -52 -158t-133.5 -104.5t-176.5 -35.5q-118 0 -187 38q-39 23 -39 72q0 29 16.5 49t40.5 20q8 0 59.5 -12.5t90.5 -12.5q83 0 135 39.5t52 102.5q0 62 -48.5 98.5t-123.5 36.5q-31 0 -63.5 -5.5t-56.5 -12t-30 -7.5
q-17 -1 -25.5 12.5t-6.5 39.5l50 324q9 85 90 85h284q80 0 80 -73q0 -75 -80 -75h-230l-24 -158q34 2 53 2z" />
    <glyph glyph-name="six.numr" horiz-adv-x="765" 
d="M434 1158q112 0 193 -77.5t81 -192.5q0 -128 -93.5 -210.5t-224.5 -82.5q-134 0 -227 76.5t-93 202.5q0 69 27 137t99 173l189 243q34 51 92 51q32 0 55 -18.5t23 -49.5q0 -27 -20 -61l-146 -182q-1 -1 -13 -16q35 7 58 7zM387 743q66 0 110.5 39t44.5 99q0 64 -44 103
t-111 39q-64 0 -107.5 -40.5t-43.5 -103.5q0 -59 43 -97.5t108 -38.5z" />
    <glyph glyph-name="seven.numr" horiz-adv-x="739" 
d="M564 1462q95 0 95 -69q0 -27 -20 -69l-319 -643q-31 -73 -102 -73q-30 0 -50 18.5t-20 49.5q0 25 13 54l298 575h-296q-76 0 -76 79q0 78 76 78h401z" />
    <glyph glyph-name="eight.numr" horiz-adv-x="768" 
d="M387 598q-135 0 -227 67.5t-92 186.5q0 76 47 131t121 79q-132 60 -132 190q0 100 81 161.5t202 61.5t201.5 -61.5t80.5 -161.5q0 -130 -132 -190q75 -24 121.5 -78.5t46.5 -131.5q0 -119 -91.5 -186.5t-226.5 -67.5zM387 1113q58 0 94 33.5t36 86.5q0 51 -37 82.5
t-93 31.5t-93.5 -31.5t-37.5 -82.5q0 -53 36 -86.5t95 -33.5zM387 728q66 0 110 37t44 97q0 57 -45 94t-109 37q-65 0 -109.5 -36.5t-44.5 -94.5q0 -60 43.5 -97t110.5 -37z" />
    <glyph glyph-name="nine.numr" horiz-adv-x="765" 
d="M376 1475q134 0 227 -76.5t93 -202.5q0 -69 -27.5 -137t-99.5 -173l-188 -243q-34 -51 -93 -51q-32 0 -55 18.5t-23 49.5q0 25 21 61l146 182q3 6 12 16q-35 -7 -57 -7q-112 0 -193.5 77.5t-81.5 192.5q0 127 94 210t225 83zM224 1189q0 -64 44 -103t111 -39q65 0 108 40
t43 103q0 59 -43 98t-108 39q-66 0 -110.5 -39t-44.5 -99z" />
    <glyph glyph-name="colon.calt" horiz-adv-x="518" 
d="M263 821q-66 0 -109.5 47.5t-43.5 116.5q0 68 43 115t110 47q66 0 109.5 -47t43.5 -115t-43.5 -116t-109.5 -48zM263 202q-67 0 -110 47t-43 116q0 68 43 115t110 47q66 0 109.5 -47t43.5 -115t-43.5 -115.5t-109.5 -47.5z" />
    <glyph glyph-name="periodcentered.case" horiz-adv-x="540" 
d="M271 563q-70 0 -115.5 49.5t-45.5 121.5q0 71 45.5 120.5t115.5 49.5q69 0 115 -49.5t46 -120.5q0 -72 -46 -121.5t-115 -49.5z" />
    <glyph glyph-name="colon.tf" horiz-adv-x="600" 
d="M302 601q-67 0 -110 47t-43 116q0 68 43 115t110 47q66 0 110 -47t44 -115t-44 -115.5t-110 -47.5zM302 -19q-66 0 -109.5 47.5t-43.5 116.5q0 68 43 115t110 47q66 0 110 -47t44 -115t-44 -116t-110 -48z" />
    <glyph glyph-name="comma.tf" horiz-adv-x="600" 
d="M237 -350q-42 0 -42 37q0 6 4 22l80 282q-55 12 -91 55.5t-36 102.5q0 75 49.5 125t114.5 50q71 0 120.5 -50t49.5 -125q0 -14 -1.5 -27t-5.5 -28.5t-7 -25.5t-10.5 -28.5t-11 -26t-13.5 -29.5t-13 -29l-118 -252q-25 -53 -69 -53z" />
    <glyph glyph-name="period.tf" horiz-adv-x="600" 
d="M299 -16q-70 0 -115.5 49.5t-45.5 121.5q0 71 45.5 120.5t115.5 49.5q69 0 115 -49.5t46 -120.5q0 -72 -46 -121.5t-115 -49.5z" />
    <glyph glyph-name="semicolon.tf" horiz-adv-x="600" 
d="M294 663q-70 0 -115.5 49.5t-45.5 121.5q0 71 45.5 120.5t115.5 49.5q69 0 115 -49.5t46 -120.5q0 -72 -46 -121.5t-115 -49.5zM294 300q71 0 120.5 -49.5t49.5 -124.5q0 -11 -1 -21.5t-3.5 -22t-4 -20t-7 -22t-7.5 -20t-9 -22.5t-9.5 -21t-11 -23.5t-10.5 -22.5
l-120 -253q-12 -25 -25.5 -36.5t-36.5 -11.5q-20 0 -32 13t-12 33q0 8 3 19l80 271q-55 12 -90.5 56t-35.5 103q0 75 48.5 125t113.5 50z" />
    <glyph glyph-name="emdash.case" horiz-adv-x="1906" 
d="M230 621q-41 0 -69.5 30.5t-28.5 73.5v4q0 41 30.5 69.5t73.5 28.5h1441q41 0 69 -30.5t28 -73.5v-4q0 -41 -30 -69.5t-73 -28.5h-1441z" />
    <glyph glyph-name="endash.case" horiz-adv-x="1175" 
d="M230 621q-41 0 -69.5 30.5t-28.5 73.5v7q0 41 30.5 69.5t73.5 28.5h710q41 0 69 -30.5t28 -73.5v-7q0 -41 -30.5 -69.5t-73.5 -28.5h-709z" />
    <glyph glyph-name="hyphen.case" horiz-adv-x="901" 
d="M230 622q-41 0 -69.5 30.5t-28.5 73.5v7q0 41 30.5 69.5t73.5 28.5h436q41 0 69.5 -30.5t28.5 -73.5v-8q0 -41 -30.5 -69t-73.5 -28h-436z" />
    <glyph glyph-name="softhyphen.case" horiz-adv-x="901" 
d="M230 622q-41 0 -69.5 30.5t-28.5 73.5v7q0 41 30.5 69.5t73.5 28.5h436q41 0 69.5 -30.5t28.5 -73.5v-8q0 -41 -30.5 -69t-73.5 -28h-436z" />
    <glyph glyph-name="dollar.bold" horiz-adv-x="1198" 
d="M663 1703h56q-20 0 -29 -2q-8 2 -27 2zM1071 453q0 -186 -120.5 -302t-326.5 -133l-17 -184q-4 -42 -27.5 -69.5t-63.5 -34.5q-37 8 -55.5 36t-14.5 72l17 182q-193 21 -298 80q-33 14 -49.5 45.5t-16.5 67.5q0 49 25 84.5t63 35.5q14 0 57 -18t109 -38t131 -25l34 377
l-4 2q-149 62 -210 103q-160 106 -166 285v13q0 175 124.5 282t321.5 120l15 163q4 42 27.5 69.5t63.5 34.5q37 -8 55.5 -36t14.5 -72l-15 -163q114 -13 195 -50q43 -15 64.5 -46.5t21.5 -70.5q0 -47 -28.5 -81.5t-73.5 -34.5q-18 0 -84 22.5t-116 29.5l-31 -349l6 -2
q73 -27 122.5 -50.5t100.5 -57.5t81 -72.5t49 -93t19 -121.5zM444 1050q0 -82 94 -135l24 275q-55 -17 -86.5 -54.5t-31.5 -85.5zM646 270q120 43 120 156q0 47 -23 79t-70 58zM543 -273h-56q15 0 29 3q12 -3 27 -3z" />
    <glyph glyph-name="dieresiscomb.case" 
d="M-176 1587q-57 0 -94 40t-37 99t37 99t94 40q56 0 93.5 -40.5t37.5 -98.5t-37.5 -98.5t-93.5 -40.5zM201 1587q-57 0 -94 40t-37 99t37 99t94 40q56 0 93.5 -40.5t37.5 -98.5t-37.5 -98.5t-93.5 -40.5z" />
    <glyph glyph-name="dotaccentcomb.case" 
d="M-10 1556q-59 0 -97.5 41.5t-38.5 102.5q0 60 39 102t97 42t96.5 -42t38.5 -102q0 -61 -38.5 -102.5t-96.5 -41.5z" />
    <glyph glyph-name="gravecomb.case" 
d="M60 1537q-57 0 -129 54l-191 142q-48 37 -68 61t-20 50q0 71 118 71q113 0 173 -86l147 -167q33 -46 33 -73q0 -23 -17.5 -37.5t-45.5 -14.5z" />
    <glyph glyph-name="acutecomb.case" 
d="M-122 1537q-28 0 -45.5 14.5t-17.5 37.5q0 27 33 73l147 167q60 86 173 86q118 0 118 -71q0 -26 -20 -50t-68 -61l-191 -142q-72 -54 -129 -54z" />
    <glyph glyph-name="hungarumlautcomb.case" 
d="M-196 1530q-31 0 -52.5 20t-21.5 58q0 6 4 18l67 190q9 55 44.5 81.5t88.5 26.5q48 0 78.5 -26t30.5 -69q0 -39 -26 -81l-125 -170q-30 -48 -88 -48zM119 1530q-30 0 -52 19t-22 53q0 11 4 23l75 191q26 108 133 108q49 0 80.5 -26.5t31.5 -68.5q0 -39 -29 -81l-134 -170
q-34 -48 -87 -48z" />
    <glyph glyph-name="circumflexcomb.case" 
d="M-214 1530q-29 0 -46.5 19t-17.5 47q0 35 27 65l132 142q35 39 60.5 55t60.5 16q34 0 61.5 -18.5t60.5 -56.5l121 -131q26 -29 26 -62q0 -31 -21.5 -53t-49.5 -22q-36 0 -66 33l-134 134l-137 -133q-37 -35 -77 -35z" />
    <glyph glyph-name="caroncomb.case" 
d="M211 1860q27 0 46 -13.5t19 -35.5q0 -23 -23 -50l-127 -144q-57 -68 -126 -68q-40 0 -68.5 15.5t-58.5 52.5l-130 144q-19 23 -19 46t20 38t49 15q52 0 95 -44l117 -113l112 111q41 46 94 46z" />
    <glyph glyph-name="brevecomb.case" 
d="M0 1534q-125 0 -213 75.5t-88 188.5q0 30 17.5 49.5t42.5 19.5q16 0 28.5 -8.5t17.5 -14.5t16.5 -27.5t13.5 -25.5q12 -48 56.5 -79.5t107.5 -31.5t108.5 31.5t57.5 79.5q3 6 10.5 21.5t11.5 22t12 16t17.5 13t21.5 3.5q26 0 44 -18.5t18 -50.5q0 -113 -88 -188.5
t-212 -75.5z" />
    <glyph glyph-name="ringcomb.case" 
d="M0 1521q-93 0 -160.5 61.5t-67.5 153.5q0 90 68 148.5t160 58.5t160 -58.5t68 -148.5q0 -92 -68 -153.5t-160 -61.5zM0 1641q39 0 66 27t27 67t-26.5 65t-66.5 25t-66.5 -25t-26.5 -65t26.5 -67t66.5 -27z" />
    <glyph glyph-name="tildecomb.case" 
d="M151 1562q-35 0 -68.5 14t-59.5 34t-50.5 40t-50.5 34t-50 14q-64 0 -85 -81q-18 -61 -74 -61q-67 0 -67 92q0 101 59 174t154 73q43 0 86 -22t72.5 -48t64 -48t61.5 -22q57 0 71 76q6 26 24 42.5t44 16.5q32 0 54 -23t22 -64q0 -105 -58 -173t-149 -68z" />
    <glyph glyph-name="macroncomb.case" 
d="M190 1823q47 0 79 -23t43 -65q-24 -84 -130 -84h-372q-47 0 -79 23t-43 65q24 84 130 84h372zM-318 1696v90q0 -26 6 -47q-6 -19 -6 -43zM317 1778v-90q0 30 -5 47q5 16 5 43z" />
    <glyph glyph-name="acutecomb.narrow" 
d="M-10 1129q-69 0 -69 71q0 28 12 64l80 247q18 55 56.5 82t85.5 27q51 0 88.5 -29.5t37.5 -75.5q0 -45 -38 -91l-109 -200q-40 -49 -73 -72t-71 -23z" />
    </font>
</defs>
</svg>
